G04*
G04 #@! TF.GenerationSoftware,Altium Limited,Altium Designer,22.4.2 (48)*
G04*
G04 Layer_Physical_Order=1*
G04 Layer_Color=255*
%FSLAX25Y25*%
%MOIN*%
G70*
G04*
G04 #@! TF.SameCoordinates,72E6E30A-1C0B-45E9-B78B-765FFEEE1884*
G04*
G04*
G04 #@! TF.FilePolarity,Positive*
G04*
G01*
G75*
%ADD15C,0.01000*%
%ADD37R,0.08000X0.04000*%
%ADD38R,0.04000X0.01700*%
%ADD39R,0.05000X0.05000*%
%ADD40R,0.05000X0.05000*%
%ADD41R,0.03150X0.08268*%
%ADD42R,0.02362X0.07087*%
%ADD43R,0.02559X0.06496*%
%ADD44R,0.01700X0.04000*%
%ADD45R,0.06300X0.01700*%
%ADD46C,0.02500*%
%ADD47C,0.01200*%
%ADD48C,0.01300*%
%ADD49R,0.09843X0.09843*%
%ADD50C,0.09843*%
%ADD51C,0.12500*%
%ADD52C,0.03500*%
%ADD53C,0.05906*%
%ADD54R,0.05906X0.05906*%
%ADD55C,0.06000*%
%ADD56C,0.07000*%
%ADD57R,0.07000X0.07000*%
%ADD58C,0.25000*%
%ADD59C,0.03600*%
%ADD60C,0.02400*%
%ADD61C,0.04400*%
G36*
X228523Y348749D02*
X230834Y348290D01*
X233088Y347606D01*
X235265Y346704D01*
X237343Y345594D01*
X239302Y344285D01*
X241124Y342790D01*
X242790Y341124D01*
X244285Y339302D01*
X245594Y337343D01*
X246704Y335265D01*
X247606Y333088D01*
X248290Y330834D01*
X248749Y328523D01*
X248980Y326178D01*
Y325000D01*
Y260000D01*
X191519D01*
X190779Y260630D01*
X190779Y261000D01*
Y269126D01*
X190341D01*
X190158Y270126D01*
X190365Y270333D01*
X190700Y271141D01*
Y272016D01*
X190365Y272825D01*
X189746Y273444D01*
X188938Y273779D01*
X188062D01*
X187254Y273444D01*
X186635Y272825D01*
X186300Y272016D01*
Y271141D01*
X186635Y270333D01*
X186841Y270126D01*
X186659Y269126D01*
X186221Y269126D01*
X185221Y269126D01*
X181220D01*
Y269126D01*
X180780D01*
X180202Y269887D01*
X180158Y270126D01*
X180365Y270333D01*
X180700Y271141D01*
Y272016D01*
X180365Y272825D01*
X179746Y273444D01*
X178938Y273779D01*
X178062D01*
X177254Y273444D01*
X176635Y272825D01*
X176300Y272016D01*
Y271141D01*
X176635Y270333D01*
X176841Y270126D01*
X176659Y269126D01*
X176221Y269126D01*
X175221Y269126D01*
X171221D01*
Y266407D01*
X168381D01*
X168045Y266743D01*
X167237Y267078D01*
X166362D01*
X165553Y266743D01*
X164934Y266124D01*
X164599Y265316D01*
Y264440D01*
X164934Y263632D01*
X165553Y263013D01*
X166362Y262678D01*
X167237D01*
X168045Y263013D01*
X168381Y263349D01*
X171221D01*
Y261000D01*
X171221Y260630D01*
X170481Y260000D01*
X55000D01*
Y268000D01*
Y295000D01*
Y348980D01*
X226178D01*
X228523Y348749D01*
D02*
G37*
G36*
X53980Y295000D02*
X11000D01*
Y268293D01*
X11000Y268000D01*
X11445Y267294D01*
X11327Y266828D01*
X10793Y266294D01*
X10000D01*
X9122Y266120D01*
X8378Y265622D01*
X7880Y264878D01*
X7706Y264000D01*
X7880Y263122D01*
X8378Y262378D01*
X9122Y261880D01*
X10000Y261706D01*
X11500D01*
Y260500D01*
X18500D01*
Y261706D01*
X19500D01*
Y260500D01*
X26500D01*
Y261706D01*
X27500D01*
Y260500D01*
X34500D01*
Y261706D01*
X41050D01*
X47706Y255050D01*
Y251776D01*
X47425D01*
Y241508D01*
X52575D01*
Y251776D01*
X52294D01*
Y256000D01*
X52119Y256878D01*
X51622Y257622D01*
X43622Y265622D01*
X42878Y266120D01*
X42000Y266294D01*
X35207D01*
X34874Y266627D01*
X34980Y267803D01*
X35293Y268000D01*
X53980D01*
Y260000D01*
X54000Y259901D01*
Y259000D01*
X54901D01*
X55000Y258980D01*
X170481D01*
X170580Y259000D01*
X191420D01*
X191519Y258980D01*
X248980D01*
Y25000D01*
Y23822D01*
X248749Y21477D01*
X248290Y19166D01*
X247606Y16912D01*
X246704Y14735D01*
X245594Y12657D01*
X244285Y10698D01*
X242790Y8876D01*
X241124Y7210D01*
X239302Y5715D01*
X237343Y4406D01*
X235265Y3296D01*
X233088Y2394D01*
X230834Y1710D01*
X228523Y1251D01*
X226178Y1020D01*
X23822D01*
X21477Y1251D01*
X19166Y1710D01*
X16912Y2394D01*
X14735Y3296D01*
X12657Y4406D01*
X10698Y5715D01*
X8876Y7210D01*
X7210Y8876D01*
X5715Y10698D01*
X4406Y12657D01*
X3296Y14735D01*
X2394Y16912D01*
X1710Y19166D01*
X1251Y21477D01*
X1020Y23822D01*
Y25000D01*
Y325000D01*
Y326178D01*
X1251Y328523D01*
X1710Y330834D01*
X2394Y333088D01*
X3296Y335265D01*
X4406Y337343D01*
X5715Y339302D01*
X7210Y341124D01*
X8876Y342790D01*
X10698Y344285D01*
X12657Y345594D01*
X14735Y346704D01*
X16912Y347606D01*
X19166Y348290D01*
X21477Y348749D01*
X23822Y348980D01*
X53980D01*
Y295000D01*
D02*
G37*
%LPC*%
G36*
X126000Y343838D02*
Y339000D01*
X130838D01*
X130694Y339727D01*
X130247Y340805D01*
X129599Y341775D01*
X128775Y342599D01*
X127805Y343247D01*
X126727Y343694D01*
X126000Y343838D01*
D02*
G37*
G36*
X106315D02*
Y339000D01*
X111153D01*
X111009Y339727D01*
X110562Y340805D01*
X109914Y341775D01*
X109090Y342599D01*
X108120Y343247D01*
X107042Y343694D01*
X106315Y343838D01*
D02*
G37*
G36*
X124000D02*
X123273Y343694D01*
X122195Y343247D01*
X121225Y342599D01*
X120401Y341775D01*
X119753Y340805D01*
X119306Y339727D01*
X119162Y339000D01*
X124000D01*
Y343838D01*
D02*
G37*
G36*
X104315D02*
X103588Y343694D01*
X102510Y343247D01*
X101540Y342599D01*
X100716Y341775D01*
X100068Y340805D01*
X99621Y339727D01*
X99477Y339000D01*
X104315D01*
Y343838D01*
D02*
G37*
G36*
X130838Y337000D02*
X126000D01*
Y332162D01*
X126727Y332306D01*
X127805Y332753D01*
X128775Y333401D01*
X129599Y334225D01*
X130247Y335195D01*
X130694Y336273D01*
X130838Y337000D01*
D02*
G37*
G36*
X111153D02*
X106315D01*
Y332162D01*
X107042Y332306D01*
X108120Y332753D01*
X109090Y333401D01*
X109914Y334225D01*
X110562Y335195D01*
X111009Y336273D01*
X111153Y337000D01*
D02*
G37*
G36*
X124000D02*
X119162D01*
X119306Y336273D01*
X119753Y335195D01*
X120401Y334225D01*
X121225Y333401D01*
X122195Y332753D01*
X123273Y332306D01*
X124000Y332162D01*
Y337000D01*
D02*
G37*
G36*
X104315D02*
X99477D01*
X99621Y336273D01*
X100068Y335195D01*
X100716Y334225D01*
X101540Y333401D01*
X102510Y332753D01*
X103588Y332306D01*
X104315Y332162D01*
Y337000D01*
D02*
G37*
G36*
X170291Y343921D02*
X158449D01*
Y332079D01*
X170291D01*
Y343921D01*
D02*
G37*
G36*
X145268D02*
X144102D01*
X142958Y343694D01*
X141880Y343247D01*
X140910Y342599D01*
X140086Y341775D01*
X139438Y340805D01*
X138991Y339727D01*
X138764Y338583D01*
Y337417D01*
X138991Y336273D01*
X139438Y335195D01*
X140086Y334225D01*
X140910Y333401D01*
X141880Y332753D01*
X142958Y332306D01*
X144102Y332079D01*
X145268D01*
X146412Y332306D01*
X147490Y332753D01*
X148460Y333401D01*
X149284Y334225D01*
X149932Y335195D01*
X150379Y336273D01*
X150606Y337417D01*
Y338583D01*
X150379Y339727D01*
X149932Y340805D01*
X149284Y341775D01*
X148460Y342599D01*
X147490Y343247D01*
X146412Y343694D01*
X145268Y343921D01*
D02*
G37*
G36*
X86213D02*
X85047D01*
X83903Y343694D01*
X82825Y343247D01*
X81855Y342599D01*
X81031Y341775D01*
X80383Y340805D01*
X79936Y339727D01*
X79709Y338583D01*
Y337417D01*
X79936Y336273D01*
X80383Y335195D01*
X81031Y334225D01*
X81855Y333401D01*
X82825Y332753D01*
X83903Y332306D01*
X85047Y332079D01*
X86213D01*
X87357Y332306D01*
X88435Y332753D01*
X89404Y333401D01*
X90229Y334225D01*
X90877Y335195D01*
X91324Y336273D01*
X91551Y337417D01*
Y338583D01*
X91324Y339727D01*
X90877Y340805D01*
X90229Y341775D01*
X89404Y342599D01*
X88435Y343247D01*
X87357Y343694D01*
X86213Y343921D01*
D02*
G37*
G36*
X183138Y315200D02*
X182262D01*
X181454Y314865D01*
X181000Y314411D01*
X180546Y314865D01*
X179738Y315200D01*
X178862D01*
X178054Y314865D01*
X177435Y314246D01*
X177100Y313438D01*
Y312562D01*
X177126Y312500D01*
X176458Y311500D01*
X173500D01*
Y304500D01*
X177971D01*
Y303500D01*
X173500D01*
Y296500D01*
X172707Y296000D01*
X161000D01*
Y294294D01*
X160000D01*
X159122Y294120D01*
X158378Y293622D01*
X157880Y292878D01*
X157706Y292000D01*
X157880Y291122D01*
X158378Y290378D01*
X159122Y289880D01*
X160000Y289706D01*
X161000D01*
Y279000D01*
X191000D01*
Y296000D01*
X189293D01*
X188500Y296500D01*
Y303500D01*
X184029D01*
Y304500D01*
X188500D01*
Y311500D01*
X185542D01*
X184874Y312500D01*
X184900Y312562D01*
Y313438D01*
X184565Y314246D01*
X183946Y314865D01*
X183138Y315200D01*
D02*
G37*
G36*
X226062Y338500D02*
X223938D01*
X221839Y338168D01*
X219818Y337511D01*
X217924Y336546D01*
X216205Y335297D01*
X214703Y333795D01*
X213454Y332076D01*
X212489Y330182D01*
X211832Y328161D01*
X211500Y326062D01*
Y323938D01*
X211832Y321839D01*
X212489Y319818D01*
X213454Y317924D01*
X214703Y316205D01*
X216205Y314703D01*
X217924Y313454D01*
X219818Y312489D01*
X221839Y311832D01*
X223938Y311500D01*
X226062D01*
X228161Y311832D01*
X230182Y312489D01*
X232076Y313454D01*
X233795Y314703D01*
X235297Y316205D01*
X236546Y317924D01*
X237511Y319818D01*
X238168Y321839D01*
X238500Y323938D01*
Y326062D01*
X238168Y328161D01*
X237511Y330182D01*
X236546Y332076D01*
X235297Y333795D01*
X233795Y335297D01*
X232076Y336546D01*
X230182Y337511D01*
X228161Y338168D01*
X226062Y338500D01*
D02*
G37*
G36*
X196500Y311500D02*
X194000D01*
Y309000D01*
X196500D01*
Y311500D01*
D02*
G37*
G36*
X192000D02*
X189500D01*
Y309000D01*
X192000D01*
Y311500D01*
D02*
G37*
G36*
X196500Y307000D02*
X194000D01*
Y304500D01*
X196500D01*
Y307000D01*
D02*
G37*
G36*
X192000D02*
X189500D01*
Y304500D01*
X192000D01*
Y307000D01*
D02*
G37*
G36*
X169000Y315294D02*
X168122Y315120D01*
X167378Y314622D01*
X166881Y313878D01*
X166706Y313000D01*
Y311500D01*
X165500D01*
Y304500D01*
X172500D01*
Y311500D01*
X171294D01*
Y313000D01*
X171119Y313878D01*
X170622Y314622D01*
X169878Y315120D01*
X169000Y315294D01*
D02*
G37*
G36*
X141000Y307294D02*
X140122Y307119D01*
X139378Y306622D01*
X138881Y305878D01*
X138706Y305000D01*
Y304000D01*
X123294D01*
Y305000D01*
X123119Y305878D01*
X122622Y306622D01*
X121878Y307119D01*
X121000Y307294D01*
X120122Y307119D01*
X119378Y306622D01*
X118880Y305878D01*
X118706Y305000D01*
Y304000D01*
X117000D01*
X117000Y282000D01*
X122475Y282000D01*
X122696Y281747D01*
X123033Y281000D01*
X122800Y280438D01*
Y279562D01*
X123135Y278754D01*
X123754Y278135D01*
X124562Y277800D01*
X125438D01*
X126246Y278135D01*
X126865Y278754D01*
X127200Y279562D01*
Y280438D01*
X126967Y281000D01*
X127304Y281747D01*
X127525Y282000D01*
X142474Y282000D01*
X142696Y281747D01*
X143033Y281000D01*
X142800Y280438D01*
Y279562D01*
X143135Y278754D01*
X143754Y278135D01*
X144562Y277800D01*
X145438D01*
X146246Y278135D01*
X146865Y278754D01*
X147200Y279562D01*
Y280438D01*
X146967Y281000D01*
X147304Y281747D01*
X147526Y282000D01*
X153000Y282000D01*
X153000Y304000D01*
X143294D01*
Y305000D01*
X143120Y305878D01*
X142622Y306622D01*
X141878Y307119D01*
X141000Y307294D01*
D02*
G37*
G36*
X112500Y303500D02*
X110000D01*
Y301000D01*
X112500D01*
Y303500D01*
D02*
G37*
G36*
X108000D02*
X105500D01*
Y301000D01*
X108000D01*
Y303500D01*
D02*
G37*
G36*
X112500Y299000D02*
X110000D01*
Y296500D01*
X112500D01*
Y299000D01*
D02*
G37*
G36*
X108000D02*
X105500D01*
Y296500D01*
X108000D01*
Y299000D01*
D02*
G37*
G36*
X71000Y315294D02*
X70122Y315120D01*
X69378Y314622D01*
X68880Y313878D01*
X68706Y313000D01*
Y312000D01*
X67000D01*
Y284000D01*
X83000D01*
Y312000D01*
X73294D01*
Y313000D01*
X73119Y313878D01*
X72622Y314622D01*
X71878Y315120D01*
X71000Y315294D01*
D02*
G37*
G36*
X104500Y303500D02*
X97500D01*
Y296500D01*
X97775D01*
Y287047D01*
X97706Y286701D01*
X97819Y286133D01*
Y282157D01*
X101819D01*
X102819Y282157D01*
X103181Y282157D01*
X106819D01*
X107819Y282157D01*
X108098Y281157D01*
X107800Y280438D01*
Y279562D01*
X108135Y278754D01*
X108754Y278135D01*
X109562Y277800D01*
X110438D01*
X111246Y278135D01*
X111865Y278754D01*
X112200Y279562D01*
Y280438D01*
X111902Y281157D01*
X112181Y282157D01*
X112181D01*
Y291244D01*
X108181D01*
X107181Y291244D01*
X106819Y291244D01*
X102819Y291244D01*
X102363Y292055D01*
Y296500D01*
X104500D01*
Y303500D01*
D02*
G37*
G36*
X26063Y338500D02*
X23937D01*
X21839Y338168D01*
X19818Y337511D01*
X17924Y336546D01*
X16205Y335297D01*
X14703Y333795D01*
X13454Y332076D01*
X12489Y330182D01*
X11832Y328161D01*
X11500Y326062D01*
Y323938D01*
X11832Y321839D01*
X12489Y319818D01*
X13454Y317924D01*
X14703Y316205D01*
X16205Y314703D01*
X17924Y313454D01*
X19818Y312489D01*
X21839Y311832D01*
X23937Y311500D01*
X26063D01*
X28161Y311832D01*
X30182Y312489D01*
X32076Y313454D01*
X33795Y314703D01*
X35297Y316205D01*
X36546Y317924D01*
X37511Y319818D01*
X38168Y321839D01*
X38500Y323938D01*
Y326062D01*
X38168Y328161D01*
X37511Y330182D01*
X36546Y332076D01*
X35297Y333795D01*
X33795Y335297D01*
X32076Y336546D01*
X30182Y337511D01*
X28161Y338168D01*
X26063Y338500D01*
D02*
G37*
G36*
X82575Y251776D02*
X77425D01*
Y241508D01*
X82575D01*
Y251776D01*
D02*
G37*
G36*
X113000Y254000D02*
X97000D01*
Y232000D01*
X106706D01*
Y231000D01*
X106881Y230122D01*
X107378Y229378D01*
X108122Y228881D01*
X109000Y228706D01*
X109878Y228881D01*
X110622Y229378D01*
X111119Y230122D01*
X111294Y231000D01*
Y231293D01*
X112001Y232000D01*
X112402Y232000D01*
X112863Y231901D01*
X113193Y231693D01*
X113401Y231363D01*
X113500Y230903D01*
X113500Y230748D01*
Y224500D01*
X114706D01*
Y223000D01*
X114881Y222122D01*
X115378Y221378D01*
X116122Y220881D01*
X117000Y220706D01*
X117878Y220881D01*
X118622Y221378D01*
X119120Y222122D01*
X119294Y223000D01*
Y224500D01*
X120500D01*
Y231500D01*
X114635Y231500D01*
X114345Y231889D01*
X114762Y232500D01*
X120500D01*
Y236437D01*
X121500Y235903D01*
Y232500D01*
X128500D01*
Y235758D01*
X129500Y236293D01*
Y232500D01*
X133362D01*
X133441Y232382D01*
X132970Y231500D01*
X129500D01*
Y229529D01*
X128500D01*
Y231500D01*
X121500D01*
Y224500D01*
X128500D01*
Y226471D01*
X129500D01*
Y224500D01*
X136500D01*
Y229126D01*
X137345Y229661D01*
X137500Y229587D01*
Y224500D01*
X138706D01*
Y223000D01*
X138881Y222122D01*
X139378Y221378D01*
X140122Y220881D01*
X141000Y220706D01*
X141878Y220881D01*
X142622Y221378D01*
X143120Y222122D01*
X143294Y223000D01*
Y224500D01*
X144500D01*
Y230471D01*
X145091D01*
X145623Y230576D01*
X145711Y230565D01*
X146591Y229995D01*
X146591Y229739D01*
Y228500D01*
X148441D01*
Y227500D01*
X149150D01*
Y224500D01*
X149680D01*
Y223935D01*
X149796Y223349D01*
X150128Y222853D01*
X152281Y220700D01*
Y220225D01*
X152616Y219416D01*
X153235Y218797D01*
X154043Y218463D01*
X154919D01*
X155727Y218797D01*
X156346Y219416D01*
X156681Y220225D01*
Y221100D01*
X156346Y221909D01*
X155727Y222528D01*
X154919Y222863D01*
X154444D01*
X153730Y223576D01*
X154113Y224500D01*
X155409D01*
Y227552D01*
X155585Y227587D01*
X156081Y227919D01*
X157963Y229800D01*
X158438D01*
X159246Y230135D01*
X159865Y230754D01*
X160200Y231562D01*
Y232438D01*
X159865Y233246D01*
X159246Y233865D01*
X158438Y234200D01*
X157562D01*
X156754Y233865D01*
X156653Y233765D01*
X156236Y233490D01*
X155409Y233964D01*
Y235500D01*
X153559D01*
Y236500D01*
X152850D01*
Y239500D01*
X146591D01*
Y235663D01*
X145424Y234496D01*
X144500Y234878D01*
Y239500D01*
X141598D01*
Y244049D01*
X142305Y244756D01*
X142819D01*
X143181Y244756D01*
X146819D01*
X147819Y244756D01*
X147932Y243756D01*
X147800Y243438D01*
Y242562D01*
X148135Y241754D01*
X148754Y241135D01*
X149562Y240800D01*
X150438D01*
X151246Y241135D01*
X151865Y241754D01*
X152200Y242562D01*
Y243438D01*
X152068Y243756D01*
X152181Y244756D01*
X152181D01*
Y253842D01*
X148181D01*
X147181Y253842D01*
X146819Y253842D01*
X143181D01*
X142181Y253842D01*
X141819Y253842D01*
X137819D01*
Y244756D01*
X138540D01*
Y239500D01*
X137500D01*
Y236030D01*
X136618Y235559D01*
X136500Y235638D01*
Y239500D01*
X131807D01*
X131631Y239676D01*
Y244756D01*
X132181D01*
Y253842D01*
X128181D01*
X127181Y253842D01*
X126819Y253842D01*
X123181D01*
X122181Y253842D01*
X121819Y253842D01*
X117819D01*
Y244756D01*
X118471D01*
Y240445D01*
X117526Y239500D01*
X114000D01*
X113500Y239500D01*
X113000Y240293D01*
Y254000D01*
D02*
G37*
G36*
X155409Y239500D02*
X154559D01*
Y237500D01*
X155409D01*
Y239500D01*
D02*
G37*
G36*
X147441Y226500D02*
X146591D01*
Y224500D01*
X147441D01*
Y226500D01*
D02*
G37*
G36*
X161500Y206500D02*
X154500D01*
Y204682D01*
X153500D01*
Y206500D01*
X146500D01*
Y204682D01*
X145500D01*
Y206500D01*
X138500D01*
Y202061D01*
X134810Y198372D01*
X134446Y197826D01*
X134318Y197182D01*
Y188366D01*
X133850D01*
Y185615D01*
X133783Y185532D01*
X132850Y185029D01*
X132438Y185200D01*
X131562D01*
X130754Y184865D01*
X130135Y184246D01*
X129800Y183438D01*
Y182562D01*
X130135Y181754D01*
X130754Y181135D01*
X131562Y180800D01*
X132416D01*
X132691Y180525D01*
X133072Y180271D01*
X133119Y180000D01*
X132588Y179376D01*
X132407Y179200D01*
X131562D01*
X130754Y178865D01*
X130135Y178246D01*
X129800Y177438D01*
Y176562D01*
X130135Y175754D01*
X130754Y175135D01*
X131562Y174800D01*
X132438D01*
X132571Y174855D01*
X133099Y174750D01*
X133850D01*
Y170569D01*
X132940Y170336D01*
X132200Y170980D01*
Y171438D01*
X131865Y172246D01*
X131246Y172865D01*
X130438Y173200D01*
X129562D01*
X128754Y172865D01*
X128135Y172246D01*
X127800Y171438D01*
Y170562D01*
X128135Y169754D01*
X128754Y169135D01*
X128980Y169041D01*
Y167959D01*
X128754Y167865D01*
X128135Y167246D01*
X127800Y166438D01*
Y165562D01*
X128135Y164754D01*
X128754Y164135D01*
X128980Y164041D01*
Y162959D01*
X128754Y162865D01*
X128135Y162246D01*
X127800Y161438D01*
Y160562D01*
X128135Y159754D01*
X128754Y159135D01*
X129562Y158800D01*
X130438D01*
X131246Y159135D01*
X131865Y159754D01*
X132200Y160562D01*
Y160974D01*
X132933Y161683D01*
X133850Y161634D01*
Y161634D01*
X142150D01*
Y163519D01*
X143064Y163737D01*
X143150Y163739D01*
X143754Y163135D01*
X144562Y162800D01*
X145438D01*
X146246Y163135D01*
X146865Y163754D01*
X147200Y164562D01*
Y165438D01*
X146865Y166246D01*
X146529Y166582D01*
Y168876D01*
X146413Y169461D01*
X146081Y169957D01*
X145062Y170976D01*
X145244Y172122D01*
X145282Y172171D01*
X145865Y172754D01*
X146200Y173562D01*
Y174438D01*
X145865Y175246D01*
X145246Y175865D01*
X145020Y175959D01*
Y177041D01*
X145246Y177135D01*
X145865Y177754D01*
X146200Y178562D01*
Y179438D01*
X145865Y180246D01*
X145246Y180865D01*
X145020Y180959D01*
Y182041D01*
X145246Y182135D01*
X145865Y182754D01*
X146200Y183562D01*
Y184000D01*
X157850D01*
Y182615D01*
X157779Y182527D01*
X156927Y182035D01*
X156850Y182029D01*
X156438Y182200D01*
X155562D01*
X154754Y181865D01*
X154135Y181246D01*
X153800Y180438D01*
Y179562D01*
X154135Y178754D01*
X154754Y178135D01*
X154953Y178053D01*
Y176970D01*
X154754Y176888D01*
X154135Y176269D01*
X153800Y175460D01*
Y175124D01*
X153547Y174480D01*
X152877Y174200D01*
X152562D01*
X151754Y173865D01*
X151135Y173246D01*
X150800Y172438D01*
Y171562D01*
X151135Y170754D01*
X151235Y170653D01*
X151665Y170000D01*
X151235Y169347D01*
X151135Y169246D01*
X150800Y168438D01*
Y167562D01*
X151135Y166754D01*
X151754Y166135D01*
X152562Y165800D01*
X153438D01*
X154246Y166135D01*
X154865Y166754D01*
X154966Y166999D01*
X155921D01*
X156305Y166073D01*
X155919Y165687D01*
X155587Y165191D01*
X155471Y164606D01*
Y161379D01*
X155587Y160794D01*
X155809Y160461D01*
X155800Y160438D01*
Y159562D01*
X156135Y158754D01*
X156754Y158135D01*
X157562Y157800D01*
X158438D01*
X159246Y158135D01*
X159347Y158235D01*
X160000Y158665D01*
X160653Y158235D01*
X160754Y158135D01*
X161562Y157800D01*
X162438D01*
X163246Y158135D01*
X163865Y158754D01*
X164200Y159562D01*
Y160438D01*
X164119Y160634D01*
X164784Y161634D01*
X166150D01*
Y164193D01*
Y166752D01*
Y169311D01*
Y172191D01*
X166650D01*
X167235Y172308D01*
X167731Y172639D01*
X167892Y172800D01*
X168438D01*
X169246Y173135D01*
X169865Y173754D01*
X170200Y174562D01*
Y175438D01*
X169865Y176246D01*
X169246Y176865D01*
X168438Y177200D01*
X167562D01*
X167150Y177029D01*
X166217Y177532D01*
X166150Y177615D01*
Y179868D01*
X169389D01*
X169437Y179689D01*
X169799Y179061D01*
X170311Y178550D01*
X170939Y178187D01*
X171638Y178000D01*
X172362D01*
X173062Y178187D01*
X173688Y178550D01*
X174200Y179061D01*
X174563Y179689D01*
X174750Y180388D01*
Y181112D01*
X174563Y181811D01*
X174200Y182439D01*
X173730Y183000D01*
X174201Y183562D01*
X174563Y184188D01*
X174750Y184888D01*
Y185612D01*
X174563Y186311D01*
X174200Y186939D01*
X173688Y187451D01*
X173062Y187813D01*
X172362Y188000D01*
X171638D01*
X170939Y187813D01*
X170311Y187451D01*
X169799Y186939D01*
X169437Y186311D01*
X169250Y185612D01*
Y185486D01*
X166150D01*
Y188366D01*
X166000D01*
Y199000D01*
X162293D01*
X161500Y199500D01*
Y200706D01*
X167000D01*
X167878Y200881D01*
X168622Y201378D01*
X169120Y202122D01*
X169294Y203000D01*
X169120Y203878D01*
X168622Y204622D01*
X167878Y205119D01*
X167000Y205294D01*
X161500D01*
Y206500D01*
D02*
G37*
G36*
X215500Y204500D02*
X213000D01*
Y202000D01*
X215500D01*
Y204500D01*
D02*
G37*
G36*
X226000Y204391D02*
Y201000D01*
X229391D01*
X229193Y201737D01*
X228601Y202763D01*
X227763Y203601D01*
X226737Y204193D01*
X226000Y204391D01*
D02*
G37*
G36*
X224000D02*
X223263Y204193D01*
X222237Y203601D01*
X221399Y202763D01*
X220807Y201737D01*
X220609Y201000D01*
X224000D01*
Y204391D01*
D02*
G37*
G36*
X215500Y200000D02*
X213000D01*
Y197500D01*
X215500D01*
Y200000D01*
D02*
G37*
G36*
X229391Y199000D02*
X226000D01*
Y195609D01*
X226737Y195807D01*
X227763Y196399D01*
X228601Y197237D01*
X229193Y198263D01*
X229391Y199000D01*
D02*
G37*
G36*
X224000D02*
X220609D01*
X220807Y198263D01*
X221399Y197237D01*
X222237Y196399D01*
X223263Y195807D01*
X224000Y195609D01*
Y199000D01*
D02*
G37*
G36*
X106938Y194519D02*
X106062D01*
X105254Y194184D01*
X104635Y193565D01*
X104541Y193339D01*
X103459D01*
X103365Y193565D01*
X102746Y194184D01*
X101938Y194519D01*
X101062D01*
X100254Y194184D01*
X99635Y193565D01*
X99541Y193339D01*
X98459D01*
X98365Y193565D01*
X97746Y194184D01*
X96938Y194519D01*
X96062D01*
X95254Y194184D01*
X94635Y193565D01*
X94541Y193339D01*
X93459D01*
X93365Y193565D01*
X92746Y194184D01*
X91938Y194519D01*
X91062D01*
X90254Y194184D01*
X89635Y193565D01*
X89541Y193339D01*
X88459D01*
X88365Y193565D01*
X87746Y194184D01*
X86938Y194519D01*
X86062D01*
X85254Y194184D01*
X84635Y193565D01*
X84541Y193339D01*
X83459D01*
X83365Y193565D01*
X82746Y194184D01*
X81938Y194519D01*
X81062D01*
X80254Y194184D01*
X79635Y193565D01*
X79300Y192756D01*
Y191881D01*
X79430Y191567D01*
X79220Y190567D01*
X78780D01*
Y190567D01*
X74221D01*
Y186392D01*
X74206Y186319D01*
X74221Y186246D01*
Y182071D01*
X74832D01*
X74907Y181958D01*
X79487Y177378D01*
X80231Y176881D01*
X81109Y176706D01*
X116793D01*
X117126Y176373D01*
X117020Y175198D01*
X116707Y175000D01*
X109000D01*
Y168838D01*
X108780Y167929D01*
X108000Y167929D01*
X104780D01*
X104220Y167929D01*
X103220Y167929D01*
X99779D01*
X99221Y167929D01*
X98220Y167929D01*
X94779D01*
X94221Y167929D01*
X93221Y167929D01*
X89780D01*
X88779Y167929D01*
X88570Y168929D01*
X88700Y169244D01*
Y170119D01*
X88365Y170927D01*
X87746Y171546D01*
X86938Y171881D01*
X86062D01*
X85254Y171546D01*
X84635Y170927D01*
X84541Y170701D01*
X83459D01*
X83365Y170927D01*
X82746Y171546D01*
X81938Y171881D01*
X81062D01*
X80254Y171546D01*
X79635Y170927D01*
X79300Y170119D01*
Y169244D01*
X79430Y168929D01*
X79382Y168698D01*
X78292Y168374D01*
X78029Y168636D01*
Y175154D01*
X77913Y175739D01*
X77581Y176235D01*
X69779Y184037D01*
Y190370D01*
X65780D01*
X65220Y190370D01*
X64220Y190370D01*
X60780D01*
X59780Y190370D01*
X59570Y191370D01*
X59700Y191684D01*
Y192560D01*
X59365Y193368D01*
X58746Y193987D01*
X57938Y194322D01*
X57062D01*
X56254Y193987D01*
X55635Y193368D01*
X55541Y193142D01*
X54459D01*
X54365Y193368D01*
X53746Y193987D01*
X52938Y194322D01*
X52062D01*
X51254Y193987D01*
X50635Y193368D01*
X50300Y192560D01*
Y191684D01*
X50430Y191370D01*
X50221Y190370D01*
X49220Y190370D01*
X48500D01*
Y186122D01*
Y181874D01*
X49220D01*
X49779Y181874D01*
X50779Y181874D01*
X54220D01*
X54779Y181874D01*
X55779Y181874D01*
X59220D01*
X60220Y181874D01*
X60430Y180874D01*
X60300Y180560D01*
Y179684D01*
X60635Y178876D01*
X61254Y178257D01*
X62062Y177922D01*
X62938D01*
X63746Y178257D01*
X64365Y178876D01*
X64700Y179684D01*
Y180560D01*
X64570Y180874D01*
X64780Y181874D01*
X65780Y181874D01*
X67617D01*
X74971Y174520D01*
Y167929D01*
X74221D01*
Y159433D01*
X78220D01*
X78780Y159433D01*
X79779Y159433D01*
X83220D01*
X83780Y159433D01*
X84780Y159433D01*
X88221D01*
X89242Y159433D01*
X89800Y158438D01*
Y157562D01*
X90135Y156754D01*
X90754Y156135D01*
X91562Y155800D01*
X92438D01*
X93246Y156135D01*
X93865Y156754D01*
X93959Y156980D01*
X95041D01*
X95135Y156754D01*
X95754Y156135D01*
X96562Y155800D01*
X97438D01*
X98246Y156135D01*
X98865Y156754D01*
X98959Y156980D01*
X100041D01*
X100135Y156754D01*
X100754Y156135D01*
X101562Y155800D01*
X102438D01*
X103246Y156135D01*
X103865Y156754D01*
X103959Y156980D01*
X105041D01*
X105135Y156754D01*
X105754Y156135D01*
X106562Y155800D01*
X107438D01*
X108246Y156135D01*
X108865Y156754D01*
X109200Y157562D01*
X109200Y158438D01*
X110049Y159000D01*
X125000D01*
Y174707D01*
X125000Y175000D01*
X124555Y175706D01*
X124673Y176172D01*
X125207Y176706D01*
X126000D01*
X126878Y176881D01*
X127622Y177378D01*
X128120Y178122D01*
X128294Y179000D01*
X128120Y179878D01*
X127622Y180622D01*
X126878Y181120D01*
X126000Y181294D01*
X124500D01*
Y182500D01*
X117500D01*
Y181294D01*
X114318D01*
X113779Y182071D01*
X113779Y182294D01*
Y190567D01*
X109780D01*
X108780Y190567D01*
X108570Y191567D01*
X108700Y191881D01*
Y192756D01*
X108365Y193565D01*
X107746Y194184D01*
X106938Y194519D01*
D02*
G37*
G36*
X188000Y208294D02*
X187122Y208120D01*
X186378Y207622D01*
X185880Y206878D01*
X185706Y206000D01*
Y204500D01*
X184500D01*
Y197500D01*
X191056D01*
Y196000D01*
X185000D01*
Y190000D01*
X187475D01*
X187696Y189747D01*
X188033Y189000D01*
X187800Y188438D01*
Y187562D01*
X188135Y186754D01*
X188754Y186135D01*
X189562Y185800D01*
X190438D01*
X191246Y186135D01*
X191865Y186754D01*
X192200Y187562D01*
Y188438D01*
X191967Y189000D01*
X192304Y189747D01*
X192525Y190000D01*
X195000D01*
Y196000D01*
X194887D01*
X194470Y197000D01*
X194946Y197500D01*
X199500D01*
Y199471D01*
X200500D01*
Y197500D01*
X205054D01*
X205530Y197000D01*
X205113Y196000D01*
X205000D01*
Y190000D01*
X215000D01*
Y196000D01*
X208944D01*
Y197500D01*
X211000D01*
Y201000D01*
Y204500D01*
X208500D01*
Y201097D01*
X207500Y200563D01*
Y204500D01*
X200500D01*
Y202529D01*
X199500D01*
Y204500D01*
X192500D01*
Y200563D01*
X191500Y201097D01*
Y204500D01*
X190294D01*
Y206000D01*
X190120Y206878D01*
X189622Y207622D01*
X188878Y208120D01*
X188000Y208294D01*
D02*
G37*
G36*
X225592Y194500D02*
X224408D01*
X223263Y194193D01*
X222237Y193601D01*
X221399Y192763D01*
X220807Y191737D01*
X220500Y190592D01*
Y189408D01*
X220807Y188263D01*
X221399Y187237D01*
X222237Y186399D01*
X223263Y185807D01*
X224408Y185500D01*
X225592D01*
X226737Y185807D01*
X227763Y186399D01*
X228601Y187237D01*
X229193Y188263D01*
X229500Y189408D01*
Y190592D01*
X229193Y191737D01*
X228601Y192763D01*
X227763Y193601D01*
X226737Y194193D01*
X225592Y194500D01*
D02*
G37*
G36*
X215000Y184000D02*
X211000D01*
Y182000D01*
X215000D01*
Y184000D01*
D02*
G37*
G36*
X209000D02*
X205000D01*
Y182000D01*
X209000D01*
Y184000D01*
D02*
G37*
G36*
X195000D02*
X191000D01*
Y182000D01*
X195000D01*
Y184000D01*
D02*
G37*
G36*
X189000D02*
X185000D01*
Y182000D01*
X189000D01*
Y184000D01*
D02*
G37*
G36*
X37938Y194322D02*
X37062D01*
X36254Y193987D01*
X35635Y193368D01*
X35300Y192560D01*
Y191876D01*
X35207Y191605D01*
X34501Y191000D01*
X19000D01*
Y175293D01*
X19000Y175000D01*
X19445Y174294D01*
X19327Y173828D01*
X18793Y173294D01*
X18000D01*
X17122Y173119D01*
X16378Y172622D01*
X15880Y171878D01*
X15706Y171000D01*
X15880Y170122D01*
X16378Y169378D01*
X17122Y168880D01*
X18000Y168706D01*
X19500D01*
Y167500D01*
X26500D01*
Y168706D01*
X29461D01*
X30220Y168126D01*
X30220Y167706D01*
Y159630D01*
X30439D01*
X30880Y158630D01*
X30800Y158438D01*
Y157562D01*
X31135Y156754D01*
X31754Y156135D01*
X32562Y155800D01*
X33438D01*
X34246Y156135D01*
X34865Y156754D01*
X34959Y156980D01*
X36041D01*
X36135Y156754D01*
X36754Y156135D01*
X37562Y155800D01*
X38438D01*
X39246Y156135D01*
X39865Y156754D01*
X39959Y156980D01*
X41041D01*
X41135Y156754D01*
X41754Y156135D01*
X42562Y155800D01*
X43438D01*
X44246Y156135D01*
X44865Y156754D01*
X44971Y157009D01*
X45971Y156810D01*
Y154879D01*
X45974Y154859D01*
X45800Y154438D01*
Y153562D01*
X46135Y152754D01*
X46754Y152135D01*
X47562Y151800D01*
X48438D01*
X49246Y152135D01*
X49865Y152754D01*
X49959Y152980D01*
X51041D01*
X51135Y152754D01*
X51754Y152135D01*
X52562Y151800D01*
X53438D01*
X54246Y152135D01*
X54865Y152754D01*
X54971Y153009D01*
X55971Y152810D01*
Y151286D01*
X56029Y150991D01*
X55800Y150438D01*
Y149562D01*
X56135Y148754D01*
X56754Y148135D01*
X57562Y147800D01*
X58438D01*
X59246Y148135D01*
X59865Y148754D01*
X60200Y149562D01*
Y150438D01*
X59865Y151246D01*
X59246Y151865D01*
X59029Y151955D01*
Y158923D01*
X59737Y159630D01*
X61664Y159630D01*
X61731Y159288D01*
X62063Y158792D01*
X62800Y158055D01*
Y157562D01*
X63135Y156754D01*
X63754Y156135D01*
X64562Y155800D01*
X65438D01*
X66246Y156135D01*
X66865Y156754D01*
X67200Y157562D01*
Y158438D01*
X67120Y158630D01*
X67788Y159630D01*
X69779D01*
Y163805D01*
X69794Y163878D01*
X69779Y163951D01*
Y168126D01*
X69168D01*
X69093Y168239D01*
X64710Y172622D01*
X63965Y173119D01*
X63087Y173294D01*
X27207D01*
X26874Y173627D01*
X26980Y174802D01*
X27293Y175000D01*
X35000D01*
Y180965D01*
X35221Y181874D01*
X36000Y181874D01*
X39220D01*
X40220Y181874D01*
X40430Y180874D01*
X40300Y180560D01*
Y179684D01*
X40635Y178876D01*
X41254Y178257D01*
X42062Y177922D01*
X42938D01*
X43746Y178257D01*
X44365Y178876D01*
X44700Y179684D01*
Y180560D01*
X44570Y180874D01*
X44780Y181874D01*
X45779Y181874D01*
X46500D01*
Y186122D01*
Y190370D01*
X45779D01*
X45221Y190370D01*
X44221Y190370D01*
X40780D01*
X39779Y190370D01*
X39570Y191370D01*
X39700Y191684D01*
Y192560D01*
X39365Y193368D01*
X38746Y193987D01*
X37938Y194322D01*
D02*
G37*
G36*
X226000Y184391D02*
Y181000D01*
X229391D01*
X229193Y181737D01*
X228601Y182763D01*
X227763Y183601D01*
X226737Y184193D01*
X226000Y184391D01*
D02*
G37*
G36*
X224000D02*
X223263Y184193D01*
X222237Y183601D01*
X221399Y182763D01*
X220807Y181737D01*
X220609Y181000D01*
X224000D01*
Y184391D01*
D02*
G37*
G36*
X215000Y180000D02*
X211000D01*
Y178000D01*
X215000D01*
Y180000D01*
D02*
G37*
G36*
X209000D02*
X205000D01*
Y178000D01*
X209000D01*
Y180000D01*
D02*
G37*
G36*
X195000D02*
X191000D01*
Y178000D01*
X195000D01*
Y180000D01*
D02*
G37*
G36*
X189000D02*
X185000D01*
Y178000D01*
X189000D01*
Y180000D01*
D02*
G37*
G36*
X229391Y179000D02*
X226000D01*
Y175609D01*
X226737Y175807D01*
X227763Y176399D01*
X228601Y177237D01*
X229193Y178263D01*
X229391Y179000D01*
D02*
G37*
G36*
X224000D02*
X220609D01*
X220807Y178263D01*
X221399Y177237D01*
X222237Y176399D01*
X223263Y175807D01*
X224000Y175609D01*
Y179000D01*
D02*
G37*
G36*
X195000Y172000D02*
X191000D01*
Y170000D01*
X195000D01*
Y172000D01*
D02*
G37*
G36*
X215000D02*
X211000D01*
Y170000D01*
X215000D01*
Y172000D01*
D02*
G37*
G36*
X189000D02*
X185000D01*
Y170000D01*
X189000D01*
Y172000D01*
D02*
G37*
G36*
X209000D02*
X205000D01*
Y170000D01*
X209000D01*
Y172000D01*
D02*
G37*
G36*
X215000Y168000D02*
X211000D01*
Y166000D01*
X215000D01*
Y168000D01*
D02*
G37*
G36*
X209000D02*
X205000D01*
Y166000D01*
X209000D01*
Y168000D01*
D02*
G37*
G36*
X195000D02*
X191000D01*
Y166000D01*
X195000D01*
Y168000D01*
D02*
G37*
G36*
X189000D02*
X185000D01*
Y166000D01*
X189000D01*
Y168000D01*
D02*
G37*
G36*
X225592Y174500D02*
X224408D01*
X223263Y174193D01*
X222237Y173601D01*
X221399Y172763D01*
X220807Y171737D01*
X220500Y170592D01*
Y169408D01*
X220710Y168623D01*
X212087Y160000D01*
X205000D01*
Y154000D01*
X205113D01*
X205530Y153000D01*
X205054Y152500D01*
X200500D01*
Y150529D01*
X199500D01*
Y152500D01*
X194663D01*
X194279Y152884D01*
Y154000D01*
X195000D01*
Y160000D01*
X192525D01*
X192304Y160253D01*
X191967Y161000D01*
X192200Y161562D01*
Y162438D01*
X191865Y163246D01*
X191246Y163865D01*
X190438Y164200D01*
X189562D01*
X188754Y163865D01*
X188135Y163246D01*
X187800Y162438D01*
Y161562D01*
X188033Y161000D01*
X187696Y160253D01*
X187475Y160000D01*
X185000D01*
Y154000D01*
X191221D01*
Y152500D01*
X184500D01*
Y145500D01*
X185706D01*
Y144000D01*
X185880Y143122D01*
X186378Y142378D01*
X187122Y141881D01*
X188000Y141706D01*
X188878Y141881D01*
X189622Y142378D01*
X190120Y143122D01*
X190294Y144000D01*
Y145500D01*
X191500D01*
Y148903D01*
X192500Y149437D01*
Y145500D01*
X199500D01*
Y147471D01*
X200500D01*
Y145500D01*
X207500D01*
Y149437D01*
X208500Y148903D01*
Y145500D01*
X211000D01*
Y149000D01*
Y152500D01*
X208944D01*
Y154000D01*
X215000D01*
Y158587D01*
X222602Y166189D01*
X223263Y165807D01*
X224408Y165500D01*
X225592D01*
X226737Y165807D01*
X227763Y166399D01*
X228601Y167237D01*
X229193Y168263D01*
X229500Y169408D01*
Y170592D01*
X229193Y171737D01*
X228601Y172763D01*
X227763Y173601D01*
X226737Y174193D01*
X225592Y174500D01*
D02*
G37*
G36*
X226000Y164391D02*
Y161000D01*
X229391D01*
X229193Y161737D01*
X228601Y162763D01*
X227763Y163601D01*
X226737Y164193D01*
X226000Y164391D01*
D02*
G37*
G36*
X224000D02*
X223263Y164193D01*
X222237Y163601D01*
X221399Y162763D01*
X220807Y161737D01*
X220609Y161000D01*
X224000D01*
Y164391D01*
D02*
G37*
G36*
X229391Y159000D02*
X226000D01*
Y155609D01*
X226737Y155807D01*
X227763Y156399D01*
X228601Y157237D01*
X229193Y158263D01*
X229391Y159000D01*
D02*
G37*
G36*
X224000D02*
X220609D01*
X220807Y158263D01*
X221399Y157237D01*
X222237Y156399D01*
X223263Y155807D01*
X224000Y155609D01*
Y159000D01*
D02*
G37*
G36*
X215500Y152500D02*
X213000D01*
Y150000D01*
X215500D01*
Y152500D01*
D02*
G37*
G36*
X229500Y154500D02*
X220500D01*
Y145500D01*
X229500D01*
Y154500D01*
D02*
G37*
G36*
X215500Y148000D02*
X213000D01*
Y145500D01*
X215500D01*
Y148000D01*
D02*
G37*
G36*
X197438Y135200D02*
X196562D01*
X195754Y134865D01*
X195653Y134765D01*
X195000Y134335D01*
X194347Y134765D01*
X194246Y134865D01*
X193438Y135200D01*
X192562D01*
X191754Y134865D01*
X191135Y134246D01*
X190800Y133438D01*
Y132562D01*
X190864Y132409D01*
X190195Y131409D01*
X189500D01*
Y129559D01*
X187500D01*
Y131865D01*
X187136Y132409D01*
X187200Y132562D01*
Y133438D01*
X186865Y134246D01*
X186246Y134865D01*
X185438Y135200D01*
X184562D01*
X183754Y134865D01*
X183653Y134765D01*
X183000Y134335D01*
X182347Y134765D01*
X182246Y134865D01*
X181438Y135200D01*
X180562D01*
X179754Y134865D01*
X179653Y134765D01*
X179000Y134335D01*
X178347Y134765D01*
X178246Y134865D01*
X177438Y135200D01*
X176562D01*
X175754Y134865D01*
X175135Y134246D01*
X174800Y133438D01*
Y132562D01*
X174864Y132409D01*
X174195Y131409D01*
X173500D01*
Y129559D01*
X171500D01*
Y131865D01*
X171136Y132409D01*
X171200Y132562D01*
Y133438D01*
X170865Y134246D01*
X170246Y134865D01*
X169438Y135200D01*
X168562D01*
X167754Y134865D01*
X167653Y134765D01*
X167000Y134335D01*
X166347Y134765D01*
X166246Y134865D01*
X165438Y135200D01*
X164562D01*
X163754Y134865D01*
X163653Y134765D01*
X163000Y134335D01*
X162347Y134765D01*
X162246Y134865D01*
X161438Y135200D01*
X160562D01*
X159754Y134865D01*
X159135Y134246D01*
X158800Y133438D01*
Y132562D01*
X158863Y132409D01*
X158195Y131409D01*
X157500D01*
Y129559D01*
X155500D01*
Y131865D01*
X155137Y132409D01*
X155200Y132562D01*
Y133438D01*
X154865Y134246D01*
X154246Y134865D01*
X153438Y135200D01*
X152562D01*
X151754Y134865D01*
X151135Y134246D01*
X150800Y133438D01*
Y132562D01*
X151135Y131754D01*
X151471Y131418D01*
Y128500D01*
X145500D01*
Y121500D01*
X147471D01*
Y119633D01*
X141522Y113684D01*
X140520Y113953D01*
X139480D01*
X138474Y113683D01*
X137573Y113163D01*
X136837Y112427D01*
X136317Y111526D01*
X136047Y110520D01*
Y109480D01*
X136317Y108474D01*
X136837Y107573D01*
X137573Y106837D01*
X138474Y106317D01*
X139480Y106047D01*
X140520D01*
X141526Y106317D01*
X142427Y106837D01*
X143163Y107573D01*
X143683Y108474D01*
X143953Y109480D01*
Y110520D01*
X143684Y111522D01*
X150081Y117919D01*
X150413Y118415D01*
X150529Y119000D01*
Y121500D01*
X152500D01*
Y123882D01*
X153259Y124338D01*
X153500Y124151D01*
Y122591D01*
X153500D01*
X153864Y121591D01*
X153800Y121438D01*
Y120562D01*
X154135Y119754D01*
X154754Y119135D01*
X155562Y118800D01*
X156438D01*
X157246Y119135D01*
X157865Y119754D01*
X158200Y120562D01*
Y121438D01*
X158136Y121591D01*
X158492Y122591D01*
X159500D01*
Y125509D01*
X160500Y125923D01*
X160504Y125919D01*
X161001Y125587D01*
X161586Y125471D01*
X162500D01*
Y125150D01*
X165500D01*
Y124441D01*
X166500D01*
Y122591D01*
X168500D01*
Y123765D01*
X169312Y124234D01*
X169500Y124082D01*
Y122591D01*
X169500D01*
X169863Y121591D01*
X169800Y121438D01*
Y120562D01*
X170135Y119754D01*
X170754Y119135D01*
X171562Y118800D01*
X172438D01*
X173246Y119135D01*
X173865Y119754D01*
X174200Y120562D01*
Y121438D01*
X174136Y121591D01*
X174492Y122591D01*
X175500D01*
Y125509D01*
X176500Y125923D01*
X176504Y125919D01*
X177000Y125587D01*
X177586Y125471D01*
X178500D01*
Y125150D01*
X181500D01*
Y124441D01*
X182500D01*
Y122591D01*
X184500D01*
Y123765D01*
X185312Y124234D01*
X185500Y124082D01*
Y122591D01*
X185500D01*
X185863Y121591D01*
X185800Y121438D01*
Y120562D01*
X186135Y119754D01*
X186754Y119135D01*
X187562Y118800D01*
X188438D01*
X189246Y119135D01*
X189865Y119754D01*
X190200Y120562D01*
Y121438D01*
X190137Y121591D01*
X190492Y122591D01*
X191500D01*
Y125509D01*
X192500Y125923D01*
X192504Y125919D01*
X193000Y125587D01*
X193586Y125471D01*
X194500D01*
Y125150D01*
X197500D01*
X200500D01*
Y125150D01*
Y127709D01*
Y131409D01*
X199492D01*
X199136Y132409D01*
X199200Y132562D01*
Y133438D01*
X198865Y134246D01*
X198246Y134865D01*
X197438Y135200D01*
D02*
G37*
G36*
X32500Y128500D02*
X25500D01*
Y126529D01*
X24500D01*
Y128500D01*
X17500D01*
Y121500D01*
X22337D01*
X23471Y120367D01*
Y115592D01*
X22885Y115475D01*
X21566Y114929D01*
X20378Y114135D01*
X19369Y113126D01*
X18575Y111938D01*
X18029Y110619D01*
X17750Y109218D01*
Y107790D01*
X18029Y106389D01*
X18575Y105070D01*
X19369Y103882D01*
X20378Y102873D01*
X21566Y102079D01*
X22885Y101532D01*
X24286Y101254D01*
X25714D01*
X27115Y101532D01*
X28434Y102079D01*
X29622Y102873D01*
X30631Y103882D01*
X31425Y105070D01*
X31971Y106389D01*
X32250Y107790D01*
Y109218D01*
X31971Y110619D01*
X31425Y111938D01*
X30631Y113126D01*
X29622Y114135D01*
X28434Y114929D01*
X27115Y115475D01*
X26529Y115592D01*
Y121000D01*
X27450Y121500D01*
X32500D01*
Y128500D01*
D02*
G37*
G36*
X16500D02*
X14000D01*
Y126000D01*
X16500D01*
Y128500D01*
D02*
G37*
G36*
X12000D02*
X9500D01*
Y126000D01*
X12000D01*
Y128500D01*
D02*
G37*
G36*
X200500Y123441D02*
X198500D01*
Y122591D01*
X200500D01*
Y123441D01*
D02*
G37*
G36*
X196500D02*
X194500D01*
Y122591D01*
X196500D01*
Y123441D01*
D02*
G37*
G36*
X180500D02*
X178500D01*
Y122591D01*
X180500D01*
Y123441D01*
D02*
G37*
G36*
X164500D02*
X162500D01*
Y122591D01*
X164500D01*
Y123441D01*
D02*
G37*
G36*
X141438Y132200D02*
X140562D01*
X139754Y131865D01*
X139135Y131246D01*
X138800Y130438D01*
Y129562D01*
X138826Y129500D01*
X138158Y128500D01*
X137500D01*
Y121500D01*
X144500D01*
Y128500D01*
X143842D01*
X143174Y129500D01*
X143200Y129562D01*
Y130438D01*
X142865Y131246D01*
X142246Y131865D01*
X141438Y132200D01*
D02*
G37*
G36*
X109438D02*
X108562D01*
X107754Y131865D01*
X107135Y131246D01*
X106800Y130438D01*
Y129562D01*
X106826Y129500D01*
X106158Y128500D01*
X105500D01*
Y121500D01*
X112500D01*
Y128500D01*
X111842D01*
X111174Y129500D01*
X111200Y129562D01*
Y130438D01*
X110865Y131246D01*
X110246Y131865D01*
X109438Y132200D01*
D02*
G37*
G36*
X93438D02*
X92562D01*
X91754Y131865D01*
X91135Y131246D01*
X90800Y130438D01*
Y129562D01*
X90826Y129500D01*
X90158Y128500D01*
X89500D01*
Y121500D01*
X96500D01*
Y128500D01*
X95842D01*
X95174Y129500D01*
X95200Y129562D01*
Y130438D01*
X94865Y131246D01*
X94246Y131865D01*
X93438Y132200D01*
D02*
G37*
G36*
X77438D02*
X76562D01*
X75754Y131865D01*
X75135Y131246D01*
X74800Y130438D01*
Y129562D01*
X74826Y129500D01*
X74158Y128500D01*
X73500D01*
Y121500D01*
X80500D01*
Y128500D01*
X79842D01*
X79174Y129500D01*
X79200Y129562D01*
Y130438D01*
X78865Y131246D01*
X78246Y131865D01*
X77438Y132200D01*
D02*
G37*
G36*
X61438D02*
X60562D01*
X59754Y131865D01*
X59135Y131246D01*
X58800Y130438D01*
Y129562D01*
X58826Y129500D01*
X58158Y128500D01*
X57500D01*
Y121500D01*
X64500D01*
Y128500D01*
X63842D01*
X63174Y129500D01*
X63200Y129562D01*
Y130438D01*
X62865Y131246D01*
X62246Y131865D01*
X61438Y132200D01*
D02*
G37*
G36*
X45438D02*
X44562D01*
X43754Y131865D01*
X43135Y131246D01*
X42800Y130438D01*
Y129562D01*
X42826Y129500D01*
X42158Y128500D01*
X41500D01*
Y121500D01*
X48500D01*
Y128500D01*
X47842D01*
X47174Y129500D01*
X47200Y129562D01*
Y130438D01*
X46865Y131246D01*
X46246Y131865D01*
X45438Y132200D01*
D02*
G37*
G36*
X37000Y132294D02*
X36122Y132120D01*
X35378Y131622D01*
X34881Y130878D01*
X34706Y130000D01*
Y128500D01*
X33500D01*
Y121500D01*
X40500D01*
Y128500D01*
X39294D01*
Y130000D01*
X39119Y130878D01*
X38622Y131622D01*
X37878Y132120D01*
X37000Y132294D01*
D02*
G37*
G36*
X16500Y124000D02*
X14000D01*
Y121500D01*
X16500D01*
Y124000D01*
D02*
G37*
G36*
X12000D02*
X9500D01*
Y121500D01*
X12000D01*
Y124000D01*
D02*
G37*
G36*
X72500Y128500D02*
X65500D01*
Y121500D01*
X66158D01*
X66826Y120500D01*
X66800Y120438D01*
Y119562D01*
X67135Y118754D01*
X67754Y118135D01*
X68562Y117800D01*
X69438D01*
X70246Y118135D01*
X70865Y118754D01*
X71200Y119562D01*
Y120438D01*
X71174Y120500D01*
X71842Y121500D01*
X72500D01*
Y128500D01*
D02*
G37*
G36*
X56500D02*
X49500D01*
Y121500D01*
X50158D01*
X50826Y120500D01*
X50800Y120438D01*
Y119562D01*
X51135Y118754D01*
X51754Y118135D01*
X52562Y117800D01*
X53438D01*
X54246Y118135D01*
X54865Y118754D01*
X55200Y119562D01*
Y120438D01*
X55174Y120500D01*
X55842Y121500D01*
X56500D01*
Y128500D01*
D02*
G37*
G36*
X120500D02*
X113500D01*
Y121500D01*
X115318D01*
Y117697D01*
X111351Y113730D01*
X110520Y113953D01*
X109480D01*
X108474Y113683D01*
X107573Y113163D01*
X106837Y112427D01*
X106317Y111526D01*
X106047Y110520D01*
Y109480D01*
X106317Y108474D01*
X106837Y107573D01*
X107573Y106837D01*
X108474Y106317D01*
X109480Y106047D01*
X110520D01*
X111526Y106317D01*
X112427Y106837D01*
X113163Y107573D01*
X113683Y108474D01*
X113953Y109480D01*
Y110520D01*
X113730Y111351D01*
X118190Y115810D01*
X118190Y115810D01*
X118554Y116356D01*
X118682Y117000D01*
Y121500D01*
X120500D01*
Y128500D01*
D02*
G37*
G36*
X125438Y132200D02*
X124562D01*
X123754Y131865D01*
X123135Y131246D01*
X122800Y130438D01*
Y129562D01*
X122826Y129500D01*
X122158Y128500D01*
X121500D01*
Y121500D01*
X127923D01*
X128337Y120500D01*
X121522Y113684D01*
X120520Y113953D01*
X119480D01*
X118474Y113683D01*
X117573Y113163D01*
X116837Y112427D01*
X116317Y111526D01*
X116047Y110520D01*
Y109480D01*
X116317Y108474D01*
X116837Y107573D01*
X117573Y106837D01*
X118474Y106317D01*
X119480Y106047D01*
X120520D01*
X121526Y106317D01*
X122427Y106837D01*
X123163Y107573D01*
X123683Y108474D01*
X123953Y109480D01*
Y110520D01*
X123685Y111522D01*
X132081Y119919D01*
X132413Y120415D01*
X132529Y121000D01*
Y121500D01*
X136500D01*
Y128500D01*
X129500D01*
Y123892D01*
X128500Y124336D01*
Y128500D01*
X127842D01*
X127174Y129500D01*
X127200Y129562D01*
Y130438D01*
X126865Y131246D01*
X126246Y131865D01*
X125438Y132200D01*
D02*
G37*
G36*
X160520Y113953D02*
X159480D01*
X158474Y113683D01*
X157573Y113163D01*
X156837Y112427D01*
X156317Y111526D01*
X156047Y110520D01*
Y109480D01*
X156317Y108474D01*
X156837Y107573D01*
X157573Y106837D01*
X158474Y106317D01*
X159480Y106047D01*
X160520D01*
X161526Y106317D01*
X162427Y106837D01*
X163163Y107573D01*
X163683Y108474D01*
X163953Y109480D01*
Y110520D01*
X163683Y111526D01*
X163163Y112427D01*
X162427Y113163D01*
X161526Y113683D01*
X160520Y113953D01*
D02*
G37*
G36*
X104500Y128500D02*
X97500D01*
Y121500D01*
X98471D01*
Y113681D01*
X97573Y113163D01*
X96837Y112427D01*
X96317Y111526D01*
X96047Y110520D01*
Y109480D01*
X96317Y108474D01*
X96837Y107573D01*
X97573Y106837D01*
X98474Y106317D01*
X99480Y106047D01*
X100520D01*
X101526Y106317D01*
X102427Y106837D01*
X103163Y107573D01*
X103683Y108474D01*
X103953Y109480D01*
Y110520D01*
X103683Y111526D01*
X103163Y112427D01*
X102427Y113163D01*
X101529Y113681D01*
Y121500D01*
X104500D01*
Y128500D01*
D02*
G37*
G36*
X88500D02*
X81500D01*
Y121500D01*
X83471D01*
Y115000D01*
X83587Y114415D01*
X83919Y113919D01*
X86316Y111522D01*
X86047Y110520D01*
Y109480D01*
X86317Y108474D01*
X86837Y107573D01*
X87573Y106837D01*
X88474Y106317D01*
X89480Y106047D01*
X90520D01*
X91526Y106317D01*
X92427Y106837D01*
X93163Y107573D01*
X93683Y108474D01*
X93953Y109480D01*
Y110520D01*
X93683Y111526D01*
X93163Y112427D01*
X92427Y113163D01*
X91526Y113683D01*
X90520Y113953D01*
X89480D01*
X88478Y113684D01*
X86529Y115633D01*
Y121500D01*
X88500D01*
Y128500D01*
D02*
G37*
G36*
X229438Y109200D02*
X228562D01*
X227754Y108865D01*
X227135Y108246D01*
X226800Y107438D01*
Y106562D01*
X226826Y106500D01*
X226158Y105500D01*
X225500D01*
Y98500D01*
X232500D01*
Y105500D01*
X231842D01*
X231174Y106500D01*
X231200Y106562D01*
Y107438D01*
X230865Y108246D01*
X230246Y108865D01*
X229438Y109200D01*
D02*
G37*
G36*
X221438D02*
X220562D01*
X219754Y108865D01*
X219135Y108246D01*
X218800Y107438D01*
Y106562D01*
X218826Y106500D01*
X218158Y105500D01*
X217500D01*
Y98500D01*
X224500D01*
Y105500D01*
X223842D01*
X223174Y106500D01*
X223200Y106562D01*
Y107438D01*
X222865Y108246D01*
X222246Y108865D01*
X221438Y109200D01*
D02*
G37*
G36*
X26000Y97193D02*
Y91000D01*
X32193D01*
X31971Y92115D01*
X31425Y93434D01*
X30631Y94622D01*
X29622Y95631D01*
X28434Y96425D01*
X27115Y96971D01*
X26000Y97193D01*
D02*
G37*
G36*
X24000D02*
X22885Y96971D01*
X21566Y96425D01*
X20378Y95631D01*
X19369Y94622D01*
X18575Y93434D01*
X18029Y92115D01*
X17807Y91000D01*
X24000D01*
Y97193D01*
D02*
G37*
G36*
X32193Y89000D02*
X26000D01*
Y82807D01*
X27115Y83029D01*
X28434Y83575D01*
X29622Y84369D01*
X30631Y85378D01*
X31425Y86566D01*
X31971Y87885D01*
X32193Y89000D01*
D02*
G37*
G36*
X24000D02*
X17807D01*
X18029Y87885D01*
X18575Y86566D01*
X19369Y85378D01*
X20378Y84369D01*
X21566Y83575D01*
X22885Y83029D01*
X24000Y82807D01*
Y89000D01*
D02*
G37*
G36*
X232500Y97500D02*
X225500D01*
Y90500D01*
X227471D01*
Y89500D01*
X225500D01*
Y82500D01*
X232500D01*
Y89500D01*
X230529D01*
Y90500D01*
X232500D01*
Y97500D01*
D02*
G37*
G36*
X224500D02*
X217500D01*
Y90500D01*
X219471D01*
Y89500D01*
X217500D01*
Y82500D01*
X224500D01*
Y89500D01*
X222529D01*
Y90500D01*
X224500D01*
Y97500D01*
D02*
G37*
G36*
X232500Y81500D02*
X225500D01*
Y74500D01*
X226706D01*
Y73000D01*
X226881Y72122D01*
X227378Y71378D01*
X228122Y70881D01*
X229000Y70706D01*
X229878Y70881D01*
X230622Y71378D01*
X231119Y72122D01*
X231294Y73000D01*
Y74500D01*
X232500D01*
Y81500D01*
D02*
G37*
G36*
X224500D02*
X217500D01*
Y74500D01*
X218706D01*
Y73000D01*
X218881Y72122D01*
X219378Y71378D01*
X220122Y70881D01*
X221000Y70706D01*
X221878Y70881D01*
X222622Y71378D01*
X223119Y72122D01*
X223294Y73000D01*
Y74500D01*
X224500D01*
Y81500D01*
D02*
G37*
G36*
X160520Y73953D02*
X159480D01*
X158474Y73683D01*
X157573Y73163D01*
X156837Y72427D01*
X156317Y71526D01*
X156047Y70520D01*
Y69480D01*
X156317Y68474D01*
X156837Y67573D01*
X157573Y66837D01*
X158474Y66317D01*
X159480Y66047D01*
X160520D01*
X161526Y66317D01*
X162427Y66837D01*
X163163Y67573D01*
X163683Y68474D01*
X163953Y69480D01*
Y70520D01*
X163683Y71526D01*
X163163Y72427D01*
X162427Y73163D01*
X161526Y73683D01*
X160520Y73953D01*
D02*
G37*
G36*
X150520D02*
X149480D01*
X148474Y73683D01*
X147573Y73163D01*
X146837Y72427D01*
X146317Y71526D01*
X146047Y70520D01*
Y69480D01*
X146317Y68474D01*
X146837Y67573D01*
X147573Y66837D01*
X148474Y66317D01*
X149480Y66047D01*
X150520D01*
X151526Y66317D01*
X152427Y66837D01*
X153163Y67573D01*
X153683Y68474D01*
X153953Y69480D01*
Y70520D01*
X153683Y71526D01*
X153163Y72427D01*
X152427Y73163D01*
X151526Y73683D01*
X150520Y73953D01*
D02*
G37*
G36*
X140520D02*
X139480D01*
X138474Y73683D01*
X137573Y73163D01*
X136837Y72427D01*
X136317Y71526D01*
X136047Y70520D01*
Y69480D01*
X136317Y68474D01*
X136837Y67573D01*
X137573Y66837D01*
X138474Y66317D01*
X139480Y66047D01*
X140520D01*
X141526Y66317D01*
X142427Y66837D01*
X143163Y67573D01*
X143683Y68474D01*
X143953Y69480D01*
Y70520D01*
X143683Y71526D01*
X143163Y72427D01*
X142427Y73163D01*
X141526Y73683D01*
X140520Y73953D01*
D02*
G37*
G36*
X130520D02*
X129480D01*
X128474Y73683D01*
X127573Y73163D01*
X126837Y72427D01*
X126317Y71526D01*
X126047Y70520D01*
Y69480D01*
X126317Y68474D01*
X126837Y67573D01*
X127573Y66837D01*
X128474Y66317D01*
X129480Y66047D01*
X130520D01*
X131526Y66317D01*
X132427Y66837D01*
X133163Y67573D01*
X133683Y68474D01*
X133953Y69480D01*
Y70520D01*
X133683Y71526D01*
X133163Y72427D01*
X132427Y73163D01*
X131526Y73683D01*
X130520Y73953D01*
D02*
G37*
G36*
X120520D02*
X119480D01*
X118474Y73683D01*
X117573Y73163D01*
X116837Y72427D01*
X116317Y71526D01*
X116047Y70520D01*
Y69480D01*
X116317Y68474D01*
X116837Y67573D01*
X117573Y66837D01*
X118474Y66317D01*
X119480Y66047D01*
X120520D01*
X121526Y66317D01*
X122427Y66837D01*
X123163Y67573D01*
X123683Y68474D01*
X123953Y69480D01*
Y70520D01*
X123683Y71526D01*
X123163Y72427D01*
X122427Y73163D01*
X121526Y73683D01*
X120520Y73953D01*
D02*
G37*
G36*
X110520D02*
X109480D01*
X108474Y73683D01*
X107573Y73163D01*
X106837Y72427D01*
X106317Y71526D01*
X106047Y70520D01*
Y69480D01*
X106317Y68474D01*
X106837Y67573D01*
X107573Y66837D01*
X108474Y66317D01*
X109480Y66047D01*
X110520D01*
X111526Y66317D01*
X112427Y66837D01*
X113163Y67573D01*
X113683Y68474D01*
X113953Y69480D01*
Y70520D01*
X113683Y71526D01*
X113163Y72427D01*
X112427Y73163D01*
X111526Y73683D01*
X110520Y73953D01*
D02*
G37*
G36*
X100520D02*
X99480D01*
X98474Y73683D01*
X97573Y73163D01*
X96837Y72427D01*
X96317Y71526D01*
X96047Y70520D01*
Y69480D01*
X96317Y68474D01*
X96837Y67573D01*
X97573Y66837D01*
X98474Y66317D01*
X99480Y66047D01*
X100520D01*
X101526Y66317D01*
X102427Y66837D01*
X103163Y67573D01*
X103683Y68474D01*
X103953Y69480D01*
Y70520D01*
X103683Y71526D01*
X103163Y72427D01*
X102427Y73163D01*
X101526Y73683D01*
X100520Y73953D01*
D02*
G37*
G36*
X93953D02*
X86047D01*
Y66047D01*
X93953D01*
Y73953D01*
D02*
G37*
G36*
X16500Y58500D02*
X14000D01*
Y56000D01*
X16500D01*
Y58500D01*
D02*
G37*
G36*
X12000D02*
X9500D01*
Y56000D01*
X12000D01*
Y58500D01*
D02*
G37*
G36*
X25714Y78746D02*
X24286D01*
X22885Y78467D01*
X21566Y77921D01*
X20378Y77127D01*
X19369Y76118D01*
X18575Y74930D01*
X18029Y73611D01*
X17750Y72210D01*
Y70782D01*
X18029Y69381D01*
X18575Y68062D01*
X19369Y66874D01*
X20378Y65865D01*
X21566Y65071D01*
X22885Y64525D01*
X23471Y64408D01*
Y59000D01*
X23060Y58500D01*
X17500D01*
Y51500D01*
X24500D01*
Y53471D01*
X25500D01*
Y51500D01*
X32500D01*
Y58500D01*
X27663D01*
X26529Y59633D01*
Y64408D01*
X27115Y64525D01*
X28434Y65071D01*
X29622Y65865D01*
X30631Y66874D01*
X31425Y68062D01*
X31971Y69381D01*
X32250Y70782D01*
Y72210D01*
X31971Y73611D01*
X31425Y74930D01*
X30631Y76118D01*
X29622Y77127D01*
X28434Y77921D01*
X27115Y78467D01*
X25714Y78746D01*
D02*
G37*
G36*
X16500Y54000D02*
X14000D01*
Y51500D01*
X16500D01*
Y54000D01*
D02*
G37*
G36*
X12000D02*
X9500D01*
Y51500D01*
X12000D01*
Y54000D01*
D02*
G37*
G36*
X40500Y58500D02*
X33500D01*
Y51500D01*
X34706D01*
Y50000D01*
X34881Y49122D01*
X35378Y48378D01*
X36122Y47881D01*
X37000Y47706D01*
X37878Y47881D01*
X38622Y48378D01*
X39119Y49122D01*
X39294Y50000D01*
Y51500D01*
X40500D01*
Y58500D01*
D02*
G37*
G36*
X179438Y46200D02*
X178562D01*
X177754Y45865D01*
X177135Y45246D01*
X176800Y44438D01*
Y43562D01*
X176826Y43500D01*
X176158Y42500D01*
X175500D01*
Y40529D01*
X174500D01*
Y42500D01*
X167500D01*
Y38563D01*
X166500Y39097D01*
Y42500D01*
X159500D01*
Y41294D01*
X158000D01*
X157122Y41120D01*
X156378Y40622D01*
X155880Y39878D01*
X155706Y39000D01*
X155880Y38122D01*
X156378Y37378D01*
X157122Y36880D01*
X158000Y36706D01*
X159500D01*
Y35500D01*
X166221D01*
Y34000D01*
X160000D01*
Y28000D01*
X170000D01*
Y34000D01*
X169279D01*
Y35116D01*
X169663Y35500D01*
X174500D01*
Y37471D01*
X175500D01*
Y35500D01*
X180054D01*
X180530Y35000D01*
X180113Y34000D01*
X180000D01*
Y28000D01*
X190000D01*
Y34000D01*
X183944D01*
Y35500D01*
X186000D01*
Y39000D01*
Y42500D01*
X183500D01*
Y39097D01*
X182500Y38563D01*
Y42500D01*
X181842D01*
X181174Y43500D01*
X181200Y43562D01*
Y44438D01*
X180865Y45246D01*
X180246Y45865D01*
X179438Y46200D01*
D02*
G37*
G36*
X137438D02*
X136562D01*
X135754Y45865D01*
X135135Y45246D01*
X134800Y44438D01*
Y43562D01*
X134826Y43500D01*
X134158Y42500D01*
X133500D01*
Y40529D01*
X132500D01*
Y42500D01*
X125500D01*
Y35500D01*
X127471D01*
Y29634D01*
X126557Y28720D01*
X126544Y28727D01*
X125527Y29000D01*
X124473D01*
X123456Y28727D01*
X122544Y28201D01*
X121799Y27456D01*
X121273Y26544D01*
X121000Y25527D01*
Y24473D01*
X121273Y23456D01*
X121799Y22544D01*
X122544Y21799D01*
X123456Y21273D01*
X124473Y21000D01*
X125527D01*
X126544Y21273D01*
X127456Y21799D01*
X128201Y22544D01*
X128727Y23456D01*
X129000Y24473D01*
Y25527D01*
X128727Y26544D01*
X128720Y26557D01*
X130081Y27918D01*
X130413Y28415D01*
X130529Y29000D01*
Y35500D01*
X132500D01*
Y37471D01*
X133500D01*
Y35500D01*
X140500D01*
Y42500D01*
X139842D01*
X139174Y43500D01*
X139200Y43562D01*
Y44438D01*
X138865Y45246D01*
X138246Y45865D01*
X137438Y46200D01*
D02*
G37*
G36*
X79438D02*
X78562D01*
X77754Y45865D01*
X77135Y45246D01*
X76800Y44438D01*
Y43562D01*
X76826Y43500D01*
X76158Y42500D01*
X75500D01*
Y40529D01*
X74500D01*
Y42500D01*
X67500D01*
Y38563D01*
X66500Y39097D01*
Y42500D01*
X59500D01*
Y41294D01*
X58000D01*
X57122Y41120D01*
X56378Y40622D01*
X55881Y39878D01*
X55706Y39000D01*
X55881Y38122D01*
X56378Y37378D01*
X57122Y36880D01*
X58000Y36706D01*
X59500D01*
Y35500D01*
X66221D01*
Y34000D01*
X60000D01*
Y28000D01*
X70000D01*
Y34000D01*
X69279D01*
Y35116D01*
X69663Y35500D01*
X74500D01*
Y37471D01*
X75500D01*
Y35500D01*
X80054D01*
X80530Y35000D01*
X80113Y34000D01*
X80000D01*
Y28000D01*
X90000D01*
Y34000D01*
X83944D01*
Y35500D01*
X86000D01*
Y39000D01*
Y42500D01*
X83500D01*
Y39097D01*
X82500Y38563D01*
Y42500D01*
X81842D01*
X81174Y43500D01*
X81200Y43562D01*
Y44438D01*
X80865Y45246D01*
X80246Y45865D01*
X79438Y46200D01*
D02*
G37*
G36*
X124500Y42500D02*
X122000D01*
Y40000D01*
X124500D01*
Y42500D01*
D02*
G37*
G36*
X190500D02*
X188000D01*
Y40000D01*
X190500D01*
Y42500D01*
D02*
G37*
G36*
X148500D02*
X146000D01*
Y40000D01*
X148500D01*
Y42500D01*
D02*
G37*
G36*
X144000D02*
X141500D01*
Y40000D01*
X144000D01*
Y42500D01*
D02*
G37*
G36*
X90500D02*
X88000D01*
Y40000D01*
X90500D01*
Y42500D01*
D02*
G37*
G36*
X120000D02*
X117500D01*
Y40000D01*
X120000D01*
Y42500D01*
D02*
G37*
G36*
X121000Y39000D02*
D01*
D01*
D01*
D02*
G37*
G36*
X190500Y38000D02*
X188000D01*
Y35500D01*
X190500D01*
Y38000D01*
D02*
G37*
G36*
X148500D02*
X146000D01*
Y35500D01*
X148500D01*
Y38000D01*
D02*
G37*
G36*
X144000D02*
X141500D01*
Y35500D01*
X144000D01*
Y38000D01*
D02*
G37*
G36*
X124500D02*
X122000D01*
Y35500D01*
X124500D01*
Y38000D01*
D02*
G37*
G36*
X120000D02*
X117500D01*
Y35500D01*
X120000D01*
Y38000D01*
D02*
G37*
G36*
X108500Y42500D02*
X101500D01*
Y41294D01*
X100000D01*
X99122Y41120D01*
X98378Y40622D01*
X97881Y39878D01*
X97706Y39000D01*
X97881Y38122D01*
X98378Y37378D01*
X99122Y36880D01*
X100000Y36706D01*
X101500D01*
Y35500D01*
X108500D01*
Y42500D01*
D02*
G37*
G36*
X90500Y38000D02*
X88000D01*
Y35500D01*
X90500D01*
Y38000D01*
D02*
G37*
G36*
X136000Y28873D02*
Y26000D01*
X138873D01*
X138727Y26544D01*
X138201Y27456D01*
X137456Y28201D01*
X136544Y28727D01*
X136000Y28873D01*
D02*
G37*
G36*
X134000D02*
X133456Y28727D01*
X132544Y28201D01*
X131799Y27456D01*
X131273Y26544D01*
X131127Y26000D01*
X134000D01*
Y28873D01*
D02*
G37*
G36*
X138873Y24000D02*
X136000D01*
Y21127D01*
X136544Y21273D01*
X137456Y21799D01*
X138201Y22544D01*
X138727Y23456D01*
X138873Y24000D01*
D02*
G37*
G36*
X134000D02*
X131127D01*
X131273Y23456D01*
X131799Y22544D01*
X132544Y21799D01*
X133456Y21273D01*
X134000Y21127D01*
Y24000D01*
D02*
G37*
G36*
X116500Y42500D02*
X109500D01*
Y35500D01*
X111471D01*
Y32677D01*
X111587Y32091D01*
X111919Y31595D01*
X113471Y30043D01*
Y28731D01*
X113456Y28727D01*
X112544Y28201D01*
X111799Y27456D01*
X111273Y26544D01*
X111000Y25527D01*
Y24473D01*
X111273Y23456D01*
X111799Y22544D01*
X112544Y21799D01*
X113456Y21273D01*
X114473Y21000D01*
X115527D01*
X116544Y21273D01*
X117456Y21799D01*
X118201Y22544D01*
X118727Y23456D01*
X119000Y24473D01*
Y25527D01*
X118727Y26544D01*
X118201Y27456D01*
X117456Y28201D01*
X116544Y28727D01*
X116529Y28731D01*
Y30676D01*
X116413Y31262D01*
X116081Y31758D01*
X114529Y33310D01*
Y35500D01*
X116500D01*
Y42500D01*
D02*
G37*
G36*
X190000Y22000D02*
X186000D01*
Y20000D01*
X190000D01*
Y22000D01*
D02*
G37*
G36*
X184000D02*
X180000D01*
Y20000D01*
X184000D01*
Y22000D01*
D02*
G37*
G36*
X170000D02*
X166000D01*
Y20000D01*
X170000D01*
Y22000D01*
D02*
G37*
G36*
X164000D02*
X160000D01*
Y20000D01*
X164000D01*
Y22000D01*
D02*
G37*
G36*
X90000D02*
X86000D01*
Y20000D01*
X90000D01*
Y22000D01*
D02*
G37*
G36*
X84000D02*
X80000D01*
Y20000D01*
X84000D01*
Y22000D01*
D02*
G37*
G36*
X70000D02*
X66000D01*
Y20000D01*
X70000D01*
Y22000D01*
D02*
G37*
G36*
X64000D02*
X60000D01*
Y20000D01*
X64000D01*
Y22000D01*
D02*
G37*
G36*
X190000Y18000D02*
X186000D01*
Y16000D01*
X190000D01*
Y18000D01*
D02*
G37*
G36*
X184000D02*
X180000D01*
Y16000D01*
X184000D01*
Y18000D01*
D02*
G37*
G36*
X170000D02*
X166000D01*
Y16000D01*
X170000D01*
Y18000D01*
D02*
G37*
G36*
X164000D02*
X160000D01*
Y16000D01*
X164000D01*
Y18000D01*
D02*
G37*
G36*
X90000D02*
X86000D01*
Y16000D01*
X90000D01*
Y18000D01*
D02*
G37*
G36*
X84000D02*
X80000D01*
Y16000D01*
X84000D01*
Y18000D01*
D02*
G37*
G36*
X70000D02*
X66000D01*
Y16000D01*
X70000D01*
Y18000D01*
D02*
G37*
G36*
X64000D02*
X60000D01*
Y16000D01*
X64000D01*
Y18000D01*
D02*
G37*
G36*
X226062Y38500D02*
X223938D01*
X221839Y38168D01*
X219818Y37511D01*
X217924Y36546D01*
X216205Y35297D01*
X214703Y33795D01*
X213454Y32076D01*
X212489Y30182D01*
X211832Y28161D01*
X211500Y26063D01*
Y23937D01*
X211832Y21839D01*
X212489Y19818D01*
X213454Y17924D01*
X214703Y16205D01*
X216205Y14703D01*
X217924Y13454D01*
X219818Y12489D01*
X221839Y11832D01*
X223938Y11500D01*
X226062D01*
X228161Y11832D01*
X230182Y12489D01*
X232076Y13454D01*
X233795Y14703D01*
X235297Y16205D01*
X236546Y17924D01*
X237511Y19818D01*
X238168Y21839D01*
X238500Y23937D01*
Y26063D01*
X238168Y28161D01*
X237511Y30182D01*
X236546Y32076D01*
X235297Y33795D01*
X233795Y35297D01*
X232076Y36546D01*
X230182Y37511D01*
X228161Y38168D01*
X226062Y38500D01*
D02*
G37*
G36*
X26063D02*
X23937D01*
X21839Y38168D01*
X19818Y37511D01*
X17924Y36546D01*
X16205Y35297D01*
X14703Y33795D01*
X13454Y32076D01*
X12489Y30182D01*
X11832Y28161D01*
X11500Y26063D01*
Y23937D01*
X11832Y21839D01*
X12489Y19818D01*
X13454Y17924D01*
X14703Y16205D01*
X16205Y14703D01*
X17924Y13454D01*
X19818Y12489D01*
X21839Y11832D01*
X23937Y11500D01*
X26063D01*
X28161Y11832D01*
X30182Y12489D01*
X32076Y13454D01*
X33795Y14703D01*
X35297Y16205D01*
X36546Y17924D01*
X37511Y19818D01*
X38168Y21839D01*
X38500Y23937D01*
Y26063D01*
X38168Y28161D01*
X37511Y30182D01*
X36546Y32076D01*
X35297Y33795D01*
X33795Y35297D01*
X32076Y36546D01*
X30182Y37511D01*
X28161Y38168D01*
X26063Y38500D01*
D02*
G37*
%LPD*%
D15*
X179500Y310300D02*
Y312800D01*
X179300Y310300D02*
X179500D01*
X179300Y313000D02*
X179500Y312800D01*
Y290456D02*
Y297500D01*
Y302500D02*
Y305500D01*
X179279Y290235D02*
X179500Y290456D01*
X179279Y287902D02*
Y290235D01*
X178500Y287122D02*
X179279Y287902D01*
X177000Y308000D02*
X179300Y310300D01*
X177000Y308000D02*
X179500Y305500D01*
X177000Y300000D02*
X179500Y302500D01*
X177000Y300000D02*
X179500Y297500D01*
X182500D02*
X185000Y300000D01*
X182700Y310300D02*
X185000Y308000D01*
X182720Y287902D02*
Y290235D01*
Y287902D02*
X183500Y287122D01*
X182500Y290456D02*
Y297500D01*
Y290456D02*
X182720Y290235D01*
X182500Y312800D02*
X182700Y313000D01*
X182500Y310300D02*
Y312800D01*
Y305500D02*
X185000Y308000D01*
X182500Y302500D02*
X185000Y300000D01*
X182500Y310300D02*
X182700D01*
X182500Y302500D02*
Y305500D01*
X91500Y186319D02*
Y192319D01*
X132379Y177000D02*
X133099Y176279D01*
X138000D01*
X132000Y177000D02*
X132379D01*
X151209Y223935D02*
X154481Y220663D01*
X151000Y227500D02*
X151209Y227291D01*
Y223935D02*
Y227291D01*
X132000Y183000D02*
X132379D01*
X133772Y181607D01*
X137791D02*
X138000Y181398D01*
X133772Y181607D02*
X137791D01*
X138000Y183957D02*
X138022Y183978D01*
X143978D02*
X144000Y184000D01*
X138022Y183978D02*
X143978D01*
X138081Y178919D02*
X143919D01*
X144000Y179000D01*
X138000Y178839D02*
X138081Y178919D01*
X138140Y173860D02*
X143860D01*
X138000Y173721D02*
X138140Y173860D01*
X143860D02*
X144000Y174000D01*
X107000Y158000D02*
Y158379D01*
X106500Y158879D02*
Y163681D01*
Y158879D02*
X107000Y158379D01*
X101500Y158879D02*
Y163681D01*
Y158879D02*
X102000Y158379D01*
Y158000D02*
Y158379D01*
X97000Y158000D02*
Y158379D01*
X96500Y158879D02*
Y163681D01*
Y158879D02*
X97000Y158379D01*
X91500Y158879D02*
X92000Y158379D01*
X91500Y158879D02*
Y163681D01*
X92000Y158000D02*
Y158379D01*
X153000Y127650D02*
X153589Y127061D01*
X153000Y127650D02*
Y133000D01*
X153589Y127061D02*
X156439D01*
X156500Y127000D01*
X162000Y181398D02*
X170676D01*
X172000Y180034D02*
Y180073D01*
X170676Y181398D02*
X172000Y180073D01*
X162000Y183957D02*
X170164D01*
X171458Y185250D02*
X172000D01*
X170164Y183957D02*
X171458Y185250D01*
X47500Y154879D02*
X48000Y154379D01*
Y154000D02*
Y154379D01*
X47500Y154879D02*
Y163878D01*
X53000Y154000D02*
Y154379D01*
X52500Y154879D02*
Y163878D01*
Y154879D02*
X53000Y154379D01*
X63144Y159873D02*
X65000Y158018D01*
Y158000D02*
Y158018D01*
X57500Y151286D02*
X57732Y151054D01*
Y150268D02*
Y151054D01*
Y150268D02*
X58000Y150000D01*
X57500Y151286D02*
Y163878D01*
X63144Y159873D02*
Y163233D01*
X81500Y163681D02*
Y169681D01*
X62500Y163878D02*
X63144Y163233D01*
X86500Y163681D02*
Y169681D01*
X142714Y171161D02*
X145000Y168876D01*
Y165000D02*
Y168876D01*
X141000Y125000D02*
Y130000D01*
X161000Y127586D02*
X161586Y127000D01*
X161000Y127586D02*
Y133000D01*
X138000Y171161D02*
X142714D01*
X157000Y164606D02*
X158229Y165834D01*
X157000Y161379D02*
Y164606D01*
Y161379D02*
X158000Y160379D01*
Y160000D02*
Y160379D01*
X158229Y165834D02*
X161791D01*
X162000Y166043D01*
Y160000D02*
Y163484D01*
X185000Y127586D02*
Y133000D01*
X185586Y127000D02*
X188500D01*
X185000Y127586D02*
X185586Y127000D01*
X193000Y127586D02*
Y133000D01*
X193586Y127000D02*
X197500D01*
X193000Y127586D02*
X193586Y127000D01*
X177000Y127586D02*
X177586Y127000D01*
X181500D01*
X177000Y127586D02*
Y133000D01*
X161586Y127000D02*
X165500D01*
X169000Y127586D02*
X169586Y127000D01*
X172500D01*
X169000Y127586D02*
Y133000D01*
X38000Y158000D02*
Y158379D01*
X37500Y158879D02*
Y163878D01*
Y158879D02*
X38000Y158379D01*
X153379Y172000D02*
X154217Y171161D01*
X162000D01*
X153000Y172000D02*
X153379D01*
Y168000D02*
X153981Y168602D01*
X162000D01*
X153000Y168000D02*
X153379D01*
X156093Y175023D02*
X157350Y176279D01*
X156000Y175023D02*
X156093D01*
X157350Y176279D02*
X162000D01*
X156000Y180000D02*
X156189D01*
X157350Y178839D01*
X162000D01*
Y173721D02*
X166650D01*
X167929Y175000D02*
X168000D01*
X166650Y173721D02*
X167929Y175000D01*
X130000Y161000D02*
X132484Y163484D01*
X138000D01*
X130022Y166022D02*
X137978D01*
X138000Y166043D01*
X130000Y166000D02*
X130022Y166022D01*
X132398Y168602D02*
X138000D01*
X130000Y171000D02*
X132398Y168602D01*
X151209Y233879D02*
X152820Y232268D01*
X153732D02*
X154000Y232000D01*
X151209Y233879D02*
Y236291D01*
X152820Y232268D02*
X153732D01*
X155000Y229000D02*
X158000Y232000D01*
X153909Y229000D02*
X155000D01*
X153559Y228650D02*
X153909Y229000D01*
X153559Y227500D02*
Y228650D01*
X106500Y186319D02*
Y192319D01*
X42500Y180122D02*
Y186122D01*
X62500Y180122D02*
Y186122D01*
X67500Y184153D02*
X76500Y175154D01*
Y163681D02*
Y175154D01*
X67500Y184153D02*
Y186122D01*
X101500Y186319D02*
Y192319D01*
X96500Y186319D02*
Y192319D01*
X86500Y186319D02*
Y192319D01*
X81500Y186319D02*
Y192319D01*
X109000Y125000D02*
Y130000D01*
X43000Y158000D02*
Y158379D01*
X42500Y158879D02*
X43000Y158379D01*
X42500Y158879D02*
Y163878D01*
X32500Y158879D02*
Y163878D01*
X33000Y158000D02*
Y158379D01*
X32500Y158879D02*
X33000Y158379D01*
X57500Y186122D02*
Y192122D01*
X52500Y186122D02*
Y192122D01*
X37500Y186122D02*
Y192122D01*
X125000Y125000D02*
Y130000D01*
X93000Y125000D02*
Y130000D01*
X77000Y125000D02*
Y130000D01*
X61000Y125000D02*
Y130000D01*
X45000Y125000D02*
Y130000D01*
X69000Y120000D02*
Y125000D01*
X53000Y120000D02*
Y125000D01*
X140000Y110000D02*
X149000Y119000D01*
Y125000D01*
X131000Y121000D02*
Y123000D01*
X120000Y110000D02*
X131000Y121000D01*
Y123000D02*
X133000Y125000D01*
X100000Y124000D02*
X101000Y125000D01*
X100000Y110000D02*
Y124000D01*
X85000Y115000D02*
Y125000D01*
Y115000D02*
X90000Y110000D01*
X190000Y188000D02*
Y193000D01*
Y157000D02*
Y162000D01*
X196000Y201000D02*
X204000D01*
X207414Y194500D02*
X208914Y193000D01*
X204000Y201000D02*
X207414Y197586D01*
X208914Y193000D02*
X210000D01*
X207414Y194500D02*
Y197586D01*
X191086Y193000D02*
X192586Y194500D01*
Y197586D02*
X196000Y201000D01*
X190000Y193000D02*
X191086D01*
X192586Y194500D02*
Y197586D01*
X210000Y157000D02*
X211250D01*
X224250Y170000D02*
X225000D01*
X211250Y157000D02*
X224250Y170000D01*
X196000Y149000D02*
X204000D01*
X207414Y155500D02*
X208914Y157000D01*
X204000Y149000D02*
X207414Y152414D01*
X208914Y157000D02*
X210000D01*
X207414Y152414D02*
Y155500D01*
X191250Y157000D02*
X192750Y155500D01*
Y152250D02*
X196000Y149000D01*
X190000Y157000D02*
X191250D01*
X192750Y152250D02*
Y155500D01*
X229000Y102000D02*
Y107000D01*
X221000Y102000D02*
Y107000D01*
X179000Y39000D02*
Y44000D01*
X137000Y39000D02*
Y44000D01*
X79000Y39000D02*
Y44000D01*
X221000Y86000D02*
Y94000D01*
X229000Y86000D02*
Y94000D01*
X21000Y125000D02*
X25000Y121000D01*
Y108504D02*
Y121000D01*
X21000Y125000D02*
X29000D01*
X25000Y59000D02*
X29000Y55000D01*
X25000Y59000D02*
Y71496D01*
X21000Y55000D02*
X29000D01*
X129000Y39000D02*
X137000D01*
X129000Y29000D02*
Y39000D01*
X125000Y25000D02*
X129000Y29000D01*
X113000Y32677D02*
X115000Y30676D01*
Y25000D02*
Y30676D01*
X113000Y32677D02*
Y39000D01*
X171000D02*
X179000D01*
X182414Y32500D02*
X183914Y31000D01*
X179000Y39000D02*
X182414Y35586D01*
X183914Y31000D02*
X185000D01*
X182414Y32500D02*
Y35586D01*
X166250Y31000D02*
X167750Y32500D01*
Y35750D02*
X171000Y39000D01*
X165000Y31000D02*
X166250D01*
X167750Y32500D02*
Y35750D01*
X71000Y39000D02*
X79000D01*
X82414Y32500D02*
X83914Y31000D01*
X79000Y39000D02*
X82414Y35586D01*
X83914Y31000D02*
X85000D01*
X82414Y32500D02*
Y35586D01*
X66250Y31000D02*
X67750Y32500D01*
X65000Y31000D02*
X66250D01*
X67750Y32500D02*
Y35750D01*
X71000Y39000D01*
X150000Y243000D02*
Y249299D01*
X151000Y236500D02*
X151209Y236291D01*
X105000Y243000D02*
Y249299D01*
X125000Y280000D02*
Y286701D01*
X166799Y264878D02*
X173500D01*
X178500D02*
Y271579D01*
Y264878D02*
X183500D01*
X188500D02*
Y271579D01*
X145000Y280000D02*
Y286701D01*
X110000Y280000D02*
Y286701D01*
X140069Y236931D02*
X141000Y236000D01*
X140000Y249299D02*
X140069Y249230D01*
Y236931D02*
Y251230D01*
X133000Y236000D02*
X137000Y232000D01*
X117000Y236000D02*
X120000Y239000D01*
X145091Y232000D02*
X148441Y235350D01*
X137000Y232000D02*
X145091D01*
X120000Y239000D02*
Y251299D01*
X148441Y235350D02*
Y236500D01*
X125000Y228000D02*
X133000D01*
D37*
X210000Y181000D02*
D03*
X190000D02*
D03*
X210000Y193000D02*
D03*
X190000D02*
D03*
X65000Y31000D02*
D03*
X85000D02*
D03*
X65000Y19000D02*
D03*
X85000D02*
D03*
X185000D02*
D03*
X165000D02*
D03*
X185000Y31000D02*
D03*
X165000D02*
D03*
X210000Y157000D02*
D03*
X190000D02*
D03*
X210000Y169000D02*
D03*
X190000D02*
D03*
D38*
X172500Y129559D02*
D03*
Y127000D02*
D03*
Y124441D02*
D03*
X181500D02*
D03*
Y127000D02*
D03*
Y129559D02*
D03*
X156500D02*
D03*
Y127000D02*
D03*
Y124441D02*
D03*
X165500D02*
D03*
Y127000D02*
D03*
Y129559D02*
D03*
X188500D02*
D03*
Y127000D02*
D03*
Y124441D02*
D03*
X197500D02*
D03*
Y127000D02*
D03*
Y129559D02*
D03*
D39*
X23000Y171000D02*
D03*
Y179000D02*
D03*
X165000Y292000D02*
D03*
Y284000D02*
D03*
X133000Y236000D02*
D03*
Y228000D02*
D03*
X141000Y236000D02*
D03*
Y228000D02*
D03*
X125000D02*
D03*
Y236000D02*
D03*
X117000D02*
D03*
Y228000D02*
D03*
X158000Y203000D02*
D03*
Y195000D02*
D03*
X150000Y203000D02*
D03*
Y195000D02*
D03*
X15000Y272000D02*
D03*
Y264000D02*
D03*
X23000D02*
D03*
Y272000D02*
D03*
X31000Y264000D02*
D03*
Y272000D02*
D03*
X121000Y179000D02*
D03*
Y171000D02*
D03*
X221000Y78000D02*
D03*
Y86000D02*
D03*
X229000Y78000D02*
D03*
Y86000D02*
D03*
X221000Y94000D02*
D03*
Y102000D02*
D03*
X229000Y94000D02*
D03*
Y102000D02*
D03*
X142000Y195000D02*
D03*
Y203000D02*
D03*
D40*
X71000Y308000D02*
D03*
X79000D02*
D03*
X71000Y300000D02*
D03*
X79000D02*
D03*
X141000D02*
D03*
X149000D02*
D03*
X177000Y308000D02*
D03*
X169000D02*
D03*
X185000Y300000D02*
D03*
X177000D02*
D03*
X193000Y308000D02*
D03*
X185000D02*
D03*
X121000Y300000D02*
D03*
X129000D02*
D03*
X109000Y236000D02*
D03*
X101000D02*
D03*
X109000Y300000D02*
D03*
X101000D02*
D03*
X105000Y39000D02*
D03*
X113000D02*
D03*
X37000Y55000D02*
D03*
X29000D02*
D03*
X37000Y125000D02*
D03*
X29000D02*
D03*
X188000Y149000D02*
D03*
X196000D02*
D03*
X163000Y39000D02*
D03*
X171000D02*
D03*
X63000D02*
D03*
X71000D02*
D03*
X188000Y201000D02*
D03*
X196000D02*
D03*
X109000Y125000D02*
D03*
X117000D02*
D03*
X77000D02*
D03*
X85000D02*
D03*
X125000D02*
D03*
X133000D02*
D03*
X61000D02*
D03*
X69000D02*
D03*
X45000D02*
D03*
X53000D02*
D03*
X141000D02*
D03*
X149000D02*
D03*
X93000D02*
D03*
X101000D02*
D03*
X145000Y39000D02*
D03*
X137000D02*
D03*
X121000D02*
D03*
X129000D02*
D03*
X13000Y55000D02*
D03*
X21000D02*
D03*
X13000Y125000D02*
D03*
X21000D02*
D03*
X212000Y149000D02*
D03*
X204000D02*
D03*
X187000Y39000D02*
D03*
X179000D02*
D03*
X87000D02*
D03*
X79000D02*
D03*
X212000Y201000D02*
D03*
X204000D02*
D03*
D41*
X70000Y289358D02*
D03*
X80000D02*
D03*
X50000D02*
D03*
Y246642D02*
D03*
X80000D02*
D03*
D42*
X150000Y286701D02*
D03*
X145000D02*
D03*
X140000D02*
D03*
X145000Y249299D02*
D03*
X150000D02*
D03*
X140000D02*
D03*
X120000D02*
D03*
X130000D02*
D03*
X125000D02*
D03*
X120000Y286701D02*
D03*
X125000D02*
D03*
X130000D02*
D03*
X100000Y249299D02*
D03*
Y286701D02*
D03*
X110000Y249299D02*
D03*
X105000D02*
D03*
Y286701D02*
D03*
X110000D02*
D03*
D43*
X178500Y264878D02*
D03*
X173500D02*
D03*
X183500D02*
D03*
X188500D02*
D03*
Y287122D02*
D03*
X183500D02*
D03*
X178500D02*
D03*
X173500D02*
D03*
X101500Y186319D02*
D03*
X106500D02*
D03*
X96500D02*
D03*
X111500D02*
D03*
X91500D02*
D03*
X86500D02*
D03*
X111500Y163681D02*
D03*
X106500D02*
D03*
X91500D02*
D03*
X86500D02*
D03*
X101500D02*
D03*
X96500D02*
D03*
X81500Y186319D02*
D03*
X76500D02*
D03*
X81500Y163681D02*
D03*
X76500D02*
D03*
X67500Y186122D02*
D03*
X62500D02*
D03*
X57500D02*
D03*
X52500D02*
D03*
X47500D02*
D03*
X42500D02*
D03*
X37500D02*
D03*
X32500D02*
D03*
X67500Y163878D02*
D03*
X62500D02*
D03*
X57500D02*
D03*
X52500D02*
D03*
X47500D02*
D03*
X42500D02*
D03*
X37500D02*
D03*
X32500D02*
D03*
D44*
X148441Y227500D02*
D03*
X151000D02*
D03*
X153559D02*
D03*
Y236500D02*
D03*
X151000D02*
D03*
X148441D02*
D03*
D45*
X138000Y186516D02*
D03*
Y183957D02*
D03*
Y181398D02*
D03*
Y178839D02*
D03*
Y176279D02*
D03*
Y173721D02*
D03*
Y171161D02*
D03*
Y168602D02*
D03*
Y166043D02*
D03*
Y163484D02*
D03*
X162000Y186516D02*
D03*
Y183957D02*
D03*
Y181398D02*
D03*
Y178839D02*
D03*
Y176279D02*
D03*
Y173721D02*
D03*
Y171161D02*
D03*
Y168602D02*
D03*
Y166043D02*
D03*
Y163484D02*
D03*
D46*
X37000Y125000D02*
Y130000D01*
X121000Y171000D02*
X126000D01*
X121000Y179000D02*
X126000D01*
X81109D02*
X121000D01*
X158000Y203000D02*
X167000D01*
X158000Y195000D02*
X167000D01*
X76530Y183580D02*
X81109Y179000D01*
X76500Y186319D02*
X76530Y186289D01*
Y183580D02*
Y186289D01*
X111530Y165679D02*
X115679D01*
X111500Y163681D02*
Y165650D01*
X115679Y165679D02*
X121000Y171000D01*
X111500Y165650D02*
X111530Y165679D01*
X18000Y179000D02*
X23000D01*
X18000Y171000D02*
X23000D01*
X32500Y184153D02*
Y186122D01*
X23000Y179000D02*
X28124Y184124D01*
X32471D01*
X32500Y184153D01*
X67471Y163908D02*
X67500Y163878D01*
X67471Y163908D02*
Y166617D01*
X63087Y171000D02*
X67471Y166617D01*
X23000Y171000D02*
X63087D01*
X188000Y201000D02*
Y206000D01*
Y144000D02*
Y149000D01*
X229000Y73000D02*
Y78000D01*
X221000Y73000D02*
Y78000D01*
X37000Y50000D02*
Y55000D01*
X158000Y39000D02*
X163000D01*
X100000D02*
X105000D01*
X58000D02*
X63000D01*
X10000Y264000D02*
X15000D01*
X10000Y272000D02*
X15000D01*
X23000Y264000D02*
X31000D01*
X42000D01*
X50000Y256000D01*
Y246642D02*
Y256000D01*
X42000Y272000D02*
X50000Y280000D01*
X23000Y272000D02*
X42000D01*
X50000Y280000D02*
Y289358D01*
X15000Y272000D02*
X23000D01*
X15000Y264000D02*
X23000D01*
X141000Y223000D02*
Y228000D01*
X120000Y286701D02*
X120069Y286770D01*
X121000Y300000D02*
Y305000D01*
X120069Y299069D02*
X121000Y300000D01*
X120069Y286770D02*
Y299069D01*
X129000Y300000D02*
X129931Y299069D01*
Y286770D02*
X130000Y286701D01*
X129000Y300000D02*
Y305000D01*
X129931Y286770D02*
Y299069D01*
X140069D02*
X141000Y300000D01*
X140000Y286701D02*
X140069Y286770D01*
Y299069D01*
X141000Y300000D02*
Y305000D01*
X71000Y308000D02*
Y313000D01*
X70325Y307325D02*
X71000Y308000D01*
X70000Y289358D02*
X70325Y289683D01*
Y307325D01*
X79675Y289683D02*
X80000Y289358D01*
X79000Y308000D02*
X79675Y307325D01*
Y289683D02*
Y307325D01*
X79000Y308000D02*
Y313000D01*
X165000Y284000D02*
X168000Y281000D01*
X187036D01*
X160000Y284000D02*
X165000D01*
X188500Y282465D02*
Y287122D01*
X187036Y281000D02*
X188500Y282465D01*
X173470Y289120D02*
X173500Y289090D01*
X160000Y292000D02*
X165000D01*
X173500Y287122D02*
Y289090D01*
X166250Y290750D02*
X169872D01*
X165000Y292000D02*
X166250Y290750D01*
X169872D02*
X171502Y289120D01*
X173470D01*
X149931Y286770D02*
X150000Y286701D01*
X149000Y300000D02*
X149931Y299069D01*
X149000Y300000D02*
Y305000D01*
X149931Y286770D02*
Y299069D01*
X169000Y308000D02*
Y313000D01*
X125000Y236000D02*
Y241000D01*
X101000Y231000D02*
Y236000D01*
X100069Y236931D02*
X101000Y236000D01*
X100069Y236931D02*
Y251230D01*
X100000Y249299D02*
X100069Y249230D01*
X109000Y231000D02*
Y236000D01*
X109931Y236931D01*
Y251230D01*
Y249230D02*
X110000Y249299D01*
X117000Y223000D02*
Y228000D01*
X100000Y286701D02*
X100069Y286770D01*
Y299069D02*
X101000Y300000D01*
X100069Y286770D02*
Y299069D01*
D47*
X197000Y132675D02*
X197500Y132175D01*
Y129559D02*
Y132175D01*
X197000Y132675D02*
Y133000D01*
X188000Y121325D02*
X188500Y121825D01*
Y124441D01*
X188000Y121000D02*
Y121325D01*
X172000Y121000D02*
Y121325D01*
X172500Y121825D02*
Y124441D01*
X172000Y121325D02*
X172500Y121825D01*
X156000Y121000D02*
Y121325D01*
X156500Y121825D02*
Y124441D01*
X156000Y121325D02*
X156500Y121825D01*
X181000Y132675D02*
Y133000D01*
X181500Y129559D02*
Y132175D01*
X181000Y132675D02*
X181500Y132175D01*
X165000Y132675D02*
X165500Y132175D01*
Y129559D02*
Y132175D01*
X165000Y132675D02*
Y133000D01*
X130000Y239000D02*
Y251299D01*
Y239000D02*
X133000Y236000D01*
D48*
X136000Y186716D02*
X136200Y186516D01*
X136000Y186716D02*
Y197182D01*
X136200Y186516D02*
X138000D01*
X136000Y197182D02*
X140568Y201750D01*
X140750D01*
X142000Y203000D01*
X150000Y195000D02*
X158000D01*
X142000D02*
X150000D01*
X142000D02*
X150484Y186516D01*
X162000D01*
X150000Y203000D02*
X158000D01*
X142000D02*
X150000D01*
X117000Y117000D02*
Y125000D01*
X110000Y110000D02*
X117000Y117000D01*
D49*
X164370Y338000D02*
D03*
D50*
X144685D02*
D03*
X85630D02*
D03*
X105315D02*
D03*
X125000D02*
D03*
D51*
X25000Y108504D02*
D03*
Y90000D02*
D03*
Y71496D02*
D03*
D52*
X172000Y180750D02*
D03*
Y185250D02*
D03*
D53*
X90000Y110000D02*
D03*
X100000D02*
D03*
X110000D02*
D03*
X120000D02*
D03*
X160000D02*
D03*
X140000D02*
D03*
X100000Y70000D02*
D03*
X110000D02*
D03*
X120000D02*
D03*
X130000D02*
D03*
X140000D02*
D03*
X150000D02*
D03*
X160000D02*
D03*
D54*
X90000D02*
D03*
D55*
X135000Y25000D02*
D03*
X125000D02*
D03*
X115000D02*
D03*
D56*
X225000Y200000D02*
D03*
Y190000D02*
D03*
Y180000D02*
D03*
Y170000D02*
D03*
Y160000D02*
D03*
D57*
Y150000D02*
D03*
D58*
X25000Y25000D02*
D03*
X225000D02*
D03*
Y325000D02*
D03*
X25000D02*
D03*
D59*
X130000Y330000D02*
D03*
X120000D02*
D03*
X110000D02*
D03*
X100000D02*
D03*
X90000D02*
D03*
X80000D02*
D03*
X140000D02*
D03*
X170000Y320000D02*
D03*
X160000D02*
D03*
X220000Y10000D02*
D03*
X230000D02*
D03*
X240000Y20000D02*
D03*
Y30000D02*
D03*
X230000Y40000D02*
D03*
X220000D02*
D03*
X210000Y30000D02*
D03*
Y20000D02*
D03*
X30000Y40000D02*
D03*
X20000D02*
D03*
X10000Y30000D02*
D03*
Y20000D02*
D03*
X30000Y10000D02*
D03*
X20000D02*
D03*
X30000Y310000D02*
D03*
X20000D02*
D03*
X40000Y320000D02*
D03*
Y330000D02*
D03*
X10000Y320000D02*
D03*
Y330000D02*
D03*
X30000Y340000D02*
D03*
X20000D02*
D03*
X170000Y300000D02*
D03*
X160000D02*
D03*
X200000Y270000D02*
D03*
X210000D02*
D03*
X220000D02*
D03*
Y280000D02*
D03*
X210000D02*
D03*
X200000D02*
D03*
Y290000D02*
D03*
X210000D02*
D03*
X220000D02*
D03*
X230000D02*
D03*
Y280000D02*
D03*
Y270000D02*
D03*
X240000D02*
D03*
Y280000D02*
D03*
Y290000D02*
D03*
Y300000D02*
D03*
X230000D02*
D03*
X220000D02*
D03*
X210000D02*
D03*
X200000D02*
D03*
Y310000D02*
D03*
X190000Y320000D02*
D03*
X200000D02*
D03*
X210000D02*
D03*
Y310000D02*
D03*
X220000D02*
D03*
X230000D02*
D03*
X240000D02*
D03*
Y320000D02*
D03*
Y330000D02*
D03*
Y340000D02*
D03*
X230000D02*
D03*
X220000D02*
D03*
X210000D02*
D03*
Y330000D02*
D03*
X200000D02*
D03*
Y340000D02*
D03*
X190000D02*
D03*
Y330000D02*
D03*
X180000D02*
D03*
Y340000D02*
D03*
X160000Y310000D02*
D03*
X150000D02*
D03*
Y320000D02*
D03*
X140000D02*
D03*
Y310000D02*
D03*
X120000D02*
D03*
X130000D02*
D03*
Y320000D02*
D03*
X120000D02*
D03*
X110000D02*
D03*
Y310000D02*
D03*
X130000Y270000D02*
D03*
X110000D02*
D03*
X100000D02*
D03*
Y280000D02*
D03*
Y310000D02*
D03*
Y320000D02*
D03*
X80000D02*
D03*
X90000D02*
D03*
Y310000D02*
D03*
Y300000D02*
D03*
Y290000D02*
D03*
Y280000D02*
D03*
Y270000D02*
D03*
X80000Y280000D02*
D03*
Y270000D02*
D03*
X70000D02*
D03*
Y280000D02*
D03*
Y320000D02*
D03*
Y330000D02*
D03*
Y340000D02*
D03*
X60000D02*
D03*
Y330000D02*
D03*
Y320000D02*
D03*
Y310000D02*
D03*
Y300000D02*
D03*
Y290000D02*
D03*
Y280000D02*
D03*
Y270000D02*
D03*
X10000Y310000D02*
D03*
Y340000D02*
D03*
X40000D02*
D03*
X50000D02*
D03*
Y330000D02*
D03*
Y320000D02*
D03*
X40000Y310000D02*
D03*
X50000D02*
D03*
Y300000D02*
D03*
X40000D02*
D03*
X30000D02*
D03*
X20000D02*
D03*
X10000D02*
D03*
Y220000D02*
D03*
Y230000D02*
D03*
Y240000D02*
D03*
Y250000D02*
D03*
X20000D02*
D03*
Y240000D02*
D03*
Y230000D02*
D03*
Y220000D02*
D03*
X30000D02*
D03*
Y230000D02*
D03*
Y240000D02*
D03*
Y250000D02*
D03*
X40000D02*
D03*
Y240000D02*
D03*
Y230000D02*
D03*
Y220000D02*
D03*
X50000D02*
D03*
Y230000D02*
D03*
X60000Y220000D02*
D03*
Y230000D02*
D03*
Y240000D02*
D03*
Y250000D02*
D03*
X70000D02*
D03*
Y240000D02*
D03*
Y230000D02*
D03*
Y220000D02*
D03*
X80000D02*
D03*
Y230000D02*
D03*
X90000Y250000D02*
D03*
Y240000D02*
D03*
Y230000D02*
D03*
Y220000D02*
D03*
X100000D02*
D03*
X110000D02*
D03*
X120000D02*
D03*
X130000D02*
D03*
X160000Y250000D02*
D03*
Y240000D02*
D03*
Y220000D02*
D03*
X170000D02*
D03*
Y230000D02*
D03*
Y240000D02*
D03*
Y250000D02*
D03*
X180000D02*
D03*
Y240000D02*
D03*
Y230000D02*
D03*
Y220000D02*
D03*
X190000D02*
D03*
Y230000D02*
D03*
Y240000D02*
D03*
Y250000D02*
D03*
X200000D02*
D03*
Y240000D02*
D03*
Y230000D02*
D03*
Y220000D02*
D03*
X210000D02*
D03*
Y230000D02*
D03*
Y240000D02*
D03*
Y250000D02*
D03*
X220000D02*
D03*
Y240000D02*
D03*
Y230000D02*
D03*
Y220000D02*
D03*
X230000D02*
D03*
Y230000D02*
D03*
Y240000D02*
D03*
Y250000D02*
D03*
X240000D02*
D03*
Y240000D02*
D03*
Y230000D02*
D03*
Y220000D02*
D03*
X90000Y210000D02*
D03*
Y200000D02*
D03*
X80000Y210000D02*
D03*
Y200000D02*
D03*
X70000Y210000D02*
D03*
Y200000D02*
D03*
X60000Y210000D02*
D03*
Y200000D02*
D03*
X50000Y210000D02*
D03*
Y200000D02*
D03*
X40000Y210000D02*
D03*
Y200000D02*
D03*
X30000D02*
D03*
Y210000D02*
D03*
X10000D02*
D03*
X20000D02*
D03*
Y200000D02*
D03*
X10000D02*
D03*
Y190000D02*
D03*
Y180000D02*
D03*
Y170000D02*
D03*
Y160000D02*
D03*
X20000D02*
D03*
X30000Y150000D02*
D03*
X10000D02*
D03*
X20000D02*
D03*
Y140000D02*
D03*
X10000D02*
D03*
X100000Y170000D02*
D03*
X80000Y150000D02*
D03*
X90000D02*
D03*
X140000Y140000D02*
D03*
X150000Y180000D02*
D03*
X100000Y200000D02*
D03*
Y210000D02*
D03*
X110000Y200000D02*
D03*
X120000Y190000D02*
D03*
X130000D02*
D03*
Y200000D02*
D03*
X120000D02*
D03*
X110000Y210000D02*
D03*
X120000D02*
D03*
X130000D02*
D03*
X150000D02*
D03*
X160000D02*
D03*
X190000Y140000D02*
D03*
X180000Y150000D02*
D03*
X170000Y160000D02*
D03*
X180000D02*
D03*
X200000D02*
D03*
Y170000D02*
D03*
Y180000D02*
D03*
X180000Y190000D02*
D03*
X170000D02*
D03*
Y210000D02*
D03*
Y200000D02*
D03*
X180000D02*
D03*
Y210000D02*
D03*
X190000D02*
D03*
X200000D02*
D03*
X210000D02*
D03*
X220000D02*
D03*
X230000D02*
D03*
X240000D02*
D03*
Y200000D02*
D03*
Y190000D02*
D03*
Y180000D02*
D03*
Y170000D02*
D03*
Y160000D02*
D03*
Y150000D02*
D03*
X200000Y140000D02*
D03*
X210000D02*
D03*
X220000D02*
D03*
X230000D02*
D03*
X240000D02*
D03*
Y130000D02*
D03*
X230000D02*
D03*
X220000D02*
D03*
X230000Y120000D02*
D03*
X240000D02*
D03*
Y110000D02*
D03*
X210000D02*
D03*
X200000D02*
D03*
X180000D02*
D03*
X190000D02*
D03*
Y100000D02*
D03*
X200000D02*
D03*
X210000D02*
D03*
X240000D02*
D03*
Y90000D02*
D03*
X210000D02*
D03*
X200000D02*
D03*
X190000D02*
D03*
Y80000D02*
D03*
X200000D02*
D03*
X210000D02*
D03*
X240000D02*
D03*
Y70000D02*
D03*
X210000D02*
D03*
X200000D02*
D03*
X190000D02*
D03*
Y60000D02*
D03*
X200000D02*
D03*
X210000D02*
D03*
X220000D02*
D03*
X230000D02*
D03*
X240000D02*
D03*
Y50000D02*
D03*
X230000D02*
D03*
X220000D02*
D03*
X210000D02*
D03*
X200000D02*
D03*
X190000D02*
D03*
X170000Y70000D02*
D03*
Y60000D02*
D03*
Y50000D02*
D03*
X160000D02*
D03*
Y60000D02*
D03*
X150000Y50000D02*
D03*
Y60000D02*
D03*
X160000Y80000D02*
D03*
Y100000D02*
D03*
X150000D02*
D03*
Y90000D02*
D03*
X140000Y100000D02*
D03*
Y90000D02*
D03*
Y80000D02*
D03*
Y60000D02*
D03*
X10000Y110000D02*
D03*
Y100000D02*
D03*
Y90000D02*
D03*
Y80000D02*
D03*
Y70000D02*
D03*
X80000Y80000D02*
D03*
Y90000D02*
D03*
X90000D02*
D03*
Y80000D02*
D03*
X100000Y90000D02*
D03*
X110000Y100000D02*
D03*
X100000D02*
D03*
X90000D02*
D03*
X80000D02*
D03*
Y110000D02*
D03*
X50000D02*
D03*
Y100000D02*
D03*
X60000D02*
D03*
Y90000D02*
D03*
X50000D02*
D03*
Y80000D02*
D03*
X60000D02*
D03*
Y70000D02*
D03*
X50000D02*
D03*
X40000D02*
D03*
X50000Y60000D02*
D03*
X60000D02*
D03*
X70000D02*
D03*
X130000D02*
D03*
Y50000D02*
D03*
X110000D02*
D03*
X100000D02*
D03*
X90000D02*
D03*
X80000D02*
D03*
X70000D02*
D03*
X60000D02*
D03*
X50000D02*
D03*
X10000Y10000D02*
D03*
Y40000D02*
D03*
X240000Y10000D02*
D03*
Y40000D02*
D03*
X210000D02*
D03*
X200000D02*
D03*
Y30000D02*
D03*
Y20000D02*
D03*
X210000Y10000D02*
D03*
X200000D02*
D03*
X190000D02*
D03*
X180000D02*
D03*
X170000D02*
D03*
X160000D02*
D03*
X150000Y30000D02*
D03*
Y20000D02*
D03*
Y10000D02*
D03*
X140000D02*
D03*
X130000D02*
D03*
X120000D02*
D03*
X110000D02*
D03*
X100000Y30000D02*
D03*
Y20000D02*
D03*
Y10000D02*
D03*
X90000D02*
D03*
X80000D02*
D03*
X70000D02*
D03*
X60000D02*
D03*
X40000Y40000D02*
D03*
X50000D02*
D03*
Y30000D02*
D03*
Y20000D02*
D03*
Y10000D02*
D03*
X40000D02*
D03*
D60*
X91500Y192319D02*
D03*
X37000Y130000D02*
D03*
X132000Y177000D02*
D03*
X154481Y220663D02*
D03*
X132000Y183000D02*
D03*
X144000Y184000D02*
D03*
Y179000D02*
D03*
Y174000D02*
D03*
X107000Y158000D02*
D03*
X102000D02*
D03*
X97000D02*
D03*
X92000D02*
D03*
X153000Y133000D02*
D03*
X48000Y154000D02*
D03*
X53000D02*
D03*
X65000Y158000D02*
D03*
X58000Y150000D02*
D03*
X81500Y169681D02*
D03*
X86500D02*
D03*
X145000Y165000D02*
D03*
X141000Y130000D02*
D03*
X161000Y133000D02*
D03*
X158000Y160000D02*
D03*
X162000D02*
D03*
X185000Y133000D02*
D03*
X193000D02*
D03*
X197000D02*
D03*
X188000Y121000D02*
D03*
X172000D02*
D03*
X156000D02*
D03*
X181000Y133000D02*
D03*
X165000D02*
D03*
X177000D02*
D03*
X169000D02*
D03*
X38000Y158000D02*
D03*
X153000Y168000D02*
D03*
Y172000D02*
D03*
X156000Y175023D02*
D03*
Y180000D02*
D03*
X168000Y175000D02*
D03*
X130000Y161000D02*
D03*
Y166000D02*
D03*
Y171000D02*
D03*
X126000Y171000D02*
D03*
X154000Y232000D02*
D03*
X158000D02*
D03*
X126000Y179000D02*
D03*
X167000Y203000D02*
D03*
Y195000D02*
D03*
X106500Y192319D02*
D03*
X42500Y180122D02*
D03*
X62500D02*
D03*
X101500Y192319D02*
D03*
X96500D02*
D03*
X86500D02*
D03*
X81500D02*
D03*
X109000Y130000D02*
D03*
X43000Y158000D02*
D03*
X33000D02*
D03*
X57500Y192122D02*
D03*
X52500D02*
D03*
X37500D02*
D03*
X18000Y179000D02*
D03*
Y171000D02*
D03*
X125000Y130000D02*
D03*
X93000D02*
D03*
X77000D02*
D03*
X61000D02*
D03*
X45000D02*
D03*
X69000Y120000D02*
D03*
X53000D02*
D03*
X190000Y188000D02*
D03*
Y162000D02*
D03*
X188000Y206000D02*
D03*
X188000Y144000D02*
D03*
X229000Y107000D02*
D03*
X221000D02*
D03*
X179000Y44000D02*
D03*
X137000D02*
D03*
X79000D02*
D03*
X229000Y73000D02*
D03*
X221000D02*
D03*
X37000Y50000D02*
D03*
X158000Y39000D02*
D03*
X100000D02*
D03*
X58000D02*
D03*
X150000Y243000D02*
D03*
X10000Y264000D02*
D03*
Y272000D02*
D03*
X105000Y243000D02*
D03*
X117000Y223000D02*
D03*
X121000Y305000D02*
D03*
X125000Y280000D02*
D03*
X129000Y305000D02*
D03*
X141000D02*
D03*
X166799Y264878D02*
D03*
X71000Y313000D02*
D03*
X79000D02*
D03*
X178500Y271579D02*
D03*
X188500D02*
D03*
X145000Y280000D02*
D03*
X160000Y284000D02*
D03*
Y292000D02*
D03*
X149000Y305000D02*
D03*
X169000Y313000D02*
D03*
X179300D02*
D03*
X182700D02*
D03*
X125000Y241000D02*
D03*
X110000Y280000D02*
D03*
X101000Y231000D02*
D03*
X109000D02*
D03*
X141000Y223000D02*
D03*
D61*
X18318Y31682D02*
D03*
X15550Y25000D02*
D03*
X18318Y18318D02*
D03*
X25000Y15550D02*
D03*
X31682Y18318D02*
D03*
X34450Y25000D02*
D03*
X31682Y31682D02*
D03*
X25000Y34450D02*
D03*
X218318Y31682D02*
D03*
X215550Y25000D02*
D03*
X218318Y18318D02*
D03*
X225000Y15550D02*
D03*
X231682Y18318D02*
D03*
X234450Y25000D02*
D03*
X231682Y31682D02*
D03*
X225000Y34450D02*
D03*
X218318Y331682D02*
D03*
X215550Y325000D02*
D03*
X218318Y318318D02*
D03*
X225000Y315550D02*
D03*
X231682Y318318D02*
D03*
X234450Y325000D02*
D03*
X231682Y331682D02*
D03*
X225000Y334450D02*
D03*
X18318Y331682D02*
D03*
X15550Y325000D02*
D03*
X18318Y318318D02*
D03*
X25000Y315550D02*
D03*
X31682Y318318D02*
D03*
X34450Y325000D02*
D03*
X31682Y331682D02*
D03*
X25000Y334450D02*
D03*
M02*
