G04*
G04 #@! TF.GenerationSoftware,Altium Limited,Altium Designer,22.4.2 (48)*
G04*
G04 Layer_Color=8388736*
%FSLAX25Y25*%
%MOIN*%
G70*
G04*
G04 #@! TF.SameCoordinates,72E6E30A-1C0B-45E9-B78B-765FFEEE1884*
G04*
G04*
G04 #@! TF.FilePolarity,Negative*
G04*
G01*
G75*
%ADD18R,0.08400X0.04400*%
%ADD19R,0.04400X0.02100*%
%ADD20R,0.05400X0.05400*%
%ADD21R,0.05400X0.05400*%
%ADD22R,0.03550X0.08668*%
%ADD23R,0.02762X0.07487*%
%ADD24R,0.02959X0.06896*%
%ADD25R,0.02100X0.04400*%
%ADD26R,0.06700X0.02100*%
%ADD27R,0.10243X0.10243*%
%ADD28C,0.10243*%
%ADD29C,0.12900*%
%ADD30C,0.03900*%
%ADD31C,0.06306*%
%ADD32R,0.06306X0.06306*%
%ADD33C,0.06400*%
%ADD34C,0.07400*%
%ADD35R,0.07400X0.07400*%
%ADD36C,0.25400*%
D18*
X210000Y181000D02*
D03*
X190000D02*
D03*
X210000Y193000D02*
D03*
X190000D02*
D03*
X65000Y31000D02*
D03*
X85000D02*
D03*
X65000Y19000D02*
D03*
X85000D02*
D03*
X185000D02*
D03*
X165000D02*
D03*
X185000Y31000D02*
D03*
X165000D02*
D03*
X210000Y157000D02*
D03*
X190000D02*
D03*
X210000Y169000D02*
D03*
X190000D02*
D03*
D19*
X172500Y129559D02*
D03*
Y127000D02*
D03*
Y124441D02*
D03*
X181500D02*
D03*
Y127000D02*
D03*
Y129559D02*
D03*
X156500D02*
D03*
Y127000D02*
D03*
Y124441D02*
D03*
X165500D02*
D03*
Y127000D02*
D03*
Y129559D02*
D03*
X188500D02*
D03*
Y127000D02*
D03*
Y124441D02*
D03*
X197500D02*
D03*
Y127000D02*
D03*
Y129559D02*
D03*
D20*
X23000Y171000D02*
D03*
Y179000D02*
D03*
X165000Y292000D02*
D03*
Y284000D02*
D03*
X133000Y236000D02*
D03*
Y228000D02*
D03*
X141000Y236000D02*
D03*
Y228000D02*
D03*
X125000D02*
D03*
Y236000D02*
D03*
X117000D02*
D03*
Y228000D02*
D03*
X158000Y203000D02*
D03*
Y195000D02*
D03*
X150000Y203000D02*
D03*
Y195000D02*
D03*
X15000Y272000D02*
D03*
Y264000D02*
D03*
X23000D02*
D03*
Y272000D02*
D03*
X31000Y264000D02*
D03*
Y272000D02*
D03*
X121000Y179000D02*
D03*
Y171000D02*
D03*
X221000Y78000D02*
D03*
Y86000D02*
D03*
X229000Y78000D02*
D03*
Y86000D02*
D03*
X221000Y94000D02*
D03*
Y102000D02*
D03*
X229000Y94000D02*
D03*
Y102000D02*
D03*
X142000Y195000D02*
D03*
Y203000D02*
D03*
D21*
X71000Y308000D02*
D03*
X79000D02*
D03*
X71000Y300000D02*
D03*
X79000D02*
D03*
X141000D02*
D03*
X149000D02*
D03*
X177000Y308000D02*
D03*
X169000D02*
D03*
X185000Y300000D02*
D03*
X177000D02*
D03*
X193000Y308000D02*
D03*
X185000D02*
D03*
X121000Y300000D02*
D03*
X129000D02*
D03*
X109000Y236000D02*
D03*
X101000D02*
D03*
X109000Y300000D02*
D03*
X101000D02*
D03*
X105000Y39000D02*
D03*
X113000D02*
D03*
X37000Y55000D02*
D03*
X29000D02*
D03*
X37000Y125000D02*
D03*
X29000D02*
D03*
X188000Y149000D02*
D03*
X196000D02*
D03*
X163000Y39000D02*
D03*
X171000D02*
D03*
X63000D02*
D03*
X71000D02*
D03*
X188000Y201000D02*
D03*
X196000D02*
D03*
X109000Y125000D02*
D03*
X117000D02*
D03*
X77000D02*
D03*
X85000D02*
D03*
X125000D02*
D03*
X133000D02*
D03*
X61000D02*
D03*
X69000D02*
D03*
X45000D02*
D03*
X53000D02*
D03*
X141000D02*
D03*
X149000D02*
D03*
X93000D02*
D03*
X101000D02*
D03*
X145000Y39000D02*
D03*
X137000D02*
D03*
X121000D02*
D03*
X129000D02*
D03*
X13000Y55000D02*
D03*
X21000D02*
D03*
X13000Y125000D02*
D03*
X21000D02*
D03*
X212000Y149000D02*
D03*
X204000D02*
D03*
X187000Y39000D02*
D03*
X179000D02*
D03*
X87000D02*
D03*
X79000D02*
D03*
X212000Y201000D02*
D03*
X204000D02*
D03*
D22*
X70000Y289358D02*
D03*
X80000D02*
D03*
X50000D02*
D03*
Y246642D02*
D03*
X80000D02*
D03*
D23*
X150000Y286701D02*
D03*
X145000D02*
D03*
X140000D02*
D03*
X145000Y249299D02*
D03*
X150000D02*
D03*
X140000D02*
D03*
X120000D02*
D03*
X130000D02*
D03*
X125000D02*
D03*
X120000Y286701D02*
D03*
X125000D02*
D03*
X130000D02*
D03*
X100000Y249299D02*
D03*
Y286701D02*
D03*
X110000Y249299D02*
D03*
X105000D02*
D03*
Y286701D02*
D03*
X110000D02*
D03*
D24*
X178500Y264878D02*
D03*
X173500D02*
D03*
X183500D02*
D03*
X188500D02*
D03*
Y287122D02*
D03*
X183500D02*
D03*
X178500D02*
D03*
X173500D02*
D03*
X101500Y186319D02*
D03*
X106500D02*
D03*
X96500D02*
D03*
X111500D02*
D03*
X91500D02*
D03*
X86500D02*
D03*
X111500Y163681D02*
D03*
X106500D02*
D03*
X91500D02*
D03*
X86500D02*
D03*
X101500D02*
D03*
X96500D02*
D03*
X81500Y186319D02*
D03*
X76500D02*
D03*
X81500Y163681D02*
D03*
X76500D02*
D03*
X67500Y186122D02*
D03*
X62500D02*
D03*
X57500D02*
D03*
X52500D02*
D03*
X47500D02*
D03*
X42500D02*
D03*
X37500D02*
D03*
X32500D02*
D03*
X67500Y163878D02*
D03*
X62500D02*
D03*
X57500D02*
D03*
X52500D02*
D03*
X47500D02*
D03*
X42500D02*
D03*
X37500D02*
D03*
X32500D02*
D03*
D25*
X148441Y227500D02*
D03*
X151000D02*
D03*
X153559D02*
D03*
Y236500D02*
D03*
X151000D02*
D03*
X148441D02*
D03*
D26*
X138000Y186516D02*
D03*
Y183957D02*
D03*
Y181398D02*
D03*
Y178839D02*
D03*
Y176279D02*
D03*
Y173721D02*
D03*
Y171161D02*
D03*
Y168602D02*
D03*
Y166043D02*
D03*
Y163484D02*
D03*
X162000Y186516D02*
D03*
Y183957D02*
D03*
Y181398D02*
D03*
Y178839D02*
D03*
Y176279D02*
D03*
Y173721D02*
D03*
Y171161D02*
D03*
Y168602D02*
D03*
Y166043D02*
D03*
Y163484D02*
D03*
D27*
X164370Y338000D02*
D03*
D28*
X144685D02*
D03*
X85630D02*
D03*
X105315D02*
D03*
X125000D02*
D03*
D29*
X25000Y108504D02*
D03*
Y90000D02*
D03*
Y71496D02*
D03*
D30*
X172000Y180750D02*
D03*
Y185250D02*
D03*
D31*
X90000Y110000D02*
D03*
X100000D02*
D03*
X110000D02*
D03*
X120000D02*
D03*
X160000D02*
D03*
X140000D02*
D03*
X100000Y70000D02*
D03*
X110000D02*
D03*
X120000D02*
D03*
X130000D02*
D03*
X140000D02*
D03*
X150000D02*
D03*
X160000D02*
D03*
D32*
X90000D02*
D03*
D33*
X135000Y25000D02*
D03*
X125000D02*
D03*
X115000D02*
D03*
D34*
X225000Y200000D02*
D03*
Y190000D02*
D03*
Y180000D02*
D03*
Y170000D02*
D03*
Y160000D02*
D03*
D35*
Y150000D02*
D03*
D36*
X25000Y25000D02*
D03*
X225000D02*
D03*
Y325000D02*
D03*
X25000D02*
D03*
M02*
