G04*
G04 #@! TF.GenerationSoftware,Altium Limited,Altium Designer,22.4.2 (48)*
G04*
G04 Layer_Physical_Order=2*
G04 Layer_Color=153*
%FSLAX25Y25*%
%MOIN*%
G70*
G04*
G04 #@! TF.SameCoordinates,72E6E30A-1C0B-45E9-B78B-765FFEEE1884*
G04*
G04*
G04 #@! TF.FilePolarity,Positive*
G04*
G01*
G75*
%ADD15C,0.01000*%
%ADD49R,0.09843X0.09843*%
%ADD50C,0.09843*%
%ADD51C,0.12500*%
%ADD52C,0.03500*%
%ADD53C,0.05906*%
%ADD54R,0.05906X0.05906*%
%ADD55C,0.06000*%
%ADD56C,0.07000*%
%ADD57R,0.07000X0.07000*%
%ADD58C,0.25000*%
%ADD59C,0.03600*%
%ADD60C,0.02400*%
%ADD61C,0.04400*%
G36*
X228523Y348749D02*
X230834Y348290D01*
X233088Y347606D01*
X235265Y346704D01*
X237343Y345594D01*
X239302Y344285D01*
X241124Y342790D01*
X242790Y341124D01*
X244285Y339302D01*
X245594Y337343D01*
X246704Y335265D01*
X247606Y333088D01*
X248290Y330834D01*
X248749Y328523D01*
X248980Y326178D01*
Y325000D01*
Y260000D01*
X55000D01*
Y348980D01*
X226178D01*
X228523Y348749D01*
D02*
G37*
G36*
X53980Y260000D02*
X54000Y259901D01*
Y259000D01*
X54901D01*
X55000Y258980D01*
X248980D01*
Y25000D01*
Y23822D01*
X248749Y21477D01*
X248290Y19166D01*
X247606Y16912D01*
X246704Y14735D01*
X245594Y12657D01*
X244285Y10698D01*
X242790Y8876D01*
X241124Y7210D01*
X239302Y5715D01*
X237343Y4406D01*
X235265Y3296D01*
X233088Y2394D01*
X230834Y1710D01*
X228523Y1251D01*
X226178Y1020D01*
X23822D01*
X21477Y1251D01*
X19166Y1710D01*
X16912Y2394D01*
X14735Y3296D01*
X12657Y4406D01*
X10698Y5715D01*
X8876Y7210D01*
X7210Y8876D01*
X5715Y10698D01*
X4406Y12657D01*
X3296Y14735D01*
X2394Y16912D01*
X1710Y19166D01*
X1251Y21477D01*
X1020Y23822D01*
Y25000D01*
Y325000D01*
Y326178D01*
X1251Y328523D01*
X1710Y330834D01*
X2394Y333088D01*
X3296Y335265D01*
X4406Y337343D01*
X5715Y339302D01*
X7210Y341124D01*
X8876Y342790D01*
X10698Y344285D01*
X12657Y345594D01*
X14735Y346704D01*
X16912Y347606D01*
X19166Y348290D01*
X21477Y348749D01*
X23822Y348980D01*
X53980D01*
Y260000D01*
D02*
G37*
%LPC*%
G36*
X126000Y343838D02*
Y339000D01*
X130838D01*
X130694Y339727D01*
X130247Y340805D01*
X129599Y341775D01*
X128775Y342599D01*
X127805Y343247D01*
X126727Y343694D01*
X126000Y343838D01*
D02*
G37*
G36*
X106315D02*
Y339000D01*
X111153D01*
X111009Y339727D01*
X110562Y340805D01*
X109914Y341775D01*
X109090Y342599D01*
X108120Y343247D01*
X107042Y343694D01*
X106315Y343838D01*
D02*
G37*
G36*
X124000D02*
X123273Y343694D01*
X122195Y343247D01*
X121225Y342599D01*
X120401Y341775D01*
X119753Y340805D01*
X119306Y339727D01*
X119162Y339000D01*
X124000D01*
Y343838D01*
D02*
G37*
G36*
X104315D02*
X103588Y343694D01*
X102510Y343247D01*
X101540Y342599D01*
X100716Y341775D01*
X100068Y340805D01*
X99621Y339727D01*
X99477Y339000D01*
X104315D01*
Y343838D01*
D02*
G37*
G36*
X170291Y343921D02*
X158449D01*
Y339529D01*
X156613D01*
X156028Y339413D01*
X155532Y339081D01*
X154528Y338668D01*
X153523Y339081D01*
X153027Y339413D01*
X152442Y339529D01*
X150418D01*
X150379Y339727D01*
X149932Y340805D01*
X149284Y341775D01*
X148460Y342599D01*
X147490Y343247D01*
X146412Y343694D01*
X145268Y343921D01*
X144102D01*
X142958Y343694D01*
X141880Y343247D01*
X140910Y342599D01*
X140086Y341775D01*
X139438Y340805D01*
X138991Y339727D01*
X138764Y338583D01*
Y337417D01*
X138991Y336273D01*
X139438Y335195D01*
X140086Y334225D01*
X140910Y333401D01*
X141880Y332753D01*
X142958Y332306D01*
X144102Y332079D01*
X145268D01*
X146412Y332306D01*
X147490Y332753D01*
X148460Y333401D01*
X148998Y333939D01*
X150173Y333749D01*
X151498Y333039D01*
Y328730D01*
X151615Y328145D01*
X151946Y327648D01*
X155676Y323919D01*
X156172Y323587D01*
X156757Y323471D01*
X169567D01*
X177971Y315067D01*
Y314782D01*
X177435Y314246D01*
X177100Y313438D01*
Y312562D01*
X177435Y311754D01*
X178054Y311135D01*
X178862Y310800D01*
X179738D01*
X180546Y311135D01*
X181000Y311589D01*
X181454Y311135D01*
X182262Y310800D01*
X183138D01*
X183946Y311135D01*
X184565Y311754D01*
X184900Y312562D01*
Y313438D01*
X184565Y314246D01*
X184029Y314782D01*
Y316943D01*
X183913Y317528D01*
X183581Y318024D01*
X172524Y329081D01*
X172028Y329413D01*
X171443Y329529D01*
X161270D01*
X161237Y329579D01*
X162573Y332079D01*
X170291D01*
Y343921D01*
D02*
G37*
G36*
X130838Y337000D02*
X126000D01*
Y332162D01*
X126727Y332306D01*
X127805Y332753D01*
X128775Y333401D01*
X129599Y334225D01*
X130247Y335195D01*
X130694Y336273D01*
X130838Y337000D01*
D02*
G37*
G36*
X111153D02*
X106315D01*
Y332162D01*
X107042Y332306D01*
X108120Y332753D01*
X109090Y333401D01*
X109914Y334225D01*
X110562Y335195D01*
X111009Y336273D01*
X111153Y337000D01*
D02*
G37*
G36*
X124000D02*
X119162D01*
X119306Y336273D01*
X119753Y335195D01*
X120401Y334225D01*
X121225Y333401D01*
X122195Y332753D01*
X123273Y332306D01*
X124000Y332162D01*
Y337000D01*
D02*
G37*
G36*
X104315D02*
X99477D01*
X99621Y336273D01*
X100068Y335195D01*
X100716Y334225D01*
X101540Y333401D01*
X102510Y332753D01*
X103588Y332306D01*
X104315Y332162D01*
Y337000D01*
D02*
G37*
G36*
X86213Y343921D02*
X85047D01*
X83903Y343694D01*
X82825Y343247D01*
X81855Y342599D01*
X81031Y341775D01*
X80383Y340805D01*
X79936Y339727D01*
X79709Y338583D01*
Y337417D01*
X79936Y336273D01*
X80383Y335195D01*
X81031Y334225D01*
X81855Y333401D01*
X82825Y332753D01*
X83903Y332306D01*
X85047Y332079D01*
X86213D01*
X87357Y332306D01*
X88435Y332753D01*
X89404Y333401D01*
X90229Y334225D01*
X90877Y335195D01*
X91324Y336273D01*
X91551Y337417D01*
Y338583D01*
X91324Y339727D01*
X90877Y340805D01*
X90229Y341775D01*
X89404Y342599D01*
X88435Y343247D01*
X87357Y343694D01*
X86213Y343921D01*
D02*
G37*
G36*
X226062Y338500D02*
X223938D01*
X221839Y338168D01*
X219818Y337511D01*
X217924Y336546D01*
X216205Y335297D01*
X214703Y333795D01*
X213454Y332076D01*
X212489Y330182D01*
X211832Y328161D01*
X211500Y326062D01*
Y323938D01*
X211832Y321839D01*
X212489Y319818D01*
X213454Y317924D01*
X214703Y316205D01*
X216205Y314703D01*
X217924Y313454D01*
X219818Y312489D01*
X221839Y311832D01*
X223938Y311500D01*
X226062D01*
X228161Y311832D01*
X230182Y312489D01*
X232076Y313454D01*
X233795Y314703D01*
X235297Y316205D01*
X236546Y317924D01*
X237511Y319818D01*
X238168Y321839D01*
X238500Y323938D01*
Y326062D01*
X238168Y328161D01*
X237511Y330182D01*
X236546Y332076D01*
X235297Y333795D01*
X233795Y335297D01*
X232076Y336546D01*
X230182Y337511D01*
X228161Y338168D01*
X226062Y338500D01*
D02*
G37*
G36*
X169438Y315200D02*
X168562D01*
X167754Y314865D01*
X167135Y314246D01*
X166800Y313438D01*
Y312562D01*
X167135Y311754D01*
X167754Y311135D01*
X168562Y310800D01*
X169438D01*
X170246Y311135D01*
X170865Y311754D01*
X171200Y312562D01*
Y313438D01*
X170865Y314246D01*
X170246Y314865D01*
X169438Y315200D01*
D02*
G37*
G36*
X71438D02*
X70562D01*
X69754Y314865D01*
X69135Y314246D01*
X68800Y313438D01*
Y312562D01*
X69135Y311754D01*
X69754Y311135D01*
X70562Y310800D01*
X71438D01*
X72246Y311135D01*
X72865Y311754D01*
X73200Y312562D01*
Y313438D01*
X72865Y314246D01*
X72246Y314865D01*
X71438Y315200D01*
D02*
G37*
G36*
X141438Y307200D02*
X140562D01*
X139754Y306865D01*
X139135Y306246D01*
X138800Y305438D01*
Y304562D01*
X139135Y303754D01*
X139754Y303135D01*
X140562Y302800D01*
X141438D01*
X142246Y303135D01*
X142865Y303754D01*
X143200Y304562D01*
Y305438D01*
X142865Y306246D01*
X142246Y306865D01*
X141438Y307200D01*
D02*
G37*
G36*
X121438D02*
X120562D01*
X119754Y306865D01*
X119135Y306246D01*
X118800Y305438D01*
Y304562D01*
X119135Y303754D01*
X119754Y303135D01*
X120562Y302800D01*
X121438D01*
X122246Y303135D01*
X122865Y303754D01*
X123200Y304562D01*
Y305438D01*
X122865Y306246D01*
X122246Y306865D01*
X121438Y307200D01*
D02*
G37*
G36*
X160438Y294200D02*
X159562D01*
X158754Y293865D01*
X158135Y293246D01*
X157800Y292438D01*
Y291562D01*
X158135Y290754D01*
X158754Y290135D01*
X159562Y289800D01*
X160438D01*
X161246Y290135D01*
X161865Y290754D01*
X162200Y291562D01*
Y292438D01*
X161865Y293246D01*
X161246Y293865D01*
X160438Y294200D01*
D02*
G37*
G36*
X145438Y282200D02*
X144562D01*
X143754Y281865D01*
X143135Y281246D01*
X142800Y280438D01*
Y279562D01*
X143135Y278754D01*
X143754Y278135D01*
X144562Y277800D01*
X145037D01*
X147229Y275608D01*
X146254Y273108D01*
X134055D01*
X127200Y279963D01*
Y280438D01*
X126865Y281246D01*
X126246Y281865D01*
X125438Y282200D01*
X124562D01*
X123754Y281865D01*
X123135Y281246D01*
X122800Y280438D01*
Y279562D01*
X123135Y278754D01*
X123754Y278135D01*
X124562Y277800D01*
X125037D01*
X132340Y270497D01*
X132836Y270166D01*
X133421Y270049D01*
X176918D01*
X177254Y269714D01*
X178062Y269379D01*
X178938D01*
X179746Y269714D01*
X180365Y270333D01*
X180700Y271141D01*
Y271971D01*
X180700Y272016D01*
X181405Y273361D01*
X184098Y273817D01*
X186300Y271616D01*
Y271141D01*
X186635Y270333D01*
X187254Y269714D01*
X188062Y269379D01*
X188938D01*
X189746Y269714D01*
X190365Y270333D01*
X190700Y271141D01*
Y272016D01*
X190365Y272825D01*
X189746Y273444D01*
X188938Y273779D01*
X188463D01*
X185160Y277081D01*
X184664Y277413D01*
X184079Y277529D01*
X149634D01*
X147200Y279963D01*
Y280438D01*
X146865Y281246D01*
X146246Y281865D01*
X145438Y282200D01*
D02*
G37*
G36*
X110438Y282200D02*
X109562D01*
X108754Y281865D01*
X108135Y281246D01*
X107800Y280438D01*
Y279562D01*
X108135Y278754D01*
X108754Y278135D01*
X109562Y277800D01*
X110037D01*
X124041Y263796D01*
X124537Y263465D01*
X125122Y263349D01*
X165217D01*
X165553Y263013D01*
X166362Y262678D01*
X167237D01*
X168045Y263013D01*
X168664Y263632D01*
X168999Y264440D01*
Y265316D01*
X168664Y266124D01*
X168045Y266743D01*
X167237Y267078D01*
X166362D01*
X165553Y266743D01*
X165217Y266407D01*
X125756D01*
X112200Y279963D01*
Y280438D01*
X111865Y281246D01*
X111246Y281865D01*
X110438Y282200D01*
D02*
G37*
G36*
X26063Y338500D02*
X23937D01*
X21839Y338168D01*
X19818Y337511D01*
X17924Y336546D01*
X16205Y335297D01*
X14703Y333795D01*
X13454Y332076D01*
X12489Y330182D01*
X11832Y328161D01*
X11500Y326062D01*
Y323938D01*
X11832Y321839D01*
X12489Y319818D01*
X13454Y317924D01*
X14703Y316205D01*
X16205Y314703D01*
X17924Y313454D01*
X19818Y312489D01*
X21839Y311832D01*
X23937Y311500D01*
X26063D01*
X28161Y311832D01*
X30182Y312489D01*
X32076Y313454D01*
X33795Y314703D01*
X35297Y316205D01*
X36546Y317924D01*
X37511Y319818D01*
X38168Y321839D01*
X38500Y323938D01*
Y326062D01*
X38168Y328161D01*
X37511Y330182D01*
X36546Y332076D01*
X35297Y333795D01*
X33795Y335297D01*
X32076Y336546D01*
X30182Y337511D01*
X28161Y338168D01*
X26063Y338500D01*
D02*
G37*
G36*
X10438Y266200D02*
X9562D01*
X8754Y265865D01*
X8135Y265246D01*
X7800Y264438D01*
Y263562D01*
X8135Y262754D01*
X8754Y262135D01*
X9562Y261800D01*
X10438D01*
X11246Y262135D01*
X11865Y262754D01*
X12200Y263562D01*
Y264438D01*
X11865Y265246D01*
X11246Y265865D01*
X10438Y266200D01*
D02*
G37*
G36*
X150438Y245200D02*
X149562D01*
X148754Y244865D01*
X148135Y244246D01*
X147800Y243438D01*
Y242562D01*
X148135Y241754D01*
X148754Y241135D01*
X149562Y240800D01*
X150438D01*
X151246Y241135D01*
X151865Y241754D01*
X152200Y242562D01*
Y243438D01*
X151865Y244246D01*
X151246Y244865D01*
X150438Y245200D01*
D02*
G37*
G36*
X125438Y243200D02*
X124562D01*
X123754Y242865D01*
X123135Y242246D01*
X122800Y241438D01*
Y240562D01*
X123135Y239754D01*
X123754Y239135D01*
X124562Y238800D01*
X125438D01*
X126246Y239135D01*
X126865Y239754D01*
X127200Y240562D01*
Y241438D01*
X126865Y242246D01*
X126246Y242865D01*
X125438Y243200D01*
D02*
G37*
G36*
X158438Y234200D02*
X158438Y234200D01*
X157562D01*
X156754Y233865D01*
X156000Y233340D01*
X155246Y233865D01*
X154438Y234200D01*
X153562D01*
X153562Y234200D01*
X153555Y234197D01*
X152754Y233865D01*
X152135Y233246D01*
X151800Y232438D01*
Y231562D01*
X152135Y230754D01*
X152754Y230135D01*
X153555Y229803D01*
X153562Y229800D01*
X153562Y229800D01*
X154438D01*
X155246Y230135D01*
X156000Y230660D01*
X156754Y230135D01*
X157562Y229800D01*
X158438D01*
X158438Y229800D01*
X158445Y229803D01*
X159246Y230135D01*
X159865Y230754D01*
X160200Y231562D01*
Y232438D01*
X159865Y233246D01*
X159246Y233865D01*
X158445Y234197D01*
X158438Y234200D01*
D02*
G37*
G36*
X141438Y225200D02*
X140562D01*
X139754Y224865D01*
X139135Y224246D01*
X138800Y223438D01*
Y222562D01*
X139135Y221754D01*
X139754Y221135D01*
X140562Y220800D01*
X141438D01*
X142246Y221135D01*
X142865Y221754D01*
X143200Y222562D01*
Y223438D01*
X142865Y224246D01*
X142246Y224865D01*
X141438Y225200D01*
D02*
G37*
G36*
X117438D02*
X116562D01*
X115754Y224865D01*
X115135Y224246D01*
X114800Y223438D01*
Y222562D01*
X115135Y221754D01*
X115754Y221135D01*
X116562Y220800D01*
X117438D01*
X118246Y221135D01*
X118865Y221754D01*
X119200Y222562D01*
Y223438D01*
X118865Y224246D01*
X118246Y224865D01*
X117438Y225200D01*
D02*
G37*
G36*
X154919Y222863D02*
X154043D01*
X153235Y222528D01*
X152616Y221909D01*
X152281Y221100D01*
Y220225D01*
X152616Y219416D01*
X153235Y218797D01*
X154043Y218463D01*
X154919D01*
X155727Y218797D01*
X156346Y219416D01*
X156681Y220225D01*
Y221100D01*
X156346Y221909D01*
X155727Y222528D01*
X154919Y222863D01*
D02*
G37*
G36*
X188438Y208200D02*
X187562D01*
X186754Y207865D01*
X186135Y207246D01*
X185800Y206438D01*
Y205562D01*
X186135Y204754D01*
X186754Y204135D01*
X187562Y203800D01*
X188438D01*
X189246Y204135D01*
X189865Y204754D01*
X190200Y205562D01*
Y206438D01*
X189865Y207246D01*
X189246Y207865D01*
X188438Y208200D01*
D02*
G37*
G36*
X226000Y204391D02*
Y201000D01*
X229391D01*
X229193Y201737D01*
X228601Y202763D01*
X227763Y203601D01*
X226737Y204193D01*
X226000Y204391D01*
D02*
G37*
G36*
X224000D02*
X223263Y204193D01*
X222237Y203601D01*
X221399Y202763D01*
X220807Y201737D01*
X220609Y201000D01*
X224000D01*
Y204391D01*
D02*
G37*
G36*
X167438Y205200D02*
X166562D01*
X165754Y204865D01*
X165135Y204246D01*
X164800Y203438D01*
Y202562D01*
X165135Y201754D01*
X165754Y201135D01*
X166562Y200800D01*
X167438D01*
X168246Y201135D01*
X168865Y201754D01*
X169200Y202562D01*
Y203438D01*
X168865Y204246D01*
X168246Y204865D01*
X167438Y205200D01*
D02*
G37*
G36*
X96062Y194519D02*
X95557Y194309D01*
X95557D01*
X95165Y194176D01*
X94000Y194077D01*
X92835Y194176D01*
X92443Y194309D01*
X92443D01*
X91938Y194519D01*
X91938Y194519D01*
X91062Y194519D01*
X89932Y194273D01*
X89421Y194244D01*
X88603Y194275D01*
X87164Y194436D01*
X86938Y194519D01*
X86062Y194519D01*
X86062Y194519D01*
X85557Y194309D01*
X85557D01*
X85165Y194176D01*
X84000Y194077D01*
X82835Y194176D01*
X82443Y194309D01*
X81938Y194519D01*
X81062D01*
X80254Y194184D01*
X79635Y193565D01*
X79300Y192756D01*
Y191881D01*
X79635Y191073D01*
X80092Y190616D01*
X80254Y190454D01*
X80254D01*
X81062Y190119D01*
X81063Y190119D01*
X81938Y190119D01*
X83068Y190364D01*
X83579Y190394D01*
X84397Y190363D01*
X85836Y190202D01*
X86062Y190119D01*
X86938Y190119D01*
X86938Y190119D01*
X87443Y190328D01*
X87443D01*
X87835Y190461D01*
X89000Y190561D01*
X90165Y190461D01*
X90557Y190328D01*
X90557D01*
X91062Y190119D01*
X91062Y190119D01*
X91938Y190119D01*
X93068Y190364D01*
X93579Y190394D01*
X94397Y190363D01*
X95836Y190202D01*
X96062Y190119D01*
X96938Y190119D01*
X96938Y190119D01*
X97443Y190328D01*
X97443D01*
X97835Y190461D01*
X99000Y190561D01*
X100165Y190461D01*
X100557Y190328D01*
X101062Y190119D01*
X101938D01*
X102443Y190328D01*
X102835Y190461D01*
X104000Y190561D01*
X105165Y190461D01*
X105557Y190328D01*
X106062Y190119D01*
X106938D01*
X107746Y190454D01*
X108365Y191073D01*
X108700Y191881D01*
Y192756D01*
X108365Y193565D01*
X107746Y194184D01*
X106938Y194519D01*
X106062D01*
X105557Y194309D01*
X105165Y194176D01*
X104000Y194077D01*
X102835Y194176D01*
X102443Y194309D01*
X102443D01*
X101938Y194519D01*
X101937Y194519D01*
X101062Y194519D01*
X99932Y194273D01*
X99421Y194244D01*
X98603Y194275D01*
X97164Y194436D01*
X96938Y194519D01*
X96062Y194519D01*
X96062Y194519D01*
D02*
G37*
G36*
X37938Y194322D02*
X37062D01*
X36254Y193987D01*
X35635Y193368D01*
X35300Y192560D01*
Y191684D01*
X35635Y190876D01*
X36254Y190257D01*
X37062Y189922D01*
X37938D01*
X38746Y190257D01*
X39365Y190876D01*
X39700Y191684D01*
Y192560D01*
X39365Y193368D01*
X38746Y193987D01*
X37938Y194322D01*
D02*
G37*
G36*
X52062Y194322D02*
X51254Y193987D01*
X50635Y193368D01*
X50300Y192560D01*
Y191684D01*
X50635Y190876D01*
X51091Y190419D01*
X51254Y190257D01*
X51254D01*
X52062Y189922D01*
X52062Y189922D01*
X52938Y189922D01*
X54068Y190167D01*
X54579Y190197D01*
X55397Y190166D01*
X56836Y190005D01*
X57062Y189922D01*
X57938Y189922D01*
X57938Y189922D01*
X58746Y190257D01*
X59365Y190876D01*
X59700Y191684D01*
Y192560D01*
X59365Y193368D01*
X58908Y193825D01*
X58746Y193987D01*
X58746D01*
X57938Y194322D01*
X57938Y194322D01*
X57062Y194322D01*
X55932Y194077D01*
X55421Y194047D01*
X54603Y194078D01*
X53164Y194239D01*
X52938Y194322D01*
X52062Y194322D01*
X52062Y194322D01*
D02*
G37*
G36*
X190438Y190200D02*
X189562D01*
X188754Y189865D01*
X188135Y189246D01*
X187800Y188438D01*
Y187562D01*
X188135Y186754D01*
X188754Y186135D01*
X189562Y185800D01*
X190438D01*
X191246Y186135D01*
X191865Y186754D01*
X192200Y187562D01*
Y188438D01*
X191865Y189246D01*
X191246Y189865D01*
X190438Y190200D01*
D02*
G37*
G36*
X229391Y199000D02*
X225000D01*
X220609D01*
X220807Y198263D01*
X221399Y197237D01*
X222237Y196399D01*
X222253Y196390D01*
Y193610D01*
X222237Y193601D01*
X221399Y192763D01*
X220807Y191737D01*
X220500Y190592D01*
Y189408D01*
X220807Y188263D01*
X221399Y187237D01*
X222237Y186399D01*
X222253Y186390D01*
Y183610D01*
X222237Y183601D01*
X221399Y182763D01*
X220807Y181737D01*
X220609Y181000D01*
X225000D01*
X229391D01*
X229193Y181737D01*
X228601Y182763D01*
X227763Y183601D01*
X227747Y183610D01*
Y186390D01*
X227763Y186399D01*
X228601Y187237D01*
X229193Y188263D01*
X229500Y189408D01*
Y190592D01*
X229193Y191737D01*
X228601Y192763D01*
X227763Y193601D01*
X227747Y193610D01*
Y196390D01*
X227763Y196399D01*
X228601Y197237D01*
X229193Y198263D01*
X229391Y199000D01*
D02*
G37*
G36*
X105438Y245200D02*
X104562D01*
X103754Y244865D01*
X103135Y244246D01*
X102800Y243438D01*
Y242562D01*
X103135Y241754D01*
X103471Y241418D01*
Y210000D01*
X103587Y209415D01*
X103919Y208919D01*
X129800Y183037D01*
Y182562D01*
X130135Y181754D01*
X129547Y180949D01*
X127246Y180865D01*
X126438Y181200D01*
X125562D01*
X125562Y181200D01*
X125557Y181198D01*
X124754Y180865D01*
X124754D01*
X124748Y180860D01*
X124135Y180246D01*
X123803Y179445D01*
X123800Y179438D01*
X123800Y179438D01*
Y178562D01*
X124135Y177754D01*
X124748Y177140D01*
X124754Y177135D01*
X124754D01*
X124761Y177132D01*
X125562Y176800D01*
X126438D01*
X127246Y177135D01*
X127246D01*
X129136Y175586D01*
X129213Y175469D01*
X128754Y172865D01*
X128135Y172246D01*
X127800Y171438D01*
Y170562D01*
X128009Y170057D01*
X128142Y169665D01*
X128242Y168500D01*
X128142Y167335D01*
X128009Y166943D01*
X127800Y166438D01*
Y165562D01*
X128009Y165057D01*
X128142Y164665D01*
X128242Y163500D01*
X128142Y162335D01*
X128009Y161943D01*
X127800Y161438D01*
Y160562D01*
X128135Y159754D01*
X128754Y159135D01*
X129562Y158800D01*
X130438Y158800D01*
X130980Y158344D01*
X131109Y155101D01*
X120538Y144529D01*
X41000D01*
X40415Y144413D01*
X39919Y144081D01*
X23919Y128081D01*
X23587Y127585D01*
X23471Y127000D01*
Y115592D01*
X22885Y115475D01*
X21566Y114929D01*
X20378Y114135D01*
X19369Y113126D01*
X18575Y111938D01*
X18029Y110619D01*
X17750Y109218D01*
Y107790D01*
X18029Y106389D01*
X18575Y105070D01*
X19369Y103882D01*
X20378Y102873D01*
X21566Y102079D01*
X22885Y101532D01*
X24286Y101254D01*
X25714D01*
X27115Y101532D01*
X28434Y102079D01*
X29622Y102873D01*
X30631Y103882D01*
X31425Y105070D01*
X31971Y106389D01*
X32250Y107790D01*
Y109218D01*
X31971Y110619D01*
X31425Y111938D01*
X30631Y113126D01*
X29622Y114135D01*
X28434Y114929D01*
X27115Y115475D01*
X26529Y115592D01*
Y126366D01*
X36303Y136140D01*
X38790Y135164D01*
X38884Y134101D01*
X36995Y132200D01*
X36562D01*
X35754Y131865D01*
X35135Y131246D01*
X34800Y130438D01*
Y129562D01*
X35135Y128754D01*
X35754Y128135D01*
X36562Y127800D01*
X37438Y127800D01*
X39471Y126093D01*
Y88130D01*
X28930Y77589D01*
X28434Y77921D01*
X27115Y78467D01*
X25714Y78746D01*
X24286D01*
X22885Y78467D01*
X21566Y77921D01*
X20378Y77127D01*
X19369Y76118D01*
X18575Y74930D01*
X18029Y73611D01*
X17750Y72210D01*
Y70782D01*
X18029Y69381D01*
X18575Y68062D01*
X19369Y66874D01*
X20378Y65865D01*
X21566Y65071D01*
X22885Y64525D01*
X24286Y64246D01*
X25714D01*
X27115Y64525D01*
X28434Y65071D01*
X29622Y65865D01*
X30631Y66874D01*
X31425Y68062D01*
X31971Y69381D01*
X32250Y70782D01*
Y72210D01*
X31971Y73611D01*
X31425Y74930D01*
X31093Y75427D01*
X42081Y86415D01*
X42413Y86911D01*
X42529Y87496D01*
Y126093D01*
X44562Y127800D01*
X45438Y127800D01*
X46246Y128135D01*
X46865Y128754D01*
X47200Y129562D01*
Y130438D01*
X46865Y131246D01*
X46246Y131865D01*
X45438Y132200D01*
X44562Y132200D01*
X42529Y133907D01*
Y137185D01*
X43815Y138471D01*
X123000D01*
X123585Y138587D01*
X124081Y138919D01*
X127971Y142808D01*
X130471Y141772D01*
Y109634D01*
X123919Y103081D01*
X123587Y102585D01*
X123471Y102000D01*
Y75447D01*
X122606Y74663D01*
X120971Y73832D01*
X120520Y73953D01*
X119480D01*
X118474Y73683D01*
X117573Y73163D01*
X116837Y72427D01*
X116317Y71526D01*
X116294Y71442D01*
X113706D01*
X113683Y71526D01*
X113163Y72427D01*
X112427Y73163D01*
X111526Y73683D01*
X110520Y73953D01*
X109480D01*
X108474Y73683D01*
X107573Y73163D01*
X106837Y72427D01*
X106317Y71526D01*
X106294Y71442D01*
X103706D01*
X103683Y71526D01*
X103163Y72427D01*
X102427Y73163D01*
X101526Y73683D01*
X100520Y73953D01*
X99480D01*
X98474Y73683D01*
X97573Y73163D01*
X96837Y72427D01*
X94277Y72929D01*
X93953Y73129D01*
Y73953D01*
X86047D01*
Y66047D01*
X93953D01*
Y66870D01*
X94277Y67071D01*
X96837Y67573D01*
X97573Y66837D01*
X98474Y66317D01*
X99480Y66047D01*
X100520D01*
X101526Y66317D01*
X102427Y66837D01*
X103163Y67573D01*
X103683Y68474D01*
X103706Y68558D01*
X106294D01*
X106317Y68474D01*
X106837Y67573D01*
X107573Y66837D01*
X108474Y66317D01*
X109480Y66047D01*
X110520D01*
X111526Y66317D01*
X112427Y66837D01*
X113163Y67573D01*
X113683Y68474D01*
X113706Y68558D01*
X116294D01*
X116317Y68474D01*
X116837Y67573D01*
X117573Y66837D01*
X118474Y66317D01*
X119480Y66047D01*
X120520D01*
X120971Y66168D01*
X122606Y65337D01*
X123471Y64553D01*
Y46633D01*
X122366Y45529D01*
X80582D01*
X80246Y45865D01*
X79438Y46200D01*
X78562D01*
X77754Y45865D01*
X77135Y45246D01*
X76800Y44438D01*
Y43562D01*
X77135Y42754D01*
X77754Y42135D01*
X78562Y41800D01*
X79438D01*
X80246Y42135D01*
X80582Y42471D01*
X96824D01*
X97550Y41238D01*
X98021Y39971D01*
X97800Y39438D01*
Y38562D01*
X98135Y37754D01*
X98754Y37135D01*
X99562Y36800D01*
X100438D01*
X101246Y37135D01*
X101865Y37754D01*
X102200Y38562D01*
Y39438D01*
X101979Y39971D01*
X102450Y41238D01*
X103176Y42471D01*
X123000D01*
X123585Y42587D01*
X124081Y42919D01*
X126081Y44919D01*
X126413Y45415D01*
X126529Y46000D01*
Y64553D01*
X127394Y65337D01*
X129029Y66168D01*
X129480Y66047D01*
X130520D01*
X131526Y66317D01*
X133840Y65202D01*
X134018Y64996D01*
Y45453D01*
X134134Y44868D01*
X134466Y44371D01*
X134800Y44037D01*
Y43562D01*
X135135Y42754D01*
X135754Y42135D01*
X136562Y41800D01*
X137438D01*
X138246Y42135D01*
X138865Y42754D01*
X139200Y43562D01*
Y44438D01*
X138865Y45246D01*
X138246Y45865D01*
X137438Y46200D01*
X137077D01*
Y64237D01*
X137365Y64666D01*
X139480Y66047D01*
X140520D01*
X140971Y66168D01*
X142606Y65337D01*
X143471Y64553D01*
Y46000D01*
X143587Y45415D01*
X143919Y44919D01*
X145919Y42919D01*
X146415Y42587D01*
X147000Y42471D01*
X154824D01*
X155551Y41238D01*
X156021Y39971D01*
X155800Y39438D01*
Y38562D01*
X156132Y37761D01*
X156135Y37754D01*
X156135Y37754D01*
X156748Y37140D01*
X156754Y37135D01*
X156754D01*
X157562Y36800D01*
X157562Y36800D01*
X158438D01*
X158438Y36800D01*
X158445Y36803D01*
X159239Y37132D01*
X159246Y37135D01*
X159246Y37135D01*
X159252Y37140D01*
X159865Y37754D01*
X160200Y38562D01*
Y39438D01*
X160200Y39438D01*
X160198Y39443D01*
X159979Y39971D01*
X160450Y41238D01*
X161176Y42471D01*
X177418D01*
X177754Y42135D01*
X178562Y41800D01*
X179438D01*
X180246Y42135D01*
X180865Y42754D01*
X181200Y43562D01*
Y44438D01*
X180865Y45246D01*
X180246Y45865D01*
X179438Y46200D01*
X178562D01*
X177754Y45865D01*
X177418Y45529D01*
X147634D01*
X146529Y46633D01*
Y64553D01*
X147394Y65337D01*
X149029Y66168D01*
X149480Y66047D01*
X150520D01*
X151526Y66317D01*
X152427Y66837D01*
X153163Y67573D01*
X153683Y68474D01*
X153706Y68558D01*
X156294D01*
X156317Y68474D01*
X156837Y67573D01*
X157573Y66837D01*
X158474Y66317D01*
X159480Y66047D01*
X160520D01*
X161526Y66317D01*
X162427Y66837D01*
X163163Y67573D01*
X163683Y68474D01*
X163953Y69480D01*
Y70520D01*
X163683Y71526D01*
X163163Y72427D01*
X162427Y73163D01*
X161526Y73683D01*
X160520Y73953D01*
X159480D01*
X158474Y73683D01*
X157573Y73163D01*
X156837Y72427D01*
X156317Y71526D01*
X156294Y71442D01*
X153706D01*
X153683Y71526D01*
X153163Y72427D01*
X152427Y73163D01*
X151526Y73683D01*
X150520Y73953D01*
X149480D01*
X149029Y73832D01*
X147394Y74663D01*
X146529Y75447D01*
Y146367D01*
X154081Y153919D01*
X154413Y154415D01*
X154529Y155000D01*
Y156824D01*
X155762Y157551D01*
X157029Y158021D01*
X157555Y157803D01*
X157562Y157800D01*
X157562Y157800D01*
X158438D01*
X159246Y158135D01*
X160000Y158660D01*
X160754Y158135D01*
X161562Y157800D01*
X162438D01*
X162438Y157800D01*
X162445Y157803D01*
X163246Y158135D01*
X163865Y158754D01*
X164200Y159562D01*
Y160438D01*
X163865Y161246D01*
X163246Y161865D01*
X162445Y162197D01*
X162438Y162200D01*
X162438Y162200D01*
X161562D01*
X160754Y161865D01*
X160000Y161340D01*
X159246Y161865D01*
X158438Y162200D01*
X157562D01*
X157562Y162200D01*
X157555Y162197D01*
X157029Y161979D01*
X155762Y162450D01*
X154529Y163176D01*
Y166418D01*
X154865Y166754D01*
X155197Y167555D01*
X155200Y167562D01*
X155200Y167562D01*
Y168438D01*
X154865Y169246D01*
X154340Y170000D01*
X154865Y170754D01*
X155200Y171562D01*
X155476Y172524D01*
X156438Y172823D01*
X157246Y173158D01*
X157865Y173777D01*
X158200Y174585D01*
Y175460D01*
X157999Y175947D01*
X157859Y176354D01*
X157771Y177511D01*
X157859Y178669D01*
X157999Y179076D01*
X158200Y179562D01*
Y180438D01*
X157865Y181246D01*
X157246Y181865D01*
X156438Y182200D01*
X155562D01*
X154754Y181865D01*
X154135Y181246D01*
X153800Y180438D01*
Y179562D01*
X154001Y179076D01*
X154141Y178669D01*
X154229Y177511D01*
X154141Y176354D01*
X154001Y175947D01*
X153800Y175460D01*
X153524Y174499D01*
X152562Y174200D01*
X151754Y173865D01*
X151418Y173529D01*
X148510D01*
X147597Y173542D01*
X146385Y174735D01*
X146034Y176231D01*
X145955Y176859D01*
X145937Y177134D01*
X145955Y177432D01*
X146200Y178562D01*
X146200Y178562D01*
Y179438D01*
X146200Y179438D01*
X146104Y179699D01*
X145953Y181159D01*
X145937Y181580D01*
X145965Y182490D01*
X146200Y183562D01*
X146200Y184438D01*
X146200Y184438D01*
X145865Y185246D01*
Y185246D01*
X145246Y185865D01*
X144438Y186200D01*
X143562D01*
X142754Y185865D01*
X142297Y185408D01*
X142135Y185246D01*
Y185246D01*
X141800Y184438D01*
X141800Y184438D01*
X141800Y183562D01*
X142045Y182432D01*
X142075Y181921D01*
X142044Y181103D01*
X141883Y179664D01*
X141800Y179438D01*
X141800Y178562D01*
X141800Y178562D01*
X142009Y178057D01*
Y178057D01*
X142142Y177665D01*
X142242Y176500D01*
X142142Y175335D01*
X142009Y174943D01*
X141800Y174438D01*
Y173963D01*
X138029Y170192D01*
X135529Y171228D01*
Y175000D01*
X135413Y175585D01*
X135081Y176081D01*
X134200Y176963D01*
Y177438D01*
X133865Y178246D01*
X133555Y178557D01*
X133382Y180000D01*
X133555Y181443D01*
X133860Y181748D01*
X133865Y181754D01*
Y181754D01*
X134197Y182555D01*
X134200Y182562D01*
X134200Y182562D01*
Y183438D01*
X133865Y184246D01*
Y184246D01*
X133861Y184251D01*
X133246Y184865D01*
X133246Y184865D01*
X133239Y184868D01*
X132438Y185200D01*
X131963D01*
X106529Y210633D01*
Y227093D01*
X108562Y228800D01*
X109438Y228800D01*
X110246Y229135D01*
X110865Y229754D01*
X111200Y230562D01*
Y231438D01*
X110865Y232246D01*
X110246Y232865D01*
X109438Y233200D01*
X108562Y233200D01*
X106529Y234907D01*
Y241418D01*
X106865Y241754D01*
X107200Y242562D01*
Y243438D01*
X106865Y244246D01*
X106246Y244865D01*
X105438Y245200D01*
D02*
G37*
G36*
X62938Y182322D02*
X62062D01*
X61254Y181987D01*
X60635Y181368D01*
X60300Y180560D01*
Y179684D01*
X60635Y178876D01*
X61254Y178257D01*
X62062Y177922D01*
X62938D01*
X63746Y178257D01*
X64365Y178876D01*
X64700Y179684D01*
Y180560D01*
X64365Y181368D01*
X63746Y181987D01*
X62938Y182322D01*
D02*
G37*
G36*
X42938D02*
X42062D01*
X41254Y181987D01*
X40635Y181368D01*
X40300Y180560D01*
Y179684D01*
X40635Y178876D01*
X41254Y178257D01*
X42062Y177922D01*
X42938D01*
X43746Y178257D01*
X44365Y178876D01*
X44700Y179684D01*
Y180560D01*
X44365Y181368D01*
X43746Y181987D01*
X42938Y182322D01*
D02*
G37*
G36*
X172362Y188000D02*
X171638D01*
X170939Y187813D01*
X170311Y187451D01*
X169799Y186939D01*
X169437Y186311D01*
X169250Y185612D01*
Y184888D01*
X169437Y184188D01*
X169799Y183562D01*
X170270Y183000D01*
X169799Y182439D01*
X169437Y181811D01*
X169250Y181112D01*
Y180388D01*
X169437Y179689D01*
X169587Y179430D01*
X168857Y178013D01*
X168125Y177200D01*
X167562Y177200D01*
X166754Y176865D01*
X166135Y176246D01*
X165800Y175438D01*
Y174562D01*
X166132Y173761D01*
X166135Y173754D01*
X166135Y173754D01*
X166754Y173135D01*
X167562Y172800D01*
X167562Y172800D01*
X168438D01*
X168438Y172800D01*
X168445Y172803D01*
X169239Y173132D01*
X169246Y173135D01*
X169246Y173135D01*
X169865Y173754D01*
X170200Y174562D01*
Y175438D01*
X170200Y175438D01*
X170198Y175443D01*
X169973Y175985D01*
X170079Y176225D01*
X170490Y176864D01*
X171639Y178000D01*
X172362D01*
X173062Y178187D01*
X173688Y178550D01*
X174200Y179061D01*
X174563Y179689D01*
X174750Y180388D01*
Y181112D01*
X174563Y181811D01*
X174200Y182439D01*
X173730Y183000D01*
X174201Y183562D01*
X174563Y184188D01*
X174750Y184888D01*
Y185612D01*
X174563Y186311D01*
X174200Y186939D01*
X173688Y187451D01*
X173062Y187813D01*
X172362Y188000D01*
D02*
G37*
G36*
X86938Y171881D02*
X86062D01*
X85557Y171672D01*
X85165Y171539D01*
X84000Y171439D01*
X82835Y171539D01*
X82443Y171672D01*
X81938Y171881D01*
X81062D01*
X80254Y171546D01*
X79635Y170927D01*
X79300Y170119D01*
Y169244D01*
X79635Y168435D01*
X80092Y167978D01*
X80254Y167816D01*
X80254D01*
X81062Y167481D01*
X81063Y167481D01*
X81938Y167481D01*
X83068Y167727D01*
X83579Y167756D01*
X84397Y167725D01*
X85836Y167564D01*
X86062Y167481D01*
X86938Y167481D01*
X86938Y167481D01*
X87746Y167816D01*
X88365Y168435D01*
X88700Y169244D01*
Y170119D01*
X88365Y170927D01*
X87746Y171546D01*
X86938Y171881D01*
D02*
G37*
G36*
X18438Y173200D02*
X17562D01*
X16754Y172865D01*
X16135Y172246D01*
X15800Y171438D01*
Y170562D01*
X16135Y169754D01*
X16754Y169135D01*
X17562Y168800D01*
X18438D01*
X19246Y169135D01*
X19865Y169754D01*
X20200Y170562D01*
Y171438D01*
X19865Y172246D01*
X19246Y172865D01*
X18438Y173200D01*
D02*
G37*
G36*
X229391Y179000D02*
X225000D01*
X220609D01*
X220807Y178263D01*
X221399Y177237D01*
X222237Y176399D01*
X222253Y176390D01*
Y173610D01*
X222237Y173601D01*
X221399Y172763D01*
X220807Y171737D01*
X220500Y170592D01*
Y169408D01*
X220807Y168263D01*
X221399Y167237D01*
X222237Y166399D01*
X222253Y166390D01*
Y163610D01*
X222237Y163601D01*
X221399Y162763D01*
X220807Y161737D01*
X220609Y161000D01*
X225000D01*
X229391D01*
X229193Y161737D01*
X228601Y162763D01*
X227763Y163601D01*
X227747Y163610D01*
Y166390D01*
X227763Y166399D01*
X228601Y167237D01*
X229193Y168263D01*
X229500Y169408D01*
Y170592D01*
X229193Y171737D01*
X228601Y172763D01*
X227763Y173601D01*
X227747Y173610D01*
Y176390D01*
X227763Y176399D01*
X228601Y177237D01*
X229193Y178263D01*
X229391Y179000D01*
D02*
G37*
G36*
X101562Y160200D02*
X101099Y160008D01*
X100362Y159908D01*
X99931Y159857D01*
X98370Y159857D01*
X97438Y160200D01*
X96562Y160200D01*
X96562Y160200D01*
X96099Y160008D01*
X95362Y159908D01*
X94931Y159857D01*
X93370Y159857D01*
X92438Y160200D01*
X91562Y160200D01*
X91562Y160200D01*
X90754Y159865D01*
X90135Y159246D01*
X89800Y158438D01*
Y157562D01*
X90135Y156754D01*
X90754Y156135D01*
X91562Y155800D01*
X92438D01*
X92943Y156009D01*
X93335Y156142D01*
X94500Y156242D01*
X95665Y156142D01*
X96057Y156009D01*
X96562Y155800D01*
X97438D01*
X97943Y156009D01*
X98335Y156142D01*
X99500Y156242D01*
X100665Y156142D01*
X101057Y156009D01*
X101562Y155800D01*
X102438D01*
X102943Y156009D01*
X103335Y156142D01*
X104500Y156242D01*
X105665Y156142D01*
X106057Y156009D01*
X106562Y155800D01*
X107438D01*
X108246Y156135D01*
X108865Y156754D01*
X109200Y157562D01*
Y158438D01*
X108865Y159246D01*
X108408Y159703D01*
X108246Y159865D01*
X108246D01*
X107438Y160200D01*
X107438Y160200D01*
X106562Y160200D01*
X105432Y159955D01*
X104921Y159925D01*
X104103Y159956D01*
X102664Y160117D01*
X102438Y160200D01*
X101562Y160200D01*
X101562Y160200D01*
D02*
G37*
G36*
X190438Y164200D02*
X189562D01*
X188754Y163865D01*
X188135Y163246D01*
X187800Y162438D01*
Y161562D01*
X188135Y160754D01*
X188754Y160135D01*
X189562Y159800D01*
X190438D01*
X191246Y160135D01*
X191865Y160754D01*
X192200Y161562D01*
Y162438D01*
X191865Y163246D01*
X191246Y163865D01*
X190438Y164200D01*
D02*
G37*
G36*
X43438Y160200D02*
X42562D01*
X42057Y159991D01*
X41665Y159857D01*
X40500Y159758D01*
X39335Y159857D01*
X38943Y159991D01*
X38438Y160200D01*
X37562D01*
X37057Y159991D01*
X36665Y159857D01*
X35500Y159758D01*
X34335Y159857D01*
X33943Y159991D01*
X33438Y160200D01*
X32562D01*
X31754Y159865D01*
X31135Y159246D01*
X30800Y158438D01*
Y157562D01*
X31135Y156754D01*
X31591Y156297D01*
X31754Y156135D01*
X31754D01*
X32562Y155800D01*
X32563Y155800D01*
X33438Y155800D01*
X34568Y156045D01*
X35080Y156075D01*
X35897Y156044D01*
X37336Y155883D01*
X37562Y155800D01*
X38438Y155800D01*
X38438Y155800D01*
X38943Y156009D01*
X38943D01*
X39335Y156142D01*
X40500Y156242D01*
X41665Y156142D01*
X42057Y156009D01*
X42562Y155800D01*
X43438D01*
X43704Y155910D01*
X45477Y154665D01*
X45800Y154279D01*
X45800Y154085D01*
Y153562D01*
X46135Y152754D01*
X46754Y152135D01*
X47562Y151800D01*
X48438D01*
X48943Y152009D01*
X49335Y152143D01*
X50500Y152242D01*
X51665Y152143D01*
X52057Y152009D01*
X52562Y151800D01*
X53438D01*
X53704Y151910D01*
X55477Y150665D01*
X55800Y150278D01*
X55800Y150085D01*
Y149562D01*
X56135Y148754D01*
X56754Y148135D01*
X57562Y147800D01*
X58438D01*
X59246Y148135D01*
X59865Y148754D01*
X60200Y149562D01*
Y150438D01*
X59865Y151246D01*
X59246Y151865D01*
X58438Y152200D01*
X57562D01*
X57296Y152090D01*
X55523Y153335D01*
X55200Y153721D01*
X55200Y153915D01*
Y154438D01*
X54865Y155246D01*
X54246Y155865D01*
X53438Y156200D01*
X52562D01*
X52057Y155991D01*
X51665Y155858D01*
X50500Y155758D01*
X49335Y155858D01*
X48943Y155991D01*
X48438Y156200D01*
X47562D01*
X47296Y156090D01*
X45523Y157335D01*
X45200Y157721D01*
X45200Y157915D01*
Y158438D01*
X44865Y159246D01*
X44246Y159865D01*
X43438Y160200D01*
D02*
G37*
G36*
X65438D02*
X64562D01*
X63754Y159865D01*
X63135Y159246D01*
X62800Y158438D01*
Y157562D01*
X63135Y156754D01*
X63754Y156135D01*
X64562Y155800D01*
X65438D01*
X66246Y156135D01*
X66865Y156754D01*
X67200Y157562D01*
Y158438D01*
X66865Y159246D01*
X66246Y159865D01*
X65438Y160200D01*
D02*
G37*
G36*
X229391Y159000D02*
X225000D01*
X220609D01*
X220807Y158263D01*
X221399Y157237D01*
X221636Y157000D01*
X220789Y154508D01*
X220783Y154500D01*
X220500D01*
Y145500D01*
X229500D01*
Y154500D01*
X229217D01*
X229211Y154508D01*
X228364Y157000D01*
X228601Y157237D01*
X229193Y158263D01*
X229391Y159000D01*
D02*
G37*
G36*
X188438Y146200D02*
X187562D01*
X186754Y145865D01*
X186135Y145246D01*
X185800Y144438D01*
Y143562D01*
X186135Y142754D01*
X186754Y142135D01*
X187562Y141800D01*
X188438D01*
X189246Y142135D01*
X189865Y142754D01*
X190200Y143562D01*
Y144438D01*
X189865Y145246D01*
X189246Y145865D01*
X188438Y146200D01*
D02*
G37*
G36*
X197438Y135200D02*
X197438Y135200D01*
X196562D01*
X195754Y134865D01*
X195000Y134340D01*
X194246Y134865D01*
X193438Y135200D01*
X192562D01*
X192562Y135200D01*
X192555Y135197D01*
X191754Y134865D01*
X191135Y134246D01*
X190800Y133438D01*
Y132562D01*
X191135Y131754D01*
X191754Y131135D01*
X192555Y130803D01*
X192562Y130800D01*
X192562Y130800D01*
X193438D01*
X194246Y131135D01*
X195000Y131660D01*
X195754Y131135D01*
X196562Y130800D01*
X197438D01*
X197438Y130800D01*
X197445Y130803D01*
X198246Y131135D01*
X198865Y131754D01*
X199200Y132562D01*
Y133438D01*
X198865Y134246D01*
X198246Y134865D01*
X197445Y135197D01*
X197438Y135200D01*
D02*
G37*
G36*
X185438D02*
X185438Y135200D01*
X184562D01*
X183754Y134865D01*
X183000Y134340D01*
X182246Y134865D01*
X181445Y135197D01*
X181438Y135200D01*
X181438Y135200D01*
X180562D01*
X180562Y135200D01*
X180555Y135197D01*
X179754Y134865D01*
X179000Y134340D01*
X178246Y134865D01*
X177438Y135200D01*
X176562D01*
X176562Y135200D01*
X176555Y135197D01*
X175754Y134865D01*
X175135Y134246D01*
X174800Y133438D01*
Y132562D01*
X175135Y131754D01*
X175754Y131135D01*
X176555Y130803D01*
X176562Y130800D01*
X176562Y130800D01*
X177438D01*
X178246Y131135D01*
X179000Y131660D01*
X179754Y131135D01*
X180555Y130803D01*
X180562Y130800D01*
X180562Y130800D01*
X181438D01*
X181438Y130800D01*
X181445Y130803D01*
X182246Y131135D01*
X183000Y131660D01*
X183754Y131135D01*
X184562Y130800D01*
X185438D01*
X185438Y130800D01*
X185445Y130803D01*
X186246Y131135D01*
X186865Y131754D01*
X187200Y132562D01*
Y133438D01*
X186865Y134246D01*
X186246Y134865D01*
X185445Y135197D01*
X185438Y135200D01*
D02*
G37*
G36*
X169438D02*
X169438Y135200D01*
X168562D01*
X167754Y134865D01*
X167000Y134340D01*
X166246Y134865D01*
X165445Y135197D01*
X165438Y135200D01*
X165438Y135200D01*
X164562D01*
X164562Y135200D01*
X164555Y135197D01*
X163754Y134865D01*
X163000Y134340D01*
X162246Y134865D01*
X161438Y135200D01*
X160562D01*
X160562Y135200D01*
X160555Y135197D01*
X159754Y134865D01*
X159135Y134246D01*
X158800Y133438D01*
Y132562D01*
X159135Y131754D01*
X159754Y131135D01*
X160555Y130803D01*
X160562Y130800D01*
X160562Y130800D01*
X161438D01*
X162246Y131135D01*
X163000Y131660D01*
X163754Y131135D01*
X164555Y130803D01*
X164562Y130800D01*
X164562Y130800D01*
X165438D01*
X165438Y130800D01*
X165445Y130803D01*
X166246Y131135D01*
X167000Y131660D01*
X167754Y131135D01*
X168562Y130800D01*
X169438D01*
X169438Y130800D01*
X169445Y130803D01*
X170246Y131135D01*
X170865Y131754D01*
X171200Y132562D01*
Y133438D01*
X170865Y134246D01*
X170246Y134865D01*
X169445Y135197D01*
X169438Y135200D01*
D02*
G37*
G36*
X153438Y135200D02*
X152562D01*
X151754Y134865D01*
X151135Y134246D01*
X150800Y133438D01*
Y132562D01*
X151135Y131754D01*
X151754Y131135D01*
X152562Y130800D01*
X153438D01*
X154246Y131135D01*
X154865Y131754D01*
X155200Y132562D01*
Y133438D01*
X154865Y134246D01*
X154246Y134865D01*
X153438Y135200D01*
D02*
G37*
G36*
X125438Y132200D02*
X124562D01*
X123754Y131865D01*
X123135Y131246D01*
X122800Y130438D01*
Y129562D01*
X123135Y128754D01*
X123754Y128135D01*
X124562Y127800D01*
X125438D01*
X126246Y128135D01*
X126865Y128754D01*
X127200Y129562D01*
Y130438D01*
X126865Y131246D01*
X126246Y131865D01*
X125438Y132200D01*
D02*
G37*
G36*
X109438D02*
X108562D01*
X107754Y131865D01*
X107135Y131246D01*
X106800Y130438D01*
Y129562D01*
X107135Y128754D01*
X107754Y128135D01*
X108562Y127800D01*
X109438D01*
X110246Y128135D01*
X110865Y128754D01*
X111200Y129562D01*
Y130438D01*
X110865Y131246D01*
X110246Y131865D01*
X109438Y132200D01*
D02*
G37*
G36*
X93438D02*
X92562D01*
X91754Y131865D01*
X91135Y131246D01*
X90800Y130438D01*
Y129562D01*
X91135Y128754D01*
X91754Y128135D01*
X92562Y127800D01*
X93438D01*
X94246Y128135D01*
X94865Y128754D01*
X95200Y129562D01*
Y130438D01*
X94865Y131246D01*
X94246Y131865D01*
X93438Y132200D01*
D02*
G37*
G36*
X77438D02*
X76562D01*
X75754Y131865D01*
X75135Y131246D01*
X74800Y130438D01*
Y129562D01*
X75135Y128754D01*
X75754Y128135D01*
X76562Y127800D01*
X77438D01*
X78246Y128135D01*
X78865Y128754D01*
X79200Y129562D01*
Y130438D01*
X78865Y131246D01*
X78246Y131865D01*
X77438Y132200D01*
D02*
G37*
G36*
X61438D02*
X60562D01*
X59754Y131865D01*
X59135Y131246D01*
X58800Y130438D01*
Y129562D01*
X59135Y128754D01*
X59754Y128135D01*
X60562Y127800D01*
X61438D01*
X62246Y128135D01*
X62865Y128754D01*
X63200Y129562D01*
Y130438D01*
X62865Y131246D01*
X62246Y131865D01*
X61438Y132200D01*
D02*
G37*
G36*
X188438Y123200D02*
X187562D01*
X186754Y122865D01*
X186135Y122246D01*
X185800Y121438D01*
Y120562D01*
X186135Y119754D01*
X186754Y119135D01*
X187562Y118800D01*
X188438D01*
X189246Y119135D01*
X189865Y119754D01*
X190200Y120562D01*
Y121438D01*
X189865Y122246D01*
X189246Y122865D01*
X188438Y123200D01*
D02*
G37*
G36*
X172438D02*
X171562D01*
X170754Y122865D01*
X170135Y122246D01*
X169800Y121438D01*
Y120562D01*
X170135Y119754D01*
X170754Y119135D01*
X171562Y118800D01*
X172438D01*
X173246Y119135D01*
X173865Y119754D01*
X174200Y120562D01*
Y121438D01*
X173865Y122246D01*
X173246Y122865D01*
X172438Y123200D01*
D02*
G37*
G36*
X156438D02*
X155562D01*
X154754Y122865D01*
X154135Y122246D01*
X153800Y121438D01*
Y120562D01*
X154135Y119754D01*
X154754Y119135D01*
X155562Y118800D01*
X156438D01*
X157246Y119135D01*
X157865Y119754D01*
X158200Y120562D01*
Y121438D01*
X157865Y122246D01*
X157246Y122865D01*
X156438Y123200D01*
D02*
G37*
G36*
X69438Y122200D02*
X68562D01*
X67754Y121865D01*
X67135Y121246D01*
X66800Y120438D01*
Y119562D01*
X67135Y118754D01*
X67754Y118135D01*
X68562Y117800D01*
X69438D01*
X70246Y118135D01*
X70865Y118754D01*
X71200Y119562D01*
Y120438D01*
X70865Y121246D01*
X70246Y121865D01*
X69438Y122200D01*
D02*
G37*
G36*
X53438D02*
X52562D01*
X51754Y121865D01*
X51135Y121246D01*
X50800Y120438D01*
Y119562D01*
X51135Y118754D01*
X51754Y118135D01*
X52562Y117800D01*
X53438D01*
X54246Y118135D01*
X54865Y118754D01*
X55200Y119562D01*
Y120438D01*
X54865Y121246D01*
X54246Y121865D01*
X53438Y122200D01*
D02*
G37*
G36*
X120520Y113953D02*
X119480D01*
X118474Y113683D01*
X117573Y113163D01*
X116837Y112427D01*
X116317Y111526D01*
X116294Y111442D01*
X113706D01*
X113683Y111526D01*
X113163Y112427D01*
X112427Y113163D01*
X111526Y113683D01*
X110520Y113953D01*
X109480D01*
X108474Y113683D01*
X107573Y113163D01*
X106837Y112427D01*
X106317Y111526D01*
X106294Y111442D01*
X103706D01*
X103683Y111526D01*
X103163Y112427D01*
X102427Y113163D01*
X101526Y113683D01*
X100520Y113953D01*
X99480D01*
X98474Y113683D01*
X97573Y113163D01*
X96837Y112427D01*
X96317Y111526D01*
X96294Y111442D01*
X93706D01*
X93683Y111526D01*
X93163Y112427D01*
X92427Y113163D01*
X91526Y113683D01*
X90520Y113953D01*
X89480D01*
X88474Y113683D01*
X87573Y113163D01*
X86837Y112427D01*
X86317Y111526D01*
X86047Y110520D01*
Y109480D01*
X86317Y108474D01*
X86837Y107573D01*
X87573Y106837D01*
X88474Y106317D01*
X89480Y106047D01*
X90520D01*
X91526Y106317D01*
X92427Y106837D01*
X93163Y107573D01*
X93683Y108474D01*
X93706Y108558D01*
X96294D01*
X96317Y108474D01*
X96837Y107573D01*
X97573Y106837D01*
X98474Y106317D01*
X99480Y106047D01*
X100520D01*
X101526Y106317D01*
X102427Y106837D01*
X103163Y107573D01*
X103683Y108474D01*
X103706Y108558D01*
X106294D01*
X106317Y108474D01*
X106837Y107573D01*
X107573Y106837D01*
X108474Y106317D01*
X109480Y106047D01*
X110520D01*
X111526Y106317D01*
X112427Y106837D01*
X113163Y107573D01*
X113683Y108474D01*
X113706Y108558D01*
X116294D01*
X116317Y108474D01*
X116837Y107573D01*
X117573Y106837D01*
X118474Y106317D01*
X119480Y106047D01*
X120520D01*
X121526Y106317D01*
X122427Y106837D01*
X123163Y107573D01*
X123683Y108474D01*
X123953Y109480D01*
Y110520D01*
X123683Y111526D01*
X123163Y112427D01*
X122427Y113163D01*
X121526Y113683D01*
X120520Y113953D01*
D02*
G37*
G36*
X160520D02*
X159480D01*
X158474Y113683D01*
X157573Y113163D01*
X156837Y112427D01*
X156317Y111526D01*
X156047Y110520D01*
Y109480D01*
X156317Y108474D01*
X156837Y107573D01*
X157573Y106837D01*
X158474Y106317D01*
X159480Y106047D01*
X160520D01*
X161526Y106317D01*
X162427Y106837D01*
X163163Y107573D01*
X163683Y108474D01*
X163953Y109480D01*
Y110520D01*
X163683Y111526D01*
X163163Y112427D01*
X162427Y113163D01*
X161526Y113683D01*
X160520Y113953D01*
D02*
G37*
G36*
X229438Y109200D02*
X228562D01*
X227754Y108865D01*
X227135Y108246D01*
X226800Y107438D01*
Y106562D01*
X227135Y105754D01*
X227754Y105135D01*
X228562Y104800D01*
X229438D01*
X230246Y105135D01*
X230865Y105754D01*
X231200Y106562D01*
Y107438D01*
X230865Y108246D01*
X230246Y108865D01*
X229438Y109200D01*
D02*
G37*
G36*
X221438D02*
X220562D01*
X219754Y108865D01*
X219135Y108246D01*
X218800Y107438D01*
Y106562D01*
X219135Y105754D01*
X219754Y105135D01*
X220562Y104800D01*
X221438D01*
X222246Y105135D01*
X222865Y105754D01*
X223200Y106562D01*
Y107438D01*
X222865Y108246D01*
X222246Y108865D01*
X221438Y109200D01*
D02*
G37*
G36*
X26000Y97193D02*
Y91000D01*
X32193D01*
X31971Y92115D01*
X31425Y93434D01*
X30631Y94622D01*
X29622Y95631D01*
X28434Y96425D01*
X27115Y96971D01*
X26000Y97193D01*
D02*
G37*
G36*
X24000D02*
X22885Y96971D01*
X21566Y96425D01*
X20378Y95631D01*
X19369Y94622D01*
X18575Y93434D01*
X18029Y92115D01*
X17807Y91000D01*
X24000D01*
Y97193D01*
D02*
G37*
G36*
X32193Y89000D02*
X26000D01*
Y82807D01*
X27115Y83029D01*
X28434Y83575D01*
X29622Y84369D01*
X30631Y85378D01*
X31425Y86566D01*
X31971Y87885D01*
X32193Y89000D01*
D02*
G37*
G36*
X24000D02*
X17807D01*
X18029Y87885D01*
X18575Y86566D01*
X19369Y85378D01*
X20378Y84369D01*
X21566Y83575D01*
X22885Y83029D01*
X24000Y82807D01*
Y89000D01*
D02*
G37*
G36*
X229438Y75200D02*
X228562D01*
X227754Y74865D01*
X227135Y74246D01*
X226800Y73438D01*
Y72562D01*
X227135Y71754D01*
X227754Y71135D01*
X228562Y70800D01*
X229438D01*
X230246Y71135D01*
X230865Y71754D01*
X231200Y72562D01*
Y73438D01*
X230865Y74246D01*
X230246Y74865D01*
X229438Y75200D01*
D02*
G37*
G36*
X221438D02*
X220562D01*
X219754Y74865D01*
X219135Y74246D01*
X218800Y73438D01*
Y72562D01*
X219135Y71754D01*
X219754Y71135D01*
X220562Y70800D01*
X221438D01*
X222246Y71135D01*
X222865Y71754D01*
X223200Y72562D01*
Y73438D01*
X222865Y74246D01*
X222246Y74865D01*
X221438Y75200D01*
D02*
G37*
G36*
X37438Y52200D02*
X36562D01*
X35754Y51865D01*
X35135Y51246D01*
X34800Y50438D01*
Y49562D01*
X35135Y48754D01*
X35754Y48135D01*
X36562Y47800D01*
X37438D01*
X38246Y48135D01*
X38865Y48754D01*
X39200Y49562D01*
Y50438D01*
X38865Y51246D01*
X38246Y51865D01*
X37438Y52200D01*
D02*
G37*
G36*
X58438Y41200D02*
X57562D01*
X56754Y40865D01*
X56135Y40246D01*
X55800Y39438D01*
Y38562D01*
X56135Y37754D01*
X56754Y37135D01*
X57562Y36800D01*
X58438D01*
X59246Y37135D01*
X59865Y37754D01*
X60200Y38562D01*
Y39438D01*
X59865Y40246D01*
X59246Y40865D01*
X58438Y41200D01*
D02*
G37*
G36*
X125527Y29000D02*
X124473D01*
X123456Y28727D01*
X122544Y28201D01*
X121799Y27456D01*
X121302Y26595D01*
X121092Y26544D01*
X118907D01*
X118698Y26595D01*
X118201Y27456D01*
X117456Y28201D01*
X116544Y28727D01*
X115527Y29000D01*
X114473D01*
X113456Y28727D01*
X112544Y28201D01*
X111799Y27456D01*
X111273Y26544D01*
X111000Y25527D01*
Y24473D01*
X111273Y23456D01*
X111799Y22544D01*
X112544Y21799D01*
X113456Y21273D01*
X114473Y21000D01*
X115527D01*
X116544Y21273D01*
X117456Y21799D01*
X118201Y22544D01*
X118698Y23405D01*
X118907Y23456D01*
X121092D01*
X121302Y23405D01*
X121799Y22544D01*
X122544Y21799D01*
X123456Y21273D01*
X124473Y21000D01*
X125527D01*
X126544Y21273D01*
X127456Y21799D01*
X128201Y22544D01*
X128698Y23405D01*
X128908Y23456D01*
X131093D01*
X131302Y23405D01*
X131799Y22544D01*
X132544Y21799D01*
X133456Y21273D01*
X134000Y21127D01*
Y25000D01*
Y28873D01*
X133456Y28727D01*
X132544Y28201D01*
X131799Y27456D01*
X131302Y26595D01*
X131093Y26544D01*
X128908D01*
X128698Y26595D01*
X128201Y27456D01*
X127456Y28201D01*
X126544Y28727D01*
X125527Y29000D01*
D02*
G37*
G36*
X136000Y28873D02*
Y26000D01*
X138873D01*
X138727Y26544D01*
X138201Y27456D01*
X137456Y28201D01*
X136544Y28727D01*
X136000Y28873D01*
D02*
G37*
G36*
X138873Y24000D02*
X136000D01*
Y21127D01*
X136544Y21273D01*
X137456Y21799D01*
X138201Y22544D01*
X138727Y23456D01*
X138873Y24000D01*
D02*
G37*
G36*
X226062Y38500D02*
X223938D01*
X221839Y38168D01*
X219818Y37511D01*
X217924Y36546D01*
X216205Y35297D01*
X214703Y33795D01*
X213454Y32076D01*
X212489Y30182D01*
X211832Y28161D01*
X211500Y26063D01*
Y23937D01*
X211832Y21839D01*
X212489Y19818D01*
X213454Y17924D01*
X214703Y16205D01*
X216205Y14703D01*
X217924Y13454D01*
X219818Y12489D01*
X221839Y11832D01*
X223938Y11500D01*
X226062D01*
X228161Y11832D01*
X230182Y12489D01*
X232076Y13454D01*
X233795Y14703D01*
X235297Y16205D01*
X236546Y17924D01*
X237511Y19818D01*
X238168Y21839D01*
X238500Y23937D01*
Y26063D01*
X238168Y28161D01*
X237511Y30182D01*
X236546Y32076D01*
X235297Y33795D01*
X233795Y35297D01*
X232076Y36546D01*
X230182Y37511D01*
X228161Y38168D01*
X226062Y38500D01*
D02*
G37*
G36*
X26063D02*
X23937D01*
X21839Y38168D01*
X19818Y37511D01*
X17924Y36546D01*
X16205Y35297D01*
X14703Y33795D01*
X13454Y32076D01*
X12489Y30182D01*
X11832Y28161D01*
X11500Y26063D01*
Y23937D01*
X11832Y21839D01*
X12489Y19818D01*
X13454Y17924D01*
X14703Y16205D01*
X16205Y14703D01*
X17924Y13454D01*
X19818Y12489D01*
X21839Y11832D01*
X23937Y11500D01*
X26063D01*
X28161Y11832D01*
X30182Y12489D01*
X32076Y13454D01*
X33795Y14703D01*
X35297Y16205D01*
X36546Y17924D01*
X37511Y19818D01*
X38168Y21839D01*
X38500Y23937D01*
Y26063D01*
X38168Y28161D01*
X37511Y30182D01*
X36546Y32076D01*
X35297Y33795D01*
X33795Y35297D01*
X32076Y36546D01*
X30182Y37511D01*
X28161Y38168D01*
X26063Y38500D01*
D02*
G37*
%LPD*%
G36*
X143471Y144772D02*
Y133907D01*
X141438Y132200D01*
X140562Y132200D01*
X139754Y131865D01*
X139577Y131688D01*
X137497Y132208D01*
X137077Y132454D01*
Y141914D01*
X140971Y145808D01*
X143471Y144772D01*
D02*
G37*
G36*
X142606Y105337D02*
X143471Y104553D01*
Y75447D01*
X142606Y74663D01*
X140971Y73832D01*
X140520Y73953D01*
X139480D01*
X137365Y75334D01*
X137077Y75763D01*
Y104237D01*
X137365Y104666D01*
X139480Y106047D01*
X140520D01*
X140971Y106168D01*
X142606Y105337D01*
D02*
G37*
D15*
X153028Y328730D02*
X156757Y325000D01*
X170200D01*
X158000Y328000D02*
X171443D01*
X156028Y329972D02*
Y337414D01*
X153028Y328730D02*
Y337414D01*
X156028Y329972D02*
X158000Y328000D01*
X171443D02*
X182500Y316943D01*
X144685Y338000D02*
X152442D01*
X156613D02*
X164370D01*
X152442D02*
X153028Y337414D01*
X156028D02*
X156613Y338000D01*
X182500Y313200D02*
X182700Y313000D01*
X170200Y325000D02*
X179500Y315700D01*
Y313200D02*
Y315700D01*
X179300Y313000D02*
X179500Y313200D01*
X182500D02*
Y316943D01*
X132000Y144000D02*
X140000Y152000D01*
X125000Y102000D02*
X132000Y109000D01*
Y144000D01*
X145000Y46000D02*
Y147000D01*
X153000Y155000D01*
Y168000D01*
X145000Y152000D02*
Y165000D01*
X135547Y142547D02*
X145000Y152000D01*
X135547Y45453D02*
Y142547D01*
X140000Y152000D02*
Y165000D01*
X147000Y172000D01*
X153000D01*
X145000Y46000D02*
X147000Y44000D01*
X179000D01*
X123000D02*
X125000Y46000D01*
Y102000D01*
X79000Y44000D02*
X123000D01*
X135547Y45453D02*
X137000Y44000D01*
X137000Y154000D02*
Y167000D01*
X43182Y140000D02*
X123000D01*
X137000Y154000D01*
X25000Y108504D02*
Y127000D01*
X41000Y143000D01*
X121172D01*
X25000Y71496D02*
X41000Y87496D01*
Y137818D02*
X43182Y140000D01*
X41000Y87496D02*
Y137818D01*
X137000Y167000D02*
X144000Y174000D01*
X134000Y155828D02*
Y175000D01*
X132000Y177000D02*
X134000Y175000D01*
X121172Y143000D02*
X134000Y155828D01*
X105000Y210000D02*
X132000Y183000D01*
X105000Y210000D02*
Y243000D01*
X125000Y280000D02*
X133421Y271579D01*
X178500D01*
X110000Y280000D02*
X125122Y264878D01*
X166799D01*
X149000Y276000D02*
X184079D01*
X188500Y271579D01*
X145000Y280000D02*
X149000Y276000D01*
D49*
X164370Y338000D02*
D03*
D50*
X144685D02*
D03*
X85630D02*
D03*
X105315D02*
D03*
X125000D02*
D03*
D51*
X25000Y108504D02*
D03*
Y90000D02*
D03*
Y71496D02*
D03*
D52*
X172000Y180750D02*
D03*
Y185250D02*
D03*
D53*
X90000Y110000D02*
D03*
X100000D02*
D03*
X110000D02*
D03*
X120000D02*
D03*
X160000D02*
D03*
X140000D02*
D03*
X100000Y70000D02*
D03*
X110000D02*
D03*
X120000D02*
D03*
X130000D02*
D03*
X140000D02*
D03*
X150000D02*
D03*
X160000D02*
D03*
D54*
X90000D02*
D03*
D55*
X135000Y25000D02*
D03*
X125000D02*
D03*
X115000D02*
D03*
D56*
X225000Y200000D02*
D03*
Y190000D02*
D03*
Y180000D02*
D03*
Y170000D02*
D03*
Y160000D02*
D03*
D57*
Y150000D02*
D03*
D58*
X25000Y25000D02*
D03*
X225000D02*
D03*
Y325000D02*
D03*
X25000D02*
D03*
D59*
X130000Y330000D02*
D03*
X120000D02*
D03*
X110000D02*
D03*
X100000D02*
D03*
X90000D02*
D03*
X80000D02*
D03*
X140000D02*
D03*
X170000Y320000D02*
D03*
X160000D02*
D03*
X220000Y10000D02*
D03*
X230000D02*
D03*
X240000Y20000D02*
D03*
Y30000D02*
D03*
X230000Y40000D02*
D03*
X220000D02*
D03*
X210000Y30000D02*
D03*
Y20000D02*
D03*
X30000Y40000D02*
D03*
X20000D02*
D03*
X10000Y30000D02*
D03*
Y20000D02*
D03*
X30000Y10000D02*
D03*
X20000D02*
D03*
X30000Y310000D02*
D03*
X20000D02*
D03*
X40000Y320000D02*
D03*
Y330000D02*
D03*
X10000Y320000D02*
D03*
Y330000D02*
D03*
X30000Y340000D02*
D03*
X20000D02*
D03*
X170000Y300000D02*
D03*
X160000D02*
D03*
X200000Y270000D02*
D03*
X210000D02*
D03*
X220000D02*
D03*
Y280000D02*
D03*
X210000D02*
D03*
X200000D02*
D03*
Y290000D02*
D03*
X210000D02*
D03*
X220000D02*
D03*
X230000D02*
D03*
Y280000D02*
D03*
Y270000D02*
D03*
X240000D02*
D03*
Y280000D02*
D03*
Y290000D02*
D03*
Y300000D02*
D03*
X230000D02*
D03*
X220000D02*
D03*
X210000D02*
D03*
X200000D02*
D03*
Y310000D02*
D03*
X190000Y320000D02*
D03*
X200000D02*
D03*
X210000D02*
D03*
Y310000D02*
D03*
X220000D02*
D03*
X230000D02*
D03*
X240000D02*
D03*
Y320000D02*
D03*
Y330000D02*
D03*
Y340000D02*
D03*
X230000D02*
D03*
X220000D02*
D03*
X210000D02*
D03*
Y330000D02*
D03*
X200000D02*
D03*
Y340000D02*
D03*
X190000D02*
D03*
Y330000D02*
D03*
X180000D02*
D03*
Y340000D02*
D03*
X160000Y310000D02*
D03*
X150000D02*
D03*
Y320000D02*
D03*
X140000D02*
D03*
Y310000D02*
D03*
X120000D02*
D03*
X130000D02*
D03*
Y320000D02*
D03*
X120000D02*
D03*
X110000D02*
D03*
Y310000D02*
D03*
X130000Y270000D02*
D03*
X110000D02*
D03*
X100000D02*
D03*
Y280000D02*
D03*
Y310000D02*
D03*
Y320000D02*
D03*
X80000D02*
D03*
X90000D02*
D03*
Y310000D02*
D03*
Y300000D02*
D03*
Y290000D02*
D03*
Y280000D02*
D03*
Y270000D02*
D03*
X80000Y280000D02*
D03*
Y270000D02*
D03*
X70000D02*
D03*
Y280000D02*
D03*
Y320000D02*
D03*
Y330000D02*
D03*
Y340000D02*
D03*
X60000D02*
D03*
Y330000D02*
D03*
Y320000D02*
D03*
Y310000D02*
D03*
Y300000D02*
D03*
Y290000D02*
D03*
Y280000D02*
D03*
Y270000D02*
D03*
X10000Y310000D02*
D03*
Y340000D02*
D03*
X40000D02*
D03*
X50000D02*
D03*
Y330000D02*
D03*
Y320000D02*
D03*
X40000Y310000D02*
D03*
X50000D02*
D03*
Y300000D02*
D03*
X40000D02*
D03*
X30000D02*
D03*
X20000D02*
D03*
X10000D02*
D03*
Y220000D02*
D03*
Y230000D02*
D03*
Y240000D02*
D03*
Y250000D02*
D03*
X20000D02*
D03*
Y240000D02*
D03*
Y230000D02*
D03*
Y220000D02*
D03*
X30000D02*
D03*
Y230000D02*
D03*
Y240000D02*
D03*
Y250000D02*
D03*
X40000D02*
D03*
Y240000D02*
D03*
Y230000D02*
D03*
Y220000D02*
D03*
X50000D02*
D03*
Y230000D02*
D03*
X60000Y220000D02*
D03*
Y230000D02*
D03*
Y240000D02*
D03*
Y250000D02*
D03*
X70000D02*
D03*
Y240000D02*
D03*
Y230000D02*
D03*
Y220000D02*
D03*
X80000D02*
D03*
Y230000D02*
D03*
X90000Y250000D02*
D03*
Y240000D02*
D03*
Y230000D02*
D03*
Y220000D02*
D03*
X100000D02*
D03*
X110000D02*
D03*
X120000D02*
D03*
X130000D02*
D03*
X160000Y250000D02*
D03*
Y240000D02*
D03*
Y220000D02*
D03*
X170000D02*
D03*
Y230000D02*
D03*
Y240000D02*
D03*
Y250000D02*
D03*
X180000D02*
D03*
Y240000D02*
D03*
Y230000D02*
D03*
Y220000D02*
D03*
X190000D02*
D03*
Y230000D02*
D03*
Y240000D02*
D03*
Y250000D02*
D03*
X200000D02*
D03*
Y240000D02*
D03*
Y230000D02*
D03*
Y220000D02*
D03*
X210000D02*
D03*
Y230000D02*
D03*
Y240000D02*
D03*
Y250000D02*
D03*
X220000D02*
D03*
Y240000D02*
D03*
Y230000D02*
D03*
Y220000D02*
D03*
X230000D02*
D03*
Y230000D02*
D03*
Y240000D02*
D03*
Y250000D02*
D03*
X240000D02*
D03*
Y240000D02*
D03*
Y230000D02*
D03*
Y220000D02*
D03*
X90000Y210000D02*
D03*
Y200000D02*
D03*
X80000Y210000D02*
D03*
Y200000D02*
D03*
X70000Y210000D02*
D03*
Y200000D02*
D03*
X60000Y210000D02*
D03*
Y200000D02*
D03*
X50000Y210000D02*
D03*
Y200000D02*
D03*
X40000Y210000D02*
D03*
Y200000D02*
D03*
X30000D02*
D03*
Y210000D02*
D03*
X10000D02*
D03*
X20000D02*
D03*
Y200000D02*
D03*
X10000D02*
D03*
Y190000D02*
D03*
Y180000D02*
D03*
Y170000D02*
D03*
Y160000D02*
D03*
X20000D02*
D03*
X30000Y150000D02*
D03*
X10000D02*
D03*
X20000D02*
D03*
Y140000D02*
D03*
X10000D02*
D03*
X100000Y170000D02*
D03*
X80000Y150000D02*
D03*
X90000D02*
D03*
X140000Y140000D02*
D03*
X150000Y180000D02*
D03*
X100000Y200000D02*
D03*
Y210000D02*
D03*
X110000Y200000D02*
D03*
X120000Y190000D02*
D03*
X130000D02*
D03*
Y200000D02*
D03*
X120000D02*
D03*
X110000Y210000D02*
D03*
X120000D02*
D03*
X130000D02*
D03*
X150000D02*
D03*
X160000D02*
D03*
X190000Y140000D02*
D03*
X180000Y150000D02*
D03*
X170000Y160000D02*
D03*
X180000D02*
D03*
X200000D02*
D03*
Y170000D02*
D03*
Y180000D02*
D03*
X180000Y190000D02*
D03*
X170000D02*
D03*
Y210000D02*
D03*
Y200000D02*
D03*
X180000D02*
D03*
Y210000D02*
D03*
X190000D02*
D03*
X200000D02*
D03*
X210000D02*
D03*
X220000D02*
D03*
X230000D02*
D03*
X240000D02*
D03*
Y200000D02*
D03*
Y190000D02*
D03*
Y180000D02*
D03*
Y170000D02*
D03*
Y160000D02*
D03*
Y150000D02*
D03*
X200000Y140000D02*
D03*
X210000D02*
D03*
X220000D02*
D03*
X230000D02*
D03*
X240000D02*
D03*
Y130000D02*
D03*
X230000D02*
D03*
X220000D02*
D03*
X230000Y120000D02*
D03*
X240000D02*
D03*
Y110000D02*
D03*
X210000D02*
D03*
X200000D02*
D03*
X180000D02*
D03*
X190000D02*
D03*
Y100000D02*
D03*
X200000D02*
D03*
X210000D02*
D03*
X240000D02*
D03*
Y90000D02*
D03*
X210000D02*
D03*
X200000D02*
D03*
X190000D02*
D03*
Y80000D02*
D03*
X200000D02*
D03*
X210000D02*
D03*
X240000D02*
D03*
Y70000D02*
D03*
X210000D02*
D03*
X200000D02*
D03*
X190000D02*
D03*
Y60000D02*
D03*
X200000D02*
D03*
X210000D02*
D03*
X220000D02*
D03*
X230000D02*
D03*
X240000D02*
D03*
Y50000D02*
D03*
X230000D02*
D03*
X220000D02*
D03*
X210000D02*
D03*
X200000D02*
D03*
X190000D02*
D03*
X170000Y70000D02*
D03*
Y60000D02*
D03*
Y50000D02*
D03*
X160000D02*
D03*
Y60000D02*
D03*
X150000Y50000D02*
D03*
Y60000D02*
D03*
X160000Y80000D02*
D03*
Y100000D02*
D03*
X150000D02*
D03*
Y90000D02*
D03*
X140000Y100000D02*
D03*
Y90000D02*
D03*
Y80000D02*
D03*
Y60000D02*
D03*
X10000Y110000D02*
D03*
Y100000D02*
D03*
Y90000D02*
D03*
Y80000D02*
D03*
Y70000D02*
D03*
X80000Y80000D02*
D03*
Y90000D02*
D03*
X90000D02*
D03*
Y80000D02*
D03*
X100000Y90000D02*
D03*
X110000Y100000D02*
D03*
X100000D02*
D03*
X90000D02*
D03*
X80000D02*
D03*
Y110000D02*
D03*
X50000D02*
D03*
Y100000D02*
D03*
X60000D02*
D03*
Y90000D02*
D03*
X50000D02*
D03*
Y80000D02*
D03*
X60000D02*
D03*
Y70000D02*
D03*
X50000D02*
D03*
X40000D02*
D03*
X50000Y60000D02*
D03*
X60000D02*
D03*
X70000D02*
D03*
X130000D02*
D03*
Y50000D02*
D03*
X110000D02*
D03*
X100000D02*
D03*
X90000D02*
D03*
X80000D02*
D03*
X70000D02*
D03*
X60000D02*
D03*
X50000D02*
D03*
X10000Y10000D02*
D03*
Y40000D02*
D03*
X240000Y10000D02*
D03*
Y40000D02*
D03*
X210000D02*
D03*
X200000D02*
D03*
Y30000D02*
D03*
Y20000D02*
D03*
X210000Y10000D02*
D03*
X200000D02*
D03*
X190000D02*
D03*
X180000D02*
D03*
X170000D02*
D03*
X160000D02*
D03*
X150000Y30000D02*
D03*
Y20000D02*
D03*
Y10000D02*
D03*
X140000D02*
D03*
X130000D02*
D03*
X120000D02*
D03*
X110000D02*
D03*
X100000Y30000D02*
D03*
Y20000D02*
D03*
Y10000D02*
D03*
X90000D02*
D03*
X80000D02*
D03*
X70000D02*
D03*
X60000D02*
D03*
X40000Y40000D02*
D03*
X50000D02*
D03*
Y30000D02*
D03*
Y20000D02*
D03*
Y10000D02*
D03*
X40000D02*
D03*
D60*
X91500Y192319D02*
D03*
X37000Y130000D02*
D03*
X132000Y177000D02*
D03*
X154481Y220663D02*
D03*
X132000Y183000D02*
D03*
X144000Y184000D02*
D03*
Y179000D02*
D03*
Y174000D02*
D03*
X107000Y158000D02*
D03*
X102000D02*
D03*
X97000D02*
D03*
X92000D02*
D03*
X153000Y133000D02*
D03*
X48000Y154000D02*
D03*
X53000D02*
D03*
X65000Y158000D02*
D03*
X58000Y150000D02*
D03*
X81500Y169681D02*
D03*
X86500D02*
D03*
X145000Y165000D02*
D03*
X141000Y130000D02*
D03*
X161000Y133000D02*
D03*
X158000Y160000D02*
D03*
X162000D02*
D03*
X185000Y133000D02*
D03*
X193000D02*
D03*
X197000D02*
D03*
X188000Y121000D02*
D03*
X172000D02*
D03*
X156000D02*
D03*
X181000Y133000D02*
D03*
X165000D02*
D03*
X177000D02*
D03*
X169000D02*
D03*
X38000Y158000D02*
D03*
X153000Y168000D02*
D03*
Y172000D02*
D03*
X156000Y175023D02*
D03*
Y180000D02*
D03*
X168000Y175000D02*
D03*
X130000Y161000D02*
D03*
Y166000D02*
D03*
Y171000D02*
D03*
X126000Y171000D02*
D03*
X154000Y232000D02*
D03*
X158000D02*
D03*
X126000Y179000D02*
D03*
X167000Y203000D02*
D03*
Y195000D02*
D03*
X106500Y192319D02*
D03*
X42500Y180122D02*
D03*
X62500D02*
D03*
X101500Y192319D02*
D03*
X96500D02*
D03*
X86500D02*
D03*
X81500D02*
D03*
X109000Y130000D02*
D03*
X43000Y158000D02*
D03*
X33000D02*
D03*
X57500Y192122D02*
D03*
X52500D02*
D03*
X37500D02*
D03*
X18000Y179000D02*
D03*
Y171000D02*
D03*
X125000Y130000D02*
D03*
X93000D02*
D03*
X77000D02*
D03*
X61000D02*
D03*
X45000D02*
D03*
X69000Y120000D02*
D03*
X53000D02*
D03*
X190000Y188000D02*
D03*
Y162000D02*
D03*
X188000Y206000D02*
D03*
X188000Y144000D02*
D03*
X229000Y107000D02*
D03*
X221000D02*
D03*
X179000Y44000D02*
D03*
X137000D02*
D03*
X79000D02*
D03*
X229000Y73000D02*
D03*
X221000D02*
D03*
X37000Y50000D02*
D03*
X158000Y39000D02*
D03*
X100000D02*
D03*
X58000D02*
D03*
X150000Y243000D02*
D03*
X10000Y264000D02*
D03*
Y272000D02*
D03*
X105000Y243000D02*
D03*
X117000Y223000D02*
D03*
X121000Y305000D02*
D03*
X125000Y280000D02*
D03*
X129000Y305000D02*
D03*
X141000D02*
D03*
X166799Y264878D02*
D03*
X71000Y313000D02*
D03*
X79000D02*
D03*
X178500Y271579D02*
D03*
X188500D02*
D03*
X145000Y280000D02*
D03*
X160000Y284000D02*
D03*
Y292000D02*
D03*
X149000Y305000D02*
D03*
X169000Y313000D02*
D03*
X179300D02*
D03*
X182700D02*
D03*
X125000Y241000D02*
D03*
X110000Y280000D02*
D03*
X101000Y231000D02*
D03*
X109000D02*
D03*
X141000Y223000D02*
D03*
D61*
X18318Y31682D02*
D03*
X15550Y25000D02*
D03*
X18318Y18318D02*
D03*
X25000Y15550D02*
D03*
X31682Y18318D02*
D03*
X34450Y25000D02*
D03*
X31682Y31682D02*
D03*
X25000Y34450D02*
D03*
X218318Y31682D02*
D03*
X215550Y25000D02*
D03*
X218318Y18318D02*
D03*
X225000Y15550D02*
D03*
X231682Y18318D02*
D03*
X234450Y25000D02*
D03*
X231682Y31682D02*
D03*
X225000Y34450D02*
D03*
X218318Y331682D02*
D03*
X215550Y325000D02*
D03*
X218318Y318318D02*
D03*
X225000Y315550D02*
D03*
X231682Y318318D02*
D03*
X234450Y325000D02*
D03*
X231682Y331682D02*
D03*
X225000Y334450D02*
D03*
X18318Y331682D02*
D03*
X15550Y325000D02*
D03*
X18318Y318318D02*
D03*
X25000Y315550D02*
D03*
X31682Y318318D02*
D03*
X34450Y325000D02*
D03*
X31682Y331682D02*
D03*
X25000Y334450D02*
D03*
M02*
