M48
;Layer_Color=9474304
;FILE_FORMAT=2:4
INCH,TZ
;TYPE=PLATED
T1F00S00C0.0120
T2F00S00C0.0200
T3F00S00C0.0240
T4F00S00C0.0295
T5F00S00C0.0300
T6F00S00C0.0350
T7F00S00C0.0492
T8F00S00C0.0700
T9F00S00C0.1350
%
T01
X3700Y5000
X5800Y3900
X7900Y4400
X10000Y3900
X13700Y4400
X15800Y3900
X17900Y4400
X22100Y7300
X22900
X22900Y10700
X22100
X18800Y12100
X18500Y13300
X18100
X17700
X16900
X16500
X16100
X15300
X14100Y13000
X12500
X10900
X9300
X7700
X6900Y12000
X6500Y15800
X6250Y18012
X8150Y16968
X8650
X9200Y15800
X9700
X10200
X10700
X13000Y16100
Y16600
Y17100
X12600Y17100
Y17900
X13200Y17700
Y18300
X14400Y18400
Y17900
Y17400
X14500Y16500
X15300Y16800
Y17200
X15600Y17502
Y18000
X16800Y17500
X16200Y16000
X15800
X19000Y16200
X18800Y14400
X19300Y13300
X19700
X17200Y12100
X15600
X16700Y19500
Y20300
X18800Y20600
X19000Y18800
X10650Y19232
X10150
X9650
X9150
X8650
X8150
X5750Y19212
X5250
X3750
X4250Y18012
X4300Y15800
X3800
X3300
X4800Y15400
X5300
X5800Y15000
X6100Y13000
X4500
X3700
X5300Y12000
X1800Y17100
Y17900
X1000Y26400
Y27200
X7100Y31300
X7900
X12100Y30500
X12900
X14100
X14900
X16000Y29200
Y28400
X14500Y28000
X12500
X11000Y28000
X10500Y24300
X10100Y23100
X10900
X11700Y22300
X14100
X15448Y22066
X15400Y23200
X15800
X15000Y24300
X12500Y24100
X16680Y26488
X17850Y27158
X18850
X18270Y31300
X17930
X16900
T02
X1832Y1832
X1555Y2500
X1832Y3168
X2500Y3445
X3168Y3168
X3445Y2500
X3168Y1832
X2500Y1555
X21832Y1832
X21555Y2500
X21832Y3168
X22500Y3445
X23168Y3168
X23445Y2500
X23168Y1832
X22500Y1555
X17200Y18075
Y18525
X3168Y31832
X2500Y31555
X1832Y31832
X1555Y32500
X1832Y33168
X2500Y33445
X3168Y33168
X3445Y32500
X21555
X21832Y33168
Y31832
X22500Y31555
X23168Y31832
X23445Y32500
X23168Y33168
X22500Y33445
T03
X1000Y1000
Y2000
Y3000
Y4000
X2000
X3000
X4000
X5000
Y5000
X6000
X5000Y3000
Y2000
Y1000
X6000
X4000
X3000
X2000
X7000
X8000
X9000
X10000
X11000
X12000
X13000
X14000
X15000
X16000
X17000
X18000
X19000
X20000
Y2000
X21000
Y3000
Y4000
Y5000
X20000
X19000
X17000
X16000
X15000
X13000
X11000
X10000
X9000
X8000
X7000
X10000Y3000
Y2000
X15000
Y3000
X20000
Y4000
X21000Y1000
X22000
X23000
X24000
Y2000
Y3000
Y4000
X23000
X22000
Y5000
X23000
X24000
Y6000
Y7000
Y8000
Y9000
Y10000
Y11000
Y12000
Y13000
Y14000
Y15000
Y16000
Y17000
Y18000
Y19000
Y20000
Y21000
X23000
X22000
Y14000
X23000
Y13000
X22000
X23000Y12000
Y6000
X22000
X21000
Y7000
Y8000
Y9000
Y10000
Y11000
X20000
X19000
X18000
X19000Y10000
X20000
Y9000
X19000
Y8000
X20000
Y7000
X19000
Y6000
X20000
X17000
Y7000
X16000Y6000
X15000
X14000
X13000
X14000Y8000
Y9000
X15000
Y10000
X16000
Y8000
X14000Y10000
X11000
X10000
Y9000
X9000
X8000
Y8000
X9000
Y10000
X8000
Y11000
Y15000
X9000
X10000Y17000
Y20000
X9000
Y21000
X8000
Y20000
X7000
Y21000
X10000
X11000
Y20000
X12000
Y19000
X13000
Y20000
Y21000
X12000
X15000
X16000
X17000
Y20000
Y19000
X18000
Y20000
Y21000
X19000
X20000
X21000
X20000Y18000
Y17000
Y16000
X18000
Y15000
X19000Y14000
X20000
X21000
X17000Y16000
X15000Y18000
X14000Y14000
X7000Y6000
X6000
Y7000
Y8000
Y9000
Y10000
X5000
Y11000
Y9000
Y8000
Y7000
X4000
X5000Y6000
X1000Y7000
Y8000
Y9000
Y10000
Y11000
Y14000
Y15000
Y16000
Y17000
Y18000
Y19000
Y20000
Y21000
X2000
X3000
X4000
X5000
X6000
Y20000
X5000
X4000
X3000
X2000
Y16000
Y15000
X3000
X2000Y14000
Y22000
X1000
Y23000
Y24000
Y25000
X2000
Y24000
Y23000
X3000
Y22000
X4000
Y23000
Y24000
X3000
Y25000
X4000
X6000
Y24000
Y23000
X5000
Y22000
X6000
Y27000
Y28000
Y29000
Y30000
Y31000
Y32000
Y33000
Y34000
X5000
X4000
Y33000
Y32000
X5000
Y33000
Y31000
X4000
X3000
X2000
X1000
Y32000
Y33000
Y34000
X2000
X3000
Y30000
X4000
X5000
X2000
X1000
X9000
Y31000
X10000
X11000
X12000
X13000
X14000
X15000
X16000
Y32000
X17000
Y30000
X16000
X15000Y32000
X14000
Y33000
X13000
X12000
X11000
X10000
X9000
X8000
Y32000
X9000
X10000
X11000
X12000
X13000
Y27000
X11000
X10000
Y28000
X9000
Y29000
Y27000
X8000
Y28000
X7000
Y27000
Y25000
Y24000
Y23000
Y22000
X8000
Y23000
X9000
Y24000
Y25000
Y22000
X10000
X11000
X12000
X13000
X16000
X17000
Y23000
Y24000
X16000
Y25000
X17000
X18000
Y24000
Y23000
Y22000
X19000
Y23000
Y24000
Y25000
X20000
Y24000
Y23000
Y22000
X21000
Y23000
Y24000
Y25000
Y27000
X20000
Y28000
X21000
Y29000
X20000
Y30000
X21000
Y31000
X20000
Y32000
X19000
Y33000
X20000
X21000
Y32000
Y34000
X20000
X19000
X18000
Y33000
X7000
Y32000
Y34000
X22000
X23000
X24000
Y33000
Y32000
Y31000
Y30000
Y29000
X23000
X22000
Y28000
Y27000
X23000
Y28000
X24000
Y27000
Y25000
X23000
X22000
Y24000
Y23000
Y22000
X23000
Y23000
Y24000
X24000
Y23000
Y22000
X23000Y30000
X22000
Y31000
X23000
T04
X9000Y7000
X10000
X11000
X12000
X13000
X14000
X15000
X16000
Y11000
X14000
X12000
X11000
X10000
X9000
T05
X11500Y2500
X12500
X13500
T06
X22500Y15000
Y16000
Y17000
Y18000
Y19000
Y20000
T07
X8563Y33800
X10532
X12500
X14468
X16437
T08
X2500Y7150
Y9000
Y10850
T09
X2500Y2500
X22500
X2500Y32500
X22500
M30
